<svg width="112" height="112" viewBox="0 0 112 112" fill="none" xmlns="http://www.w3.org/2000/svg">
<g filter="url(#filter0_d_1146_688)">
<circle cx="56" cy="56" r="46" fill="#FC611F"/>
<mask id="mask0_1146_688" style="mask-type:alpha" maskUnits="userSpaceOnUse" x="10" y="10" width="92" height="92">
<circle cx="56" cy="56" r="46" fill="#FC611F"/>
</mask>
<g mask="url(#mask0_1146_688)">
<path d="M87.2001 82.8C84.5001 79.4 73.1001 77.9 67.9001 77.3C67.3001 77.2 66.8001 77.2 66.3001 77.2C65.7001 77.1 65.1001 76.6 65.1001 76L63.5001 58.1H47.6001L46.0001 76C45.9001 76.6 45.4001 77.2 44.8001 77.2C44.4001 77.2 43.9001 77.3 43.2001 77.3C37.9001 77.8 26.5001 79.3 23.8001 82.8C20.8001 86.6 23.8001 102.1 23.8001 102.1H87.1001C87.2001 102.1 90.2001 86.6 87.2001 82.8Z" fill="#346178"/>
<path d="M72.8997 50.2C71.5997 49.4 69.6998 50.9 68.5998 53.6C67.4998 56.3 67.6998 59.1 68.9998 59.9C70.2998 60.7 72.1998 59.2 73.2998 56.5C74.3998 53.8 74.1997 51 72.8997 50.2Z" fill="#FEE69F"/>
<path d="M38.1999 50.2C39.4999 49.4 41.4 50.9 42.5 53.6C43.6 56.3 43.4 59.1 42.1 59.9C40.8 60.7 38.9 59.2 37.8 56.5C36.7 53.8 36.8999 51 38.1999 50.2Z" fill="#FEE69F"/>
<path d="M73.3004 45.3C73.3004 57.8 65.4004 72 55.6004 72C45.8004 72 37.9004 57.9 37.9004 45.3C37.9004 32.8 45.8004 26.6 55.6004 26.6C65.4004 26.6 73.3004 32.8 73.3004 45.3Z" fill="#FEE69F"/>
<path opacity="0.4" d="M37.9004 45.3C37.9004 57.8 45.8004 72 55.6004 72V26.6C45.8004 26.6 37.9004 32.8 37.9004 45.3Z" fill="white"/>
<path d="M73.2002 40.8C72.9002 39.1 72.5002 37.3 71.6002 35.5C70.8002 33.7 69.6002 32 68.0002 30.5C66.4002 29 64.4002 27.9 62.3002 27.1C61.2002 26.7 60.1002 26.5 59.0002 26.3C58.4002 26.2 57.8002 26.1 57.3002 26.1L55.6002 26L53.9002 26.1C53.3002 26.1 52.8002 26.2 52.2002 26.3C51.1002 26.5 50.0002 26.8 48.9002 27.1C46.8002 27.8 44.8002 29 43.2002 30.5C41.6002 31.9 40.4002 33.7 39.6002 35.5C38.7002 37.3 38.3002 39.1 38.0002 40.8C37.9002 41.6 37.8002 42.4 37.7002 43.2C37.7002 44 37.7002 44.7 37.7002 45.4C37.8002 46.8 37.9002 47.9 38.0002 48.9C38.4002 50.8 38.6002 51.9 38.6002 51.9L40.2002 52.2C40.2002 52.2 37.2002 38 46.0002 33.6C48.9002 32.1 51.7002 32.4 53.5002 32.8C54.7002 33.1 56.6002 33.1 57.8002 32.8C59.6002 32.3 62.3002 32.1 65.3002 33.6C74.1002 38 71.1002 52.2 71.1002 52.2L72.7002 51.9C72.7002 51.9 72.9002 50.8 73.3002 48.9C73.4002 47.9 73.5002 46.7 73.6002 45.4C73.6002 44.7 73.6002 44 73.6002 43.2C73.4002 42.4 73.3002 41.6 73.2002 40.8Z" fill="#303030"/>
<path d="M47.2002 66.3C47.2002 66.3 47.2002 66.1 47.3002 65.8C47.3002 65.5 47.5002 64.8001 47.7002 64.2001C47.9002 63.6001 48.3002 62.9001 48.9002 62.2001C49.5002 61.5001 50.2002 60.8 51.1002 60.2C52.0002 59.6 53.1002 59.1 54.3002 58.9C55.5002 58.7 56.8002 58.7001 58.1002 59.1001C59.4002 59.5001 60.6002 60.2001 61.6002 61.2001C62.6002 62.2001 63.5002 63.4 63.9002 64.9C64.0002 65.3 64.1002 65.7001 64.1002 66.1001C64.1002 66.2001 64.1002 66.2 64.1002 66.5V66.7001C64.1002 66.9001 64.1002 67 64.1002 67.3C64.0002 68.2 63.7002 69.0001 63.3002 69.7001C62.4002 71.2001 60.9002 72 59.6002 72.5C58.2002 73 56.9002 73.2001 55.6002 73.2001C55.1002 73.2001 54.3002 73.2001 53.8002 73.1001C53.2002 73.0001 52.6002 72.9001 52.1002 72.7001C51.0002 72.3001 50.0002 71.7 49.3002 71C48.6002 70.3 48.1002 69.5 47.8002 68.8C47.6002 68.1 47.5002 67.5001 47.5002 67.1001C47.2002 66.5001 47.2002 66.3 47.2002 66.3ZM49.6002 66.3C49.6002 66.3 49.6002 66.4001 49.7002 66.7001C49.7002 66.9001 49.8002 67.2001 50.0002 67.6001C50.2002 67.9001 50.5002 68.3001 51.0002 68.6001C51.5002 68.9001 52.1002 69.2 52.9002 69.4C53.3002 69.5 53.7002 69.6001 54.1002 69.6001C54.6002 69.7001 54.9002 69.7001 55.5002 69.7001C56.4002 69.7001 57.5002 69.7 58.5002 69.4C59.5002 69.2 60.4002 68.7001 61.0002 68.1001C61.3002 67.8001 61.5002 67.3 61.6002 67C61.7002 66.9 61.7002 66.3001 61.7002 66.2001C61.7002 65.9001 61.7002 65.7 61.7002 65.4C61.6002 64.3 61.1002 63.2 60.4002 62.3C59.7002 61.4 58.7002 60.7001 57.7002 60.3001C56.7002 59.9001 55.5002 59.8 54.5002 60C53.5002 60.2 52.6002 60.7 52.0002 61.3C50.6002 62.5 50.1002 63.9 49.9002 64.9C49.8002 65.4 49.8002 65.6 49.8002 65.9C49.6002 66.2 49.6002 66.4 49.6002 66.3Z" fill="#303030"/>
<path opacity="0.1" d="M63.6002 68.7C63.5002 69 63.3002 69.4 63.1002 69.7C62.2002 71.2 60.7002 72 59.4002 72.5C58.0002 73 56.7002 73.2 55.4002 73.2C54.9002 73.2 54.1002 73.2 53.6002 73.1C53.0002 73 52.4002 72.9 51.9002 72.7C50.8002 72.3 49.8002 71.7 49.1002 71C48.4002 70.3 47.9002 69.5 47.6002 68.8C47.3002 68.6 47.1002 68.3 46.8002 68.1L46.7002 69.1C47.0002 69.4 47.3002 69.6 47.6002 69.9C47.9002 70.6 48.3002 71.4 49.1002 72.1C49.8002 72.8 50.8002 73.4 51.9002 73.8C52.4002 74 53.0002 74.1 53.6002 74.2C54.2002 74.3 54.9002 74.3 55.4002 74.3C56.7002 74.3 58.0002 74.1 59.4002 73.6C60.7002 73.1 62.2002 72.3 63.1002 70.8C63.3002 70.5 63.5002 70.2 63.6002 69.8C63.9002 69.5 64.2002 69.3 64.5002 69L64.4002 68C64.1002 68.2 63.9002 68.5 63.6002 68.7Z" fill="black"/>
</g>
</g>
<defs>
<filter id="filter0_d_1146_688" x="0" y="0" width="112" height="112" filterUnits="userSpaceOnUse" color-interpolation-filters="sRGB">
<feFlood flood-opacity="0" result="BackgroundImageFix"/>
<feColorMatrix in="SourceAlpha" type="matrix" values="0 0 0 0 0 0 0 0 0 0 0 0 0 0 0 0 0 0 127 0" result="hardAlpha"/>
<feOffset/>
<feGaussianBlur stdDeviation="5"/>
<feComposite in2="hardAlpha" operator="out"/>
<feColorMatrix type="matrix" values="0 0 0 0 0 0 0 0 0 0 0 0 0 0 0 0 0 0 0.25 0"/>
<feBlend mode="normal" in2="BackgroundImageFix" result="effect1_dropShadow_1146_688"/>
<feBlend mode="normal" in="SourceGraphic" in2="effect1_dropShadow_1146_688" result="shape"/>
</filter>
</defs>
</svg>
