<svg width="112" height="112" viewBox="0 0 112 112" fill="none" xmlns="http://www.w3.org/2000/svg">
<g filter="url(#filter0_d_1148_194)">
<circle cx="56" cy="56" r="46" fill="#FDC00F"/>
<mask id="mask0_1148_194" style="mask-type:alpha" maskUnits="userSpaceOnUse" x="10" y="10" width="92" height="92">
<circle cx="56" cy="56" r="46" fill="#FDC00F"/>
</mask>
<g mask="url(#mask0_1148_194)">
<path d="M64.7002 73.3L63.4002 58.0001H47.5002L46.2002 73.3C48.9002 74.3 52.1002 74.9001 55.5002 74.9001C58.9002 74.9001 62.0002 74.3 64.7002 73.3Z" fill="#FEE69F"/>
<path opacity="0.1" d="M64.3004 69.0001L63.3004 58.0001H47.4004L46.4004 69.0001C49.0004 71.5001 52.1004 73.1001 55.3004 73.1001C58.5004 73.1001 61.7004 71.6001 64.3004 69.0001Z" fill="black"/>
<path d="M72.8001 50.2C71.5001 49.4 69.6001 50.9001 68.5001 53.6001C67.4001 56.3001 67.6001 59.1 68.9001 59.9C70.2001 60.7 72.1002 59.2 73.2002 56.5C74.3002 53.8 74.1001 51 72.8001 50.2Z" fill="#FEE69F"/>
<path d="M38.1003 50.2C39.4003 49.4 41.3003 50.9001 42.4003 53.6001C43.5003 56.3001 43.3003 59.1 42.0003 59.9C40.7003 60.7 38.8003 59.2 37.7003 56.5C36.6003 53.8 36.8003 51 38.1003 50.2Z" fill="#FEE69F"/>
<path d="M73.1002 45.3001C73.1002 57.8001 65.2002 72.0001 55.4002 72.0001C45.6002 72.0001 37.7002 57.9001 37.7002 45.3001C37.7002 32.8001 45.6002 26.6001 55.4002 26.6001C65.2002 26.6001 73.1002 32.8001 73.1002 45.3001Z" fill="#FEE69F"/>
<path opacity="0.4" d="M37.7002 45.3001C37.7002 57.8001 45.6002 72.0001 55.4002 72.0001V26.6001C45.6002 26.6001 37.7002 32.8001 37.7002 45.3001Z" fill="white"/>
<path d="M87.1001 82.8C84.4001 79.4 73.0001 77.9 67.8001 77.3C67.2001 77.2 66.7001 77.2 66.2001 77.2C65.6001 77.1 65.0001 76.6 65.0001 76L64.8001 73.4C62.1001 74.4 58.9001 75 55.5001 75C52.1001 75 48.9001 74.4 46.2001 73.4L46.0001 76C45.9001 76.6 45.4001 77.2 44.8001 77.2C44.4001 77.2 43.9001 77.3 43.2001 77.3C37.9001 77.8 26.5001 79.3 23.8001 82.8C20.8001 86.6 23.8001 102.1 23.8001 102.1H87.1001C87.1001 102.1 90.1001 86.6 87.1001 82.8Z" fill="#8F6C08"/>
<path d="M48.6006 28.9C48.6006 30.8 51.7006 33.5 55.4006 33.5C59.2006 33.5 62.2006 30.8 62.2006 28.9C62.2006 27 59.1006 25.8 55.4006 25.8C51.7006 25.9 48.6006 27 48.6006 28.9Z" fill="white"/>
<path d="M68.7998 36.1001C69.3998 39.9001 71.3998 41.8001 71.7998 43.8001C72.2998 45.9001 72.1998 51.9001 72.1998 51.9001H72.5998C73.0998 49.7001 73.2998 47.4001 73.2998 45.2001C73.2998 39.9001 73.3998 32.7001 69.5998 32.7001C68.5998 32.8001 68.5998 34.6001 68.7998 36.1001Z" fill="white"/>
<path d="M38.9999 43.8C39.4999 41.8 41.4999 39.9001 41.9999 36.1001C42.1999 34.6001 42.1999 32.8 41.2999 32.8C37.4999 32.8 37.5999 40 37.5999 45.3C37.5999 47.5 37.7999 49.8 38.2999 52H38.6999C38.5999 52 38.4999 45.9 38.9999 43.8Z" fill="white"/>
</g>
</g>
<defs>
<filter id="filter0_d_1148_194" x="0" y="0" width="112" height="112" filterUnits="userSpaceOnUse" color-interpolation-filters="sRGB">
<feFlood flood-opacity="0" result="BackgroundImageFix"/>
<feColorMatrix in="SourceAlpha" type="matrix" values="0 0 0 0 0 0 0 0 0 0 0 0 0 0 0 0 0 0 127 0" result="hardAlpha"/>
<feOffset/>
<feGaussianBlur stdDeviation="5"/>
<feComposite in2="hardAlpha" operator="out"/>
<feColorMatrix type="matrix" values="0 0 0 0 0 0 0 0 0 0 0 0 0 0 0 0 0 0 0.25 0"/>
<feBlend mode="normal" in2="BackgroundImageFix" result="effect1_dropShadow_1148_194"/>
<feBlend mode="normal" in="SourceGraphic" in2="effect1_dropShadow_1148_194" result="shape"/>
</filter>
</defs>
</svg>
