<svg width="112" height="112" viewBox="0 0 112 112" fill="none" xmlns="http://www.w3.org/2000/svg">
<g filter="url(#filter0_d_1151_267)">
<circle cx="56" cy="56" r="46" fill="#346178"/>
<mask id="mask0_1151_267" style="mask-type:alpha" maskUnits="userSpaceOnUse" x="10" y="10" width="92" height="92">
<circle cx="56" cy="56" r="46" fill="#346178"/>
</mask>
<g mask="url(#mask0_1151_267)">
<path d="M23.599 102.1H86.999C86.999 102.1 89.999 86.6 86.999 82.7C83.499 78.2 64.8989 77 64.8989 77H45.699C45.699 77 27.099 78.2 23.599 82.7C20.599 86.6 23.599 102.1 23.599 102.1Z" fill="#FDC00F"/>
<path d="M55.7992 91.6H54.6992V102.1H55.7992V91.6Z" fill="white"/>
<path d="M72.599 50.2C71.299 49.4 69.399 50.9 68.299 53.6C67.199 56.3 67.399 59.1 68.699 59.9C69.999 60.7 71.899 59.2 72.999 56.5C74.099 53.8 73.899 51 72.599 50.2Z" fill="#FEE69F"/>
<path d="M37.8992 50.2C39.1992 49.4 41.0992 50.9 42.1992 53.6C43.2992 56.3 43.0992 59.1 41.7992 59.9C40.4992 60.7 38.5992 59.2 37.4992 56.5C36.3992 53.8 36.5992 51 37.8992 50.2Z" fill="#FEE69F"/>
<path d="M63.1986 58.1H47.2986L45.5986 77.1C45.5986 77.1 45.6986 85.7 55.1986 92.8C64.7986 85.7 64.7986 77.1 64.7986 77.1L63.1986 58.1Z" fill="#FEE69F"/>
<path opacity="0.1" d="M55.2994 72C52.0994 72 49.0994 70.5 46.4994 68L46.3994 69C48.9994 71.5 52.0994 73.1 55.2994 73.1C58.4994 73.1 61.5994 71.5 64.1994 69L64.0994 67.9C61.4994 70.5 58.4994 72 55.2994 72Z" fill="black"/>
<path d="M72.9986 45.3C72.9986 57.8 65.0986 72 55.2986 72C45.4986 72 37.5986 57.9 37.5986 45.3C37.5986 32.8 45.4986 26.6 55.2986 26.6C65.0986 26.6 72.9986 32.8 72.9986 45.3Z" fill="#FEE69F"/>
<path opacity="0.4" d="M55.2986 26.6C45.4986 26.6 37.5986 32.8 37.5986 45.3C37.5986 57.8 45.4986 72 55.2986 72V26.6Z" fill="white"/>
<path d="M64.8988 77.1L69.3988 82.6L66.3988 83.1L67.6989 85.8L55.2988 92.8L64.8988 77.1Z" fill="white"/>
<path d="M45.6992 77.1L41.1992 82.6L44.1992 83.1L42.8992 85.8L55.2992 92.8L45.6992 77.1Z" fill="white"/>
<path d="M72.9986 41.2C72.6986 39.5 72.2986 37.6 71.4986 35.8C70.6986 34 69.4986 32.2 67.8986 30.7C66.2986 29.2 64.2986 28 62.0986 27.2C59.8986 26.4 57.5986 26.1 55.2986 26C52.9986 26 50.5986 26.4 48.4986 27.2C46.2986 28 44.2986 29.2 42.6986 30.7C41.0986 32.2 39.8986 34 39.0986 35.8C38.1986 37.6 37.8986 39.5 37.5986 41.2C37.3986 42.9 37.2986 44.5 37.3986 45.9C37.4986 47.3 37.5986 48.5 37.7986 49.5C38.1986 51.5 38.3986 52.6 38.3986 52.6H39.3986C39.3986 52.6 37.8986 35.4 46.9986 32.1C52.2986 30.2 55.2986 33.2 55.2986 33.2C55.2986 33.2 58.2986 30.2 63.5986 32.1C72.6986 35.4 71.1986 52.6 71.1986 52.6H72.1986C72.1986 52.6 72.3986 51.5 72.7986 49.5C72.9986 48.5 72.9986 47.3 73.1986 45.9C73.2986 44.5 73.1986 42.9 72.9986 41.2Z" fill="#BE900B"/>
<path opacity="0.5" d="M52.2984 51.1C52.2984 53.7 50.1984 55.8 47.5984 55.8C44.9984 55.8 42.8984 53.7 42.8984 51.1C42.8984 48.5 44.9984 46.4 47.5984 46.4C50.1984 46.4 52.2984 48.5 52.2984 51.1Z" fill="white"/>
<path d="M47.5988 56.3C44.6988 56.3 42.2988 53.9 42.2988 51C42.2988 48.1 44.6988 45.7 47.5988 45.7C50.4988 45.7 52.8988 48.1 52.8988 51C52.8988 54 50.4988 56.3 47.5988 56.3ZM47.5988 46.9C45.2988 46.9 43.4988 48.7 43.4988 51C43.4988 53.3 45.3988 55.1 47.5988 55.1C49.8988 55.1 51.6989 53.3 51.6989 51C51.6989 48.8 49.8988 46.9 47.5988 46.9Z" fill="#8FC3D8"/>
<path opacity="0.5" d="M67.6989 51.1C67.6989 53.7 65.5988 55.8 62.9988 55.8C60.3988 55.8 58.2988 53.7 58.2988 51.1C58.2988 48.5 60.3988 46.4 62.9988 46.4C65.5988 46.4 67.6989 48.5 67.6989 51.1Z" fill="white"/>
<path d="M62.9992 56.3C60.0992 56.3 57.6992 53.9 57.6992 51C57.6992 48.1 60.0992 45.7 62.9992 45.7C65.8992 45.7 68.2992 48.1 68.2992 51C68.1992 54 65.8992 56.3 62.9992 56.3ZM62.9992 46.9C60.6992 46.9 58.8992 48.7 58.8992 51C58.8992 53.3 60.6992 55.1 62.9992 55.1C65.2992 55.1 67.0992 53.3 67.0992 51C67.0992 48.8 65.2992 46.9 62.9992 46.9Z" fill="#8FC3D8"/>
<path d="M52.4992 50L51.6992 49.2C52.6992 48.3 53.9992 47.8 55.2992 47.8C56.6992 47.8 57.8992 48.3 58.8992 49.2L58.0992 50C56.5992 48.6 53.9992 48.6 52.4992 50Z" fill="#8FC3D8"/>
<path d="M67.6993 51.6C67.3993 51.6 67.1993 51.4 67.0993 51.2C66.9993 50.9 67.1992 50.6 67.4992 50.5L72.4992 49.4C72.7992 49.3 73.0993 49.5 73.1993 49.8C73.2993 50.1 73.0992 50.4 72.7992 50.5L67.7992 51.6H67.6993Z" fill="#8FC3D8"/>
<path d="M42.8991 51.6H42.7991L37.7991 50.5C37.4991 50.4 37.2991 50.1 37.3991 49.8C37.4991 49.5 37.7991 49.3 38.0991 49.4L43.0991 50.5C43.3991 50.6 43.5991 50.9 43.4991 51.2C43.3991 51.4 43.1991 51.6 42.8991 51.6Z" fill="#8FC3D8"/>
</g>
</g>
<defs>
<filter id="filter0_d_1151_267" x="0" y="0" width="112" height="112" filterUnits="userSpaceOnUse" color-interpolation-filters="sRGB">
<feFlood flood-opacity="0" result="BackgroundImageFix"/>
<feColorMatrix in="SourceAlpha" type="matrix" values="0 0 0 0 0 0 0 0 0 0 0 0 0 0 0 0 0 0 127 0" result="hardAlpha"/>
<feOffset/>
<feGaussianBlur stdDeviation="5"/>
<feComposite in2="hardAlpha" operator="out"/>
<feColorMatrix type="matrix" values="0 0 0 0 0 0 0 0 0 0 0 0 0 0 0 0 0 0 0.25 0"/>
<feBlend mode="normal" in2="BackgroundImageFix" result="effect1_dropShadow_1151_267"/>
<feBlend mode="normal" in="SourceGraphic" in2="effect1_dropShadow_1151_267" result="shape"/>
</filter>
</defs>
</svg>
