<svg width="112" height="112" viewBox="0 0 112 112" fill="none" xmlns="http://www.w3.org/2000/svg">
<g filter="url(#filter0_d_1146_550)">
<circle cx="56" cy="56" r="46" fill="#FC611F"/>
<mask id="mask0_1146_550" style="mask-type:alpha" maskUnits="userSpaceOnUse" x="10" y="10" width="92" height="92">
<circle cx="56" cy="56" r="46" fill="#346178"/>
</mask>
<g mask="url(#mask0_1146_550)">
<path d="M73.7006 45.5H55.8006H38.0006C38.0006 45.5 34.5006 60.6 37.3006 65.2C40.1006 69.9 55.9006 66.2 55.9006 66.2C55.9006 66.2 71.7006 69.9 74.5006 65.2C77.2006 60.5 73.7006 45.5 73.7006 45.5Z" fill="#FDC00F"/>
<path d="M64.0008 86.7001C64.1008 86.4001 64.2008 86.1001 64.3008 85.8001C64.5008 85.2001 64.7008 84.6001 64.9008 84.1001V84.0001C66.0008 80.9001 66.6008 78.6001 66.9008 77.3001C67.4008 77.3001 66.9008 77.3001 66.3008 77.2001C65.7008 77.1001 65.1008 76.6001 65.1008 76.0001L63.5008 58.1001H47.8008L46.2008 76.0001C46.1008 76.6001 45.7008 77.2001 45.2008 77.2001C45.0008 77.2001 44.7008 77.2001 44.3008 77.3001C44.6008 78.6001 45.2008 80.9001 46.3008 84.0001C46.5008 84.6001 46.7008 85.2001 47.0008 85.8001C47.1008 86.1001 47.2008 86.4001 47.3008 86.7001C47.4008 86.9001 47.5008 87.1001 47.6008 87.4001C47.8008 88.0001 48.1008 88.6001 48.3008 89.2001C50.8008 95.2001 53.7008 100.2 54.9008 102.3H56.3008C57.6008 100.2 60.4008 95.1001 62.9008 89.2001C63.2008 88.6001 63.4008 88.0001 63.6008 87.4001C63.9008 87.2001 63.9008 86.9001 64.0008 86.7001Z" fill="#FEE69F"/>
<path d="M73.1 50.3001C71.8 49.5001 69.9 51.0001 68.8 53.7001C67.7 56.4001 67.9 59.2001 69.2 60.0001C70.5 60.8001 72.4 59.3001 73.5 56.6001C74.6 53.9001 74.4 51.1001 73.1 50.3001Z" fill="#FEE69F"/>
<path d="M38.4001 50.3001C39.7001 49.5001 41.6001 51.0001 42.7001 53.7001C43.8001 56.4001 43.6001 59.2001 42.3001 60.0001C41.0001 60.8001 39.1001 59.3001 38.0001 56.6001C36.9001 53.9001 37.1001 51.1001 38.4001 50.3001Z" fill="#FEE69F"/>
<path opacity="0.1" d="M55.7008 72.1C52.5008 72.1 49.5008 70.6 46.9008 68.1L46.8008 69.1C49.4008 71.6 52.5008 73.2 55.7008 73.2C59.0008 73.2 62.0008 71.6 64.6008 69.1L64.5008 68C61.9008 70.6 58.9008 72.1 55.7008 72.1Z" fill="black"/>
<path d="M48.4002 89.2C46.0002 83.5 44.8002 79.3 44.4002 77.4C43.3002 77.5 41.7002 77.7 39.9002 77.9C38.5002 78.1 37.0002 78.3 35.4002 78.6L34.2002 86.5H38.0002L35.5002 90.2L44.0002 102.4H55.0002C53.8002 100.1 50.9002 95.1 48.4002 89.2Z" fill="#346178"/>
<path d="M75.7998 90.1001L73.2998 86.4H77.0998L75.8998 78.5C74.3998 78.2 72.7998 78 71.3998 77.8C69.5998 77.6 67.9998 77.4 66.8998 77.3C66.3998 79.2 65.2998 83.4001 62.8998 89.1001C60.3998 95.1001 57.4998 100.1 56.2998 102.2H67.2998L75.7998 90.1001Z" fill="#346178"/>
<path d="M38.1005 86.4H34.3005L35.5005 78.5C30.7005 79.4 25.8005 80.8 24.2005 82.9C21.2005 86.7 24.2005 102.3 24.2005 102.3H44.3005L35.8005 90.1L38.1005 86.4Z" fill="#346178"/>
<path d="M87.401 82.9C85.801 80.8 80.801 79.4 76.101 78.5L77.301 86.4H73.501L76.001 90.1L67.501 102.3H87.501C87.401 102.3 90.401 86.8 87.401 82.9Z" fill="#346178"/>
<path d="M35.601 90.1L38.101 86.4H34.301L35.501 78.5C35.101 78.6 34.701 78.7 34.301 78.7L33.001 87.5H36.001L34.301 90L42.801 102.2H44.201L35.601 90.1Z" fill="#27495A"/>
<path d="M68.7014 102.3L77.2014 90.1L75.5014 87.6H78.5014L77.2014 78.8C76.8014 78.7 76.4014 78.6 76.0014 78.6L77.2014 86.5H73.4014L75.9014 90.2L67.4014 102.4H68.7014V102.3Z" fill="#27495A"/>
<path d="M71.5004 60.1001C71.5004 61.4001 70.5004 62.4 69.2004 62.4C67.9004 62.4 66.9004 61.4001 66.9004 60.1001C66.9004 58.8001 67.9004 57.8 69.2004 57.8C70.5004 57.8 71.5004 58.8001 71.5004 60.1001Z" fill="#346178"/>
<path d="M44.5004 60.1001C44.5004 61.4001 43.5004 62.4 42.2004 62.4C40.9004 62.4 39.9004 61.4001 39.9004 60.1001C39.9004 58.8001 40.9004 57.8 42.2004 57.8C43.5004 57.8 44.5004 58.8001 44.5004 60.1001Z" fill="#346178"/>
<path d="M73.401 45.5C73.401 58 65.501 72.2 55.701 72.2C45.901 72.2 38.001 58.1 38.001 45.5C38.001 33 45.901 26.8 55.701 26.8C65.501 26.8 73.401 32.9 73.401 45.5Z" fill="#FEE69F"/>
<path opacity="0.4" d="M38.001 45.5C38.001 58 45.901 72.2 55.701 72.2V26.8C45.901 26.8 38.001 32.9 38.001 45.5Z" fill="white"/>
<path d="M52.501 38.5C52.501 38.5 54.401 43.2 73.301 43.2C72.401 32.2 64.901 26.8 55.701 26.8C45.901 26.8 38.001 33 38.001 45.5C45.601 45.5 50.101 41.7 52.501 38.5Z" fill="#FDC00F"/>
</g>
</g>
<defs>
<filter id="filter0_d_1146_550" x="0" y="0" width="112" height="112" filterUnits="userSpaceOnUse" color-interpolation-filters="sRGB">
<feFlood flood-opacity="0" result="BackgroundImageFix"/>
<feColorMatrix in="SourceAlpha" type="matrix" values="0 0 0 0 0 0 0 0 0 0 0 0 0 0 0 0 0 0 127 0" result="hardAlpha"/>
<feOffset/>
<feGaussianBlur stdDeviation="5"/>
<feComposite in2="hardAlpha" operator="out"/>
<feColorMatrix type="matrix" values="0 0 0 0 0 0 0 0 0 0 0 0 0 0 0 0 0 0 0.25 0"/>
<feBlend mode="normal" in2="BackgroundImageFix" result="effect1_dropShadow_1146_550"/>
<feBlend mode="normal" in="SourceGraphic" in2="effect1_dropShadow_1146_550" result="shape"/>
</filter>
</defs>
</svg>
