<svg width="112" height="112" viewBox="0 0 112 112" fill="none" xmlns="http://www.w3.org/2000/svg">
<g filter="url(#filter0_d_1146_765)">
<circle cx="56" cy="56" r="46" fill="#8FC3D8"/>
<mask id="mask0_1146_765" style="mask-type:alpha" maskUnits="userSpaceOnUse" x="10" y="10" width="92" height="92">
<circle cx="56" cy="56" r="46" fill="#346178"/>
</mask>
<g mask="url(#mask0_1146_765)">
<path d="M65.4332 79.1001L63.8332 61.2001H47.9332L46.2332 80.2001C46.2332 80.2001 43.5332 80.4001 40.0332 80.8001C43.3332 85.7001 49.1332 89.6001 55.8332 89.6001C62.5332 89.6001 68.4332 85.7001 71.6332 80.8001C69.5332 80.5001 67.6332 80.3001 66.5332 80.2001C66.0332 80.3001 65.4332 79.7001 65.4332 79.1001Z" fill="#FEE69F"/>
<path d="M73.2328 53.3001C71.9328 52.5001 70.0328 54.0001 68.9328 56.7001C67.8328 59.4001 68.0328 62.2001 69.3328 63.0001C70.6328 63.8001 72.5328 62.3001 73.6328 59.6001C74.7328 56.9001 74.5328 54.1001 73.2328 53.3001Z" fill="#FEE69F"/>
<path d="M38.533 53.3001C39.833 52.5001 41.733 54.0001 42.833 56.7001C43.933 59.4001 43.733 62.2001 42.433 63.0001C41.133 63.8001 39.233 62.3001 38.133 59.6001C37.033 56.9001 37.233 54.1001 38.533 53.3001Z" fill="#FEE69F"/>
<path opacity="0.1" d="M55.9332 75.1001C52.7332 75.1001 49.7332 73.6001 47.1332 71.1001L47.0332 72.1001C49.6332 74.6001 52.7332 76.2001 55.9332 76.2001C59.2332 76.2001 62.2332 74.6001 64.8332 72.1001L64.7332 71.0001C62.1332 73.6001 59.1332 75.1001 55.9332 75.1001Z" fill="black"/>
<path d="M87.5333 85.9C85.3333 83.1 77.4333 81.6 71.7333 80.8C68.4333 85.7 62.6333 89.6001 55.9333 89.6001C49.2333 89.6001 43.3333 85.7 40.1333 80.8C34.4333 81.6 26.4333 83.1 24.3333 85.9C21.3333 89.7 24.3333 105.3 24.3333 105.3H87.7333C87.5333 105.3 90.5333 89.8 87.5333 85.9Z" fill="#FDC00F"/>
<path d="M70.3336 60.8L72.0336 65.8C72.3336 66.7 71.8336 67.8001 70.9336 68.1001C70.0336 68.4001 68.9336 67.9 68.6336 67C68.5336 66.6 68.5336 66.2 68.6336 65.8L70.3336 60.8Z" fill="#FDC00F"/>
<path d="M41.5338 60.8L43.2338 65.8C43.5338 66.7 43.0338 67.8001 42.1338 68.1001C41.2338 68.4001 40.1338 67.9 39.8338 67C39.7338 66.6 39.7338 66.2 39.8338 65.8L41.5338 60.8Z" fill="#FDC00F"/>
<path d="M73.6334 48.5C73.6334 61 65.7334 75.2 55.9334 75.2C46.1334 75.2 38.2334 61.1 38.2334 48.5C38.2334 35.9 46.1334 29.8 55.9334 29.8C65.7334 29.8 73.6334 35.9 73.6334 48.5Z" fill="#FEE69F"/>
<path opacity="0.4" d="M38.2334 48.5C38.2334 61 46.1334 75.2 55.9334 75.2V29.8C46.1334 29.8 38.2334 35.9 38.2334 48.5Z" fill="white"/>
<path d="M64.8332 28.4C64.8332 31.8 60.8332 34.5 55.9332 34.5C51.0332 34.5 47.0332 31.8 47.0332 28.4C47.0332 25 51.0332 22.3 55.9332 22.3C60.8332 22.4 64.8332 25.1 64.8332 28.4Z" fill="white"/>
<path d="M64.8332 33.6C64.8332 37 60.8332 39.7 55.9332 39.7C51.0332 39.7 47.0332 37 47.0332 33.6C47.0332 30.2 51.0332 27.5 55.9332 27.5C60.8332 27.5 64.8332 30.2 64.8332 33.6Z" fill="#FDC00F"/>
<path d="M55.9334 29.8C46.1334 29.8 38.2334 36 38.2334 48.5C38.2334 50.1 38.3334 51.7 38.6334 53.3C38.6334 53.3 40.5334 49.9 49.2334 49C57.9334 48.1 61.9334 43.1001 61.9334 43.1001C61.9334 43.1001 64.8334 49 73.3334 53C73.5334 51.5 73.6334 49.9 73.6334 48.4C73.6334 35.9 65.7334 29.8 55.9334 29.8Z" fill="white"/>
</g>
</g>
<defs>
<filter id="filter0_d_1146_765" x="0" y="0" width="112" height="112" filterUnits="userSpaceOnUse" color-interpolation-filters="sRGB">
<feFlood flood-opacity="0" result="BackgroundImageFix"/>
<feColorMatrix in="SourceAlpha" type="matrix" values="0 0 0 0 0 0 0 0 0 0 0 0 0 0 0 0 0 0 127 0" result="hardAlpha"/>
<feOffset/>
<feGaussianBlur stdDeviation="5"/>
<feComposite in2="hardAlpha" operator="out"/>
<feColorMatrix type="matrix" values="0 0 0 0 0 0 0 0 0 0 0 0 0 0 0 0 0 0 0.25 0"/>
<feBlend mode="normal" in2="BackgroundImageFix" result="effect1_dropShadow_1146_765"/>
<feBlend mode="normal" in="SourceGraphic" in2="effect1_dropShadow_1146_765" result="shape"/>
</filter>
</defs>
</svg>
