<svg width="112" height="112" viewBox="0 0 112 112" fill="none" xmlns="http://www.w3.org/2000/svg">
<g filter="url(#filter0_d_1151_130)">
<circle cx="56" cy="56" r="46" fill="#346178"/>
<mask id="mask0_1151_130" style="mask-type:alpha" maskUnits="userSpaceOnUse" x="10" y="10" width="92" height="92">
<circle cx="56" cy="56" r="46" fill="#346178"/>
</mask>
<g mask="url(#mask0_1151_130)">
<path d="M66.2006 77.3C65.6006 77.2 65.0006 76.7 65.0006 76.1L63.4006 58.2H47.5006L45.8006 77.2C45.8006 77.2 43.1006 77.4 39.6006 77.8L40.9006 86C44.9006 88.5 50.0006 90.1 55.5006 90.1C61.0006 90.1 66.0006 88.5 70.0006 86L71.3006 77.8C69.1006 77.6 67.3006 77.4 66.2006 77.3Z" fill="#FEE69F"/>
<path d="M83.6 46.6C83.6 43.8 82.2 41.3 80.1 39.7C80.2 39.2 80.3 38.6 80.3 38C80.3 34.5 77.5 31.6 74 31.5C73.6 29 71.7 27 69.1 26.7C67.6 23.5 64.4 21.3 60.6 21.3C59.2 21.3 57.9 21.6 56.7 22.1C54.8 20.2 52.2 19 49.4 19C45.3 19 41.7 21.5 40.1 25C37.1 25.6 34.9 28.3 34.9 31.4C34.9 31.5 34.9 31.6 34.9 31.7C32.3 32.5 30.3 35 30.3 37.9C30.3 38.5 30.4 39 30.5 39.6C28.4 41.2 27 43.7 27 46.5C27 49.9 28.9 52.7 31.7 54.1C31.7 54.4 31.6 54.7 31.6 55C31.6 58.1 33.8 60.7 36.7 61.4C36.7 61.6 36.6 61.9 36.6 62.2C36.6 65.3 39.1 67.8 42.2 67.8C45.3 67.8 47.8 65.3 47.8 62.2C47.8 59.8 46.3 57.8 44.3 57C44.5 56.4 44.6 55.8 44.6 55.1C44.6 53.4 43.9 51.9 42.9 50.7C43.6 49.5 43.9 48.2 44 46.7C45.2 46.4 46.7 46.1 48.4 45.9C57.1 45 61.1 40 61.1 40C61.1 40 62.5 42.9 66.3 46C66.3 46.1 66.3 46.3 66.3 46.4C66.3 47.9 66.7 49.3 67.4 50.6C66.3 51.8 65.7 53.3 65.7 55C65.7 55.7 65.8 56.3 66 56.9C63.9 57.7 62.5 59.8 62.5 62.1C62.5 65.2 65 67.7 68.1 67.7C71.2 67.7 73.7 65.2 73.7 62.1C73.7 61.8 73.7 61.6 73.6 61.3C76.5 60.7 78.7 58.1 78.7 54.9C78.7 54.6 78.7 54.3 78.6 54C81.7 52.9 83.6 50 83.6 46.6Z" fill="#3F3004"/>
<path opacity="0.1" d="M55.4 72.1C52.2 72.1 49.2 70.6 46.6 68.1L46.5 69.1C49.1 71.6 52.2 73.2 55.4 73.2C58.7 73.2 61.7 71.6 64.3 69.1L64.2 68C61.7 70.6 58.6 72.1 55.4 72.1Z" fill="black"/>
<path d="M72.8001 50.3C71.5001 49.5 69.6001 51 68.5001 53.7C67.4001 56.4 67.6001 59.2 68.9001 60C70.2001 60.8 72.1002 59.3 73.2002 56.6C74.3002 53.9 74.1001 51.1 72.8001 50.3Z" fill="#FEE69F"/>
<path d="M38.1003 50.3C39.4003 49.5 41.3003 51 42.4003 53.7C43.5003 56.4 43.3003 59.2 42.0003 60C40.7003 60.8 38.8003 59.3 37.7003 56.6C36.6003 53.9 36.8003 51.1 38.1003 50.3Z" fill="#FEE69F"/>
<path d="M69.7004 64.2C68.2004 64.2 66.9004 63 66.9004 61.4C66.9004 59.9 68.1004 58.6 69.7004 58.6C71.2004 58.6 72.5004 59.8 72.5004 61.4C72.5004 63 71.2004 64.2 69.7004 64.2ZM69.7004 59.7C68.7004 59.7 67.9004 60.5 67.9004 61.5C67.9004 62.5 68.7004 63.3 69.7004 63.3C70.7004 63.3 71.5004 62.5 71.5004 61.5C71.5004 60.5 70.7004 59.7 69.7004 59.7Z" fill="#FDC00F"/>
<path d="M41.0998 64.2C39.5998 64.2 38.2998 63 38.2998 61.4C38.2998 59.9 39.4998 58.6 41.0998 58.6C42.5998 58.6 43.8998 59.8 43.8998 61.4C43.8998 63 42.6998 64.2 41.0998 64.2ZM41.0998 59.7C40.0998 59.7 39.2998 60.5 39.2998 61.5C39.2998 62.5 40.0998 63.3 41.0998 63.3C42.0998 63.3 42.8998 62.5 42.8998 61.5C42.8998 60.5 42.0998 59.7 41.0998 59.7Z" fill="#FDC00F"/>
<path d="M61.4006 40.2C61.4006 40.2 57.4006 45.1 48.7006 46.1C40.0006 47 38.1006 50.3999 38.1006 50.3999C39.8006 61.4999 46.9006 72.2 55.4006 72.2C64.0006 72.2 71.2006 61.3 72.8006 50.1C64.2006 46.1 61.4006 40.2 61.4006 40.2Z" fill="#FEE69F"/>
<path opacity="0.4" d="M55.4 44.3C53.6 45.1 51.3 45.8 48.6 46.1C39.9 47 38 50.4 38 50.4C39.7 61.5 46.8 72.2 55.3 72.2V44.3H55.4Z" fill="white"/>
<path d="M87.1004 82.9C85.0004 80.1 77.0004 78.6 71.3004 77.8L70.0004 86L67.4004 102.2H71.4004H87.1004C87.1004 102.3 90.1004 86.8 87.1004 82.9Z" fill="#FC611F"/>
<path d="M39.6001 77.9C33.9001 78.7 25.9001 80.2 23.8001 83C20.8001 86.8 23.8001 102.3 23.8001 102.3H39.5001H43.5001L40.9001 86.1L39.6001 77.9Z" fill="#FC611F"/>
<path d="M67.4004 102.3L70.0004 86C66.0004 88.5 60.9004 90.1 55.5004 90.1C50.0004 90.1 45.0004 88.5 40.9004 86L43.5004 102.2H67.4004V102.3Z" fill="#FDC00F"/>
</g>
</g>
<defs>
<filter id="filter0_d_1151_130" x="0" y="0" width="112" height="112" filterUnits="userSpaceOnUse" color-interpolation-filters="sRGB">
<feFlood flood-opacity="0" result="BackgroundImageFix"/>
<feColorMatrix in="SourceAlpha" type="matrix" values="0 0 0 0 0 0 0 0 0 0 0 0 0 0 0 0 0 0 127 0" result="hardAlpha"/>
<feOffset/>
<feGaussianBlur stdDeviation="5"/>
<feComposite in2="hardAlpha" operator="out"/>
<feColorMatrix type="matrix" values="0 0 0 0 0 0 0 0 0 0 0 0 0 0 0 0 0 0 0.25 0"/>
<feBlend mode="normal" in2="BackgroundImageFix" result="effect1_dropShadow_1151_130"/>
<feBlend mode="normal" in="SourceGraphic" in2="effect1_dropShadow_1151_130" result="shape"/>
</filter>
</defs>
</svg>
