<svg width="112" height="112" viewBox="0 0 112 112" fill="none" xmlns="http://www.w3.org/2000/svg">
<g filter="url(#filter0_d_1148_164)">
<circle cx="56" cy="56" r="46" fill="#8FC3D8"/>
<mask id="mask0_1148_164" style="mask-type:alpha" maskUnits="userSpaceOnUse" x="10" y="10" width="92" height="92">
<circle cx="56" cy="56" r="46" fill="#346178"/>
</mask>
<g mask="url(#mask0_1148_164)">
<path d="M79.9993 64.2C74.5993 58.1 77.2993 34.4 69.5993 28.7C61.9993 23.1 48.8993 23.1 41.2993 28.7C33.6993 34.4 36.2993 58 30.8993 64.2C25.4993 70.4 30.5993 83.4 30.5993 83.4H55.3993H80.1993C80.2993 83.4 85.3993 70.4 79.9993 64.2Z" fill="#FDC00F"/>
<path d="M76.8993 78.5C76.4993 78.4 76.0994 78.3 75.6994 78.3C74.1994 78 72.5994 77.8 71.1994 77.6C69.3994 77.4 67.7994 77.2 66.6994 77.1C67.1994 77.1 66.6994 77.1 66.0994 77C65.4994 76.9 64.8993 76.4 64.8993 75.8L63.2993 57.9H47.3993L45.7994 75.8C45.6994 76.4 45.2994 77 44.7994 77C44.5994 77 44.2993 77 43.8993 77.1C42.7993 77.2 41.1993 77.4 39.3993 77.6C37.9993 77.8 36.4993 78 34.8993 78.3C34.4993 78.4 34.0993 78.4 33.6993 78.5C29.2993 79.4 24.9993 80.7 23.4993 82.6C20.4993 86.4 23.4993 102 23.4993 102H86.8993C86.8993 102 89.8993 86.5 86.8993 82.6C85.5993 80.7 81.2993 79.4 76.8993 78.5Z" fill="#FEE69F"/>
<path d="M72.7992 50C71.4992 49.2 69.5992 50.7 68.4992 53.4C67.3992 56.1 67.5992 58.9 68.8992 59.7C70.1992 60.5 72.0992 59 73.1992 56.3C74.2992 53.7 74.0992 50.8 72.7992 50Z" fill="#FEE69F"/>
<path d="M38.0994 50C39.3994 49.2 41.2994 50.7 42.3994 53.4C43.4994 56.1 43.2994 58.9 41.9994 59.7C40.6994 60.5 38.7994 59 37.6994 56.3C36.5994 53.7 36.7994 50.8 38.0994 50Z" fill="#FEE69F"/>
<path opacity="0.1" d="M55.399 71.8C52.199 71.8 49.199 70.3 46.599 67.8L46.499 68.8C49.099 71.3 52.199 72.9 55.399 72.9C58.699 72.9 61.699 71.3 64.299 68.8L64.199 67.7C61.699 70.3 58.599 71.8 55.399 71.8Z" fill="black"/>
<path d="M71.1996 61.1C71.1996 63.1 70.1996 64.7 68.8996 64.7C67.5996 64.7 66.5996 63.1 66.5996 61.1C66.5996 59.1 67.5996 57.5 68.8996 57.5C70.1996 57.5 71.1996 59.1 71.1996 61.1Z" fill="#346178"/>
<path d="M44.1996 61.1C44.1996 63.1 43.1996 64.7 41.8996 64.7C40.5996 64.7 39.5996 63.1 39.5996 61.1C39.5996 59.1 40.5996 57.5 41.8996 57.5C43.1996 57.5 44.1996 59.1 44.1996 61.1Z" fill="#346178"/>
<path d="M55.3992 26.5C45.5992 26.5 37.6992 32.7 37.6992 45.2C37.6992 46.7 37.7992 48.3 37.9992 49.8H38.0992C38.0992 49.8 38.0992 46.3 41.7992 45.1C45.7992 43.8 48.6992 40.7 50.8992 37.4C50.8992 37.4 55.4992 43.6 64.6992 42.4C69.3992 41.8 72.5992 49.8 72.5992 49.8H72.6992C72.8992 48.3 72.9992 46.7 72.9992 45.2C73.0992 32.7 65.1992 26.5 55.3992 26.5Z" fill="#FDC00F"/>
<path d="M72.6996 49.8C72.6996 49.8 69.4996 41.8 64.7996 42.4C55.5996 43.6 50.9996 37.4 50.9996 37.4C48.8996 40.7 45.8996 43.8 41.8996 45.1C38.1996 46.3 38.1996 49.8 38.1996 49.8H38.0996C39.6996 60.9 46.8996 71.8 55.4996 71.8C64.0996 71.8 71.2996 60.9 72.8996 49.8H72.6996Z" fill="#FEE69F"/>
<path opacity="0.4" d="M55.399 40.9C52.399 39.4 50.899 37.4 50.899 37.4C48.799 40.7 45.799 43.8 41.799 45.1C38.099 46.3 38.099 49.8 38.099 49.8H37.999C39.599 60.9 46.799 71.8 55.399 71.8V40.9Z" fill="white"/>
<path d="M87.0994 82.6C85.5994 80.7 81.2993 79.3 76.8993 78.5C76.4993 78.4 76.0994 78.3 75.6994 78.3C74.2994 78 72.8993 77.8 71.4993 77.6H71.0994C71.0994 77.6 70.9993 77.7 70.7993 77.9C70.5993 78.1 70.1993 78.4 69.7993 78.7C68.8993 79.4 67.6994 80.2 66.1994 80.9C64.6994 81.6 62.9994 82.2 61.0994 82.7C59.1994 83.1 57.2994 83.3 55.2994 83.3C53.2994 83.3 51.2993 83.1 49.4993 82.6C47.5993 82.2 45.8993 81.5 44.3993 80.8C42.8993 80.1 41.6994 79.3 40.7994 78.6C40.3994 78.3 39.9994 78 39.7994 77.8C39.5994 77.7 39.4993 77.6 39.4993 77.5H39.0994C37.7994 77.7 36.3993 77.9 34.8993 78.2C34.4993 78.3 34.0993 78.3 33.6993 78.4C29.2993 79.3 24.9993 80.6 23.4993 82.5C20.4993 86.3 23.4993 101.9 23.4993 101.9H86.8993C87.0993 102 90.0994 86.5 87.0994 82.6Z" fill="#346178"/>
</g>
</g>
<defs>
<filter id="filter0_d_1148_164" x="0" y="0" width="112" height="112" filterUnits="userSpaceOnUse" color-interpolation-filters="sRGB">
<feFlood flood-opacity="0" result="BackgroundImageFix"/>
<feColorMatrix in="SourceAlpha" type="matrix" values="0 0 0 0 0 0 0 0 0 0 0 0 0 0 0 0 0 0 127 0" result="hardAlpha"/>
<feOffset/>
<feGaussianBlur stdDeviation="5"/>
<feComposite in2="hardAlpha" operator="out"/>
<feColorMatrix type="matrix" values="0 0 0 0 0 0 0 0 0 0 0 0 0 0 0 0 0 0 0.25 0"/>
<feBlend mode="normal" in2="BackgroundImageFix" result="effect1_dropShadow_1148_164"/>
<feBlend mode="normal" in="SourceGraphic" in2="effect1_dropShadow_1148_164" result="shape"/>
</filter>
</defs>
</svg>
