<svg width="112" height="112" viewBox="0 0 112 112" fill="none" xmlns="http://www.w3.org/2000/svg">
<g filter="url(#filter0_d_1146_797)">
<circle cx="56" cy="56" r="46" fill="#346178"/>
<mask id="mask0_1146_797" style="mask-type:alpha" maskUnits="userSpaceOnUse" x="10" y="10" width="92" height="92">
<circle cx="56" cy="56" r="46" fill="#346178"/>
</mask>
<g mask="url(#mask0_1146_797)">
<path d="M77.1997 78.5C76.7997 78.4 76.3997 78.3 75.9997 78.3C74.4997 78 72.8997 77.8 71.4997 77.6C69.6997 77.4 68.0997 77.2 66.9997 77.1C67.4997 77.1 66.9997 77.1 66.3997 77C65.7997 76.9 65.1997 76.4 65.1997 75.8L63.5997 57.9H47.7997L46.1997 75.8C46.0997 76.4 45.6997 77 45.1997 77C44.9997 77 44.6997 77 44.2997 77.1C43.1997 77.2 41.5997 77.4 39.7997 77.6C38.3997 77.8 36.8997 78 35.2997 78.3C34.8997 78.4 34.4997 78.4 34.0997 78.5C29.6997 79.4 25.3997 80.7 23.8997 82.6C20.8997 86.4 23.8997 102 23.8997 102H87.2997C87.2997 102 90.2997 86.5 87.2997 82.6C85.8997 80.7 81.5997 79.4 77.1997 78.5Z" fill="#FEE69F"/>
<path d="M73.1 50C71.8 49.2 69.9 50.7 68.8 53.4C67.7 56.1 67.9 58.9 69.2 59.7C70.5 60.5 72.4 59 73.5 56.3C74.6 53.7 74.4 50.8 73.1 50Z" fill="#FEE69F"/>
<path d="M38.4001 50C39.7001 49.2 41.6001 50.7 42.7001 53.4C43.8001 56.1 43.6001 58.9 42.3001 59.7C41.0001 60.5 39.1001 59 38.0001 56.3C36.9001 53.7 37.1001 50.8 38.4001 50Z" fill="#FEE69F"/>
<path opacity="0.1" d="M55.6998 71.8C52.4998 71.8 49.4998 70.3 46.8998 67.8L46.7998 68.8C49.3998 71.3 52.4998 72.9 55.6998 72.9C58.9998 72.9 61.9998 71.3 64.5998 68.8L64.4998 67.7C61.8998 70.3 58.8998 71.8 55.6998 71.8Z" fill="black"/>
<path d="M71.4994 59.8C71.4994 61.1 70.4994 62.1 69.1994 62.1C67.8994 62.1 66.8994 61.1 66.8994 59.8C66.8994 58.5 67.8994 57.5 69.1994 57.5C70.4994 57.5 71.4994 58.5 71.4994 59.8Z" fill="#FC611F"/>
<path d="M44.4994 59.8C44.4994 61.1 43.4994 62.1 42.1994 62.1C40.8994 62.1 39.8994 61.1 39.8994 59.8C39.8994 58.5 40.8994 57.5 42.1994 57.5C43.4994 57.5 44.4994 58.5 44.4994 59.8Z" fill="#FC611F"/>
<path d="M73.4 45.2C73.4 57.7 65.5 71.9 55.7 71.9C45.9 71.9 38 57.8 38 45.2C38 32.7 45.9 26.5 55.7 26.5C65.5 26.5 73.4 32.7 73.4 45.2Z" fill="#FEE69F"/>
<path opacity="0.4" d="M55.7 26.5C45.9 26.5 38 32.7 38 45.2C38 57.7 45.9 71.9 55.7 71.9V26.5Z" fill="white"/>
<path d="M73.5998 42.9C73.4998 42.1 73.4998 41.3 73.2998 40.5C72.9998 38.9 72.5998 37.1 71.6998 35.3C70.8998 33.6 69.6998 31.8 68.0998 30.4C66.4998 29 64.5998 27.8 62.4998 27.1C60.3998 26.3 58.0998 26 55.8998 26C53.6998 26 51.3998 26.3 49.2998 27C47.1998 27.7 45.1998 28.8 43.5998 30.2C41.9998 31.6 40.6998 33.3 39.8998 35C39.0998 36.8 38.4998 38.5 38.1998 40.2C37.8998 41.8 37.7998 43.4 37.7998 44.7C37.7998 46.1 37.9998 47.2 37.9998 48.2C38.2998 50.1 38.4998 51.2 38.4998 51.2C38.4998 49.6 38.6998 42.9 44.2998 43C55.6998 43.2 58.8998 37.8 61.3998 36.1C61.3998 36.1 61.5998 43.2 69.8998 46.2C72.4998 47.2 72.7998 51.4 72.7998 51.6C72.7998 51.6 72.9998 50.5 73.3998 48.6C73.4998 47.6 73.5998 46.5 73.6998 45.1C73.5998 44.4 73.5998 43.7 73.5998 42.9Z" fill="#FDC00F"/>
<path d="M87.4002 102C87.4002 102 89.2002 92.5 88.6002 86.5C81.9002 89.4 69.7002 91.3 55.7002 91.3C41.8002 91.3 29.6002 89.4 22.8002 86.5C22.2002 92.5 24.0002 102 24.0002 102H87.4002Z" fill="#FC611F"/>
<path d="M66.4998 77C66.4998 77 66.2998 77.3 65.7998 77.9C65.2998 78.4 64.6998 79.2 63.6998 79.9C63.1998 80.3 62.6998 80.7 62.0998 81.1C61.4998 81.5 60.8998 81.9 60.1998 82.2C59.4998 82.5 58.6998 82.8 57.8998 83C57.4998 83.1 57.0998 83.2 56.6998 83.2C56.2998 83.2 55.8998 83.3 55.3998 83.3C54.6998 83.3 53.6998 83.1 52.8998 82.9C52.4998 82.8 52.0998 82.7 51.6998 82.5C51.2998 82.4 50.9998 82.2 50.5998 82C49.8998 81.7 49.2998 81.3 48.6998 80.9C48.0998 80.5 47.5998 80.1 47.0998 79.8C45.1998 78.3 44.2998 77 44.2998 77C44.2998 77 45.6998 77.8 47.7998 78.8C48.7998 79.3 49.9998 79.9 51.3998 80.3C52.0998 80.5 52.6998 80.7 53.3998 80.9C53.7998 81 54.0998 81 54.3998 81.1C54.6998 81.2 55.0998 81.2 55.4998 81.2C55.7998 81.2 56.1998 81.2 56.4998 81.2C56.7998 81.2 57.1998 81.1 57.4998 81.1C58.1998 80.9 58.8998 80.8 59.4998 80.5C60.0998 80.3 60.7998 80 61.3998 79.7C61.9998 79.4 62.4998 79.2 63.0998 78.9C65.0998 77.9 66.4998 77 66.4998 77Z" fill="white"/>
</g>
</g>
<defs>
<filter id="filter0_d_1146_797" x="0" y="0" width="112" height="112" filterUnits="userSpaceOnUse" color-interpolation-filters="sRGB">
<feFlood flood-opacity="0" result="BackgroundImageFix"/>
<feColorMatrix in="SourceAlpha" type="matrix" values="0 0 0 0 0 0 0 0 0 0 0 0 0 0 0 0 0 0 127 0" result="hardAlpha"/>
<feOffset/>
<feGaussianBlur stdDeviation="5"/>
<feComposite in2="hardAlpha" operator="out"/>
<feColorMatrix type="matrix" values="0 0 0 0 0 0 0 0 0 0 0 0 0 0 0 0 0 0 0.25 0"/>
<feBlend mode="normal" in2="BackgroundImageFix" result="effect1_dropShadow_1146_797"/>
<feBlend mode="normal" in="SourceGraphic" in2="effect1_dropShadow_1146_797" result="shape"/>
</filter>
</defs>
</svg>
