<svg width="112" height="112" viewBox="0 0 112 112" fill="none" xmlns="http://www.w3.org/2000/svg">
<g filter="url(#filter0_d_1151_163)">
<circle cx="56" cy="56" r="46" fill="#FC611F"/>
<mask id="mask0_1151_163" style="mask-type:alpha" maskUnits="userSpaceOnUse" x="10" y="10" width="92" height="92">
<circle cx="56" cy="56" r="46" fill="#FC611F"/>
</mask>
<g mask="url(#mask0_1151_163)">
<path d="M76.7997 81.5C76.3997 81.4 75.9998 81.3 75.5998 81.3C74.0998 81 72.4998 80.8 71.0998 80.6C69.2998 80.4 67.6997 80.2 66.5998 80.1C67.0998 80.1 66.5997 80.1 65.9997 80C65.3997 79.9 64.7997 79.4 64.7997 78.8L63.1998 60.9H47.2997L45.6998 78.8C45.5998 79.4 45.1998 80 44.6998 80C44.4998 80 44.1997 80 43.7997 80.1C42.6997 80.2 41.0997 80.4 39.2997 80.6C37.8997 80.8 36.3997 81 34.7997 81.3C34.3997 81.4 33.9998 81.4 33.5998 81.5C29.1998 82.4 24.8997 83.7 23.3997 85.6C20.3997 89.4 23.3997 105 23.3997 105H86.9997C86.9997 105 89.9997 89.5 86.9997 85.6C85.4997 83.7 81.1997 82.4 76.7997 81.5Z" fill="#FEE69F"/>
<path d="M72.6 53C71.3 52.2 69.3999 53.7 68.2999 56.4C67.1999 59.1 67.4 61.9 68.7 62.7C70 63.5 71.9 62 73 59.3C74.1 56.7 73.9 53.8 72.6 53Z" fill="#FEE69F"/>
<path d="M37.9001 53C39.2001 52.2 41.1002 53.7 42.2002 56.4C43.3002 59.1 43.1001 61.9 41.8001 62.7C40.5001 63.5 38.6001 62 37.5001 59.3C36.4001 56.7 36.6001 53.8 37.9001 53Z" fill="#FEE69F"/>
<path opacity="0.1" d="M55.2994 74.8C52.0994 74.8 49.0994 73.3 46.4994 70.8L46.3994 71.8C48.9994 74.3 52.0994 75.9001 55.2994 75.9001C58.4994 75.9001 61.5994 74.3 64.1994 71.8L64.0994 70.7001C61.4994 73.3001 58.4994 74.8 55.2994 74.8Z" fill="black"/>
<path d="M71.1 62.8C71.1 64.1 70.1 65.1 68.8 65.1C67.5 65.1 66.5 64.1 66.5 62.8C66.5 61.5 67.5 60.5 68.8 60.5C70.1 60.5 71.1 61.5 71.1 62.8Z" fill="#8FC3D8"/>
<path d="M44.1 62.8C44.1 64.1 43.1 65.1 41.8 65.1C40.5 65.1 39.5 64.1 39.5 62.8C39.5 61.5 40.5 60.5 41.8 60.5C43 60.5 44.1 61.5 44.1 62.8Z" fill="#8FC3D8"/>
<path d="M72.9996 48.2C72.9996 60.7 65.0996 74.9 55.2996 74.9C45.4996 74.9 37.5996 60.8 37.5996 48.2C37.5996 35.7 45.4996 29.5 55.2996 29.5C65.0996 29.5 72.9996 35.7 72.9996 48.2Z" fill="#FEE69F"/>
<path opacity="0.4" d="M55.2996 29.5C45.4996 29.5 37.5996 35.7 37.5996 48.2C37.5996 60.7 45.4996 74.9 55.2996 74.9V29.5Z" fill="white"/>
<path d="M73.1998 45.9C73.0998 45.1 73.0998 44.3 72.8998 43.5C72.5998 41.9 72.1998 40.1 71.2998 38.3C70.4998 36.6 69.2998 34.8 67.6998 33.4C66.0998 32 64.1998 30.8 62.0998 30.1C59.9998 29.3 57.6998 29 55.4998 29C53.2998 29 50.9998 29.3 48.7998 30C46.6998 30.7 44.6998 31.8 43.0998 33.2C41.4998 34.6 40.1998 36.3 39.3998 38C38.5998 39.8 37.9998 41.5 37.6998 43.2C37.3998 44.8 37.2998 46.4 37.2998 47.7C37.2998 49.1 37.4998 50.2 37.4998 51.2C37.7998 53.1 37.9998 54.2 37.9998 54.2C37.9998 53.3 38.0998 50.7 39.1998 48.6C41.6998 50.1 44.4998 51.2 47.5998 51.9C47.6998 51.7 47.8998 51.4 47.9998 51.2L48.1998 50.8C48.2998 50.7 48.2998 50.5 48.2998 50.4C48.2998 50.1 48.3998 49.8 48.3998 49.6C48.3998 49.1 48.3998 48.8 48.3998 48.8C48.3998 48.8 48.5998 49.1 48.7998 49.5C48.8998 49.7 48.9998 50 49.0998 50.3C49.0998 50.5 49.1998 50.6 49.1998 50.8V51.3C49.1998 51.6 49.1998 51.9 49.1998 52.2C51.0998 52.5 53.0998 52.7 55.1998 52.7C55.3998 52.7 55.5998 52.7 55.7998 52.7C55.8998 52.7 55.9998 52.6 56.0998 52.4C56.1998 52.3 56.3998 52.1 56.4998 51.8C56.5998 51.6 56.7998 51.3 56.8998 51.1L56.9998 50.7C57.0998 50.6 57.0998 50.4 57.0998 50.3C57.0998 50 57.1998 49.7 57.0998 49.5C56.9998 49 56.9998 48.7 56.9998 48.7C56.9998 48.7 57.1998 49 57.3998 49.4C57.5998 49.6 57.5998 49.9 57.6998 50.2C57.6998 50.4 57.7998 50.5 57.7998 50.7L57.8998 51.2C57.9998 51.6 57.8998 51.9 57.8998 52.3C57.8998 52.4 57.8998 52.5 57.8998 52.6C62.2998 52.2 66.2998 51.1 69.6998 49.3C71.8998 50.6 72.1998 54.3 72.1998 54.5C72.1998 54.5 72.3998 53.4 72.7998 51.5C72.8998 50.5 72.9998 49.4 73.0998 48C73.1998 47.4 73.1998 46.7 73.1998 45.9Z" fill="#8F6C08"/>
<path d="M61.5 43.5C61.5 43.5 61.4 43.3 61.2 42.8C61 42.3 60.7 41.6 60.5 40.6C60.1 38.7 59.8 35.9 60.3 32.5C60.6 30.8 61 29 61.8 27.1C62.6 25.2 63.8 23.2 65.7 21.4C66.7 20.5 67.8 19.6 69.3 19C70.7 18.4 72.3 18 73.9 17.9C75.5 17.8 77.1 18.1 78.5 18.6L79 18.8L79.3 18.9H79.4H79.5L79.8 19L80.5 19.3C80.8 19.4 81.8 20 82.5 20.5C82.9 20.8 83.2 21 83.5 21.3C83.8 21.6 84.1 21.9 84.4 22.2C84.7 22.5 85 22.9 85.3 23.2C85.5 23.6 85.8 24 86 24.3C86.9 25.9 87.3 27.6 87.4 29.1C87.5 30.6 87.4 32 87.2 33.2C87 34.4 86.7 35.5 86.4 36.5C85.8 38.5 85 40.3 84.3 41.8C83.6 43.4 82.9 44.8 82.4 46C81.9 47.3 81.5 48.4 81.3 49.4C81.1 50.4 81.2 51.2 81.4 52C81.5 52.4 81.6 52.7 81.8 53C81.9 53.3 82.1 53.6 82.2 53.8C82.5 54.2 82.6 54.4 82.6 54.4C78.4 53.9 74.5 48.2 74.2 44.2C74 41.8 74.8 39.5 74.3 37.1C73.8 34.1 71.5 29.6 67.7 31C65.2 31.9 63.3 38.3 62.3 40.6C62 41.4 61.7 42.1 61.5 42.6C61.6 43.2 61.5 43.5 61.5 43.5Z" fill="#8F6C08"/>
<path d="M86.9999 85.6C85.4999 83.7 81.3999 82.4 77.0999 81.5C75.4999 88.2 66.3999 93.3 55.2999 93.3C44.1999 93.3 35.0999 88.2 33.4999 81.5C29.1999 82.4 25.0999 83.7 23.5999 85.6C20.5999 89.4 23.5999 105 23.5999 105H86.9999C86.9999 105 89.8999 89.5 86.9999 85.6Z" fill="#8FC3D8"/>
<path d="M66.5 33.0001C66.4 33.0001 66.3001 33.0001 66.2001 32.9001C64.9001 32.0001 63.5 31.2001 62 30.7001C61.6 30.6001 61.2 30.4001 60.8 30.3001C60.5 30.2001 60.3 29.9001 60.4 29.6001C60.5 29.3001 60.8 29.1001 61.1 29.2001C61.5 29.3001 61.9 29.5001 62.3 29.6001C63.9 30.2001 65.5 31.0001 66.8 32.0001C67.1 32.2001 67.1 32.5001 66.9 32.8001C66.8 32.9001 66.7 33.0001 66.5 33.0001Z" fill="#8FC3D8"/>
</g>
</g>
<defs>
<filter id="filter0_d_1151_163" x="0" y="0" width="112" height="112" filterUnits="userSpaceOnUse" color-interpolation-filters="sRGB">
<feFlood flood-opacity="0" result="BackgroundImageFix"/>
<feColorMatrix in="SourceAlpha" type="matrix" values="0 0 0 0 0 0 0 0 0 0 0 0 0 0 0 0 0 0 127 0" result="hardAlpha"/>
<feOffset/>
<feGaussianBlur stdDeviation="5"/>
<feComposite in2="hardAlpha" operator="out"/>
<feColorMatrix type="matrix" values="0 0 0 0 0 0 0 0 0 0 0 0 0 0 0 0 0 0 0.25 0"/>
<feBlend mode="normal" in2="BackgroundImageFix" result="effect1_dropShadow_1151_163"/>
<feBlend mode="normal" in="SourceGraphic" in2="effect1_dropShadow_1151_163" result="shape"/>
</filter>
</defs>
</svg>
