<svg width="112" height="112" viewBox="0 0 112 112" fill="none" xmlns="http://www.w3.org/2000/svg">
<g filter="url(#filter0_d_1146_592)">
<circle cx="56" cy="56" r="46" fill="#8FC3D8"/>
<mask id="mask0_1146_592" style="mask-type:alpha" maskUnits="userSpaceOnUse" x="10" y="10" width="92" height="92">
<circle cx="56" cy="56" r="46" fill="#346178"/>
</mask>
<g mask="url(#mask0_1146_592)">
<path d="M23.9998 102.1H87.3998C87.3998 102.1 90.3998 86.6001 87.3998 82.7001C83.8998 78.2001 65.2998 77.0001 65.2998 77.0001H46.0998C46.0998 77.0001 27.4998 78.2001 23.9998 82.7001C21.0998 86.6001 23.9998 102.1 23.9998 102.1Z" fill="#FC611F"/>
<path d="M55.6996 77.1001H46.0996C46.0996 77.1001 46.1996 85.7001 55.6996 92.8001C65.2996 85.7001 65.2996 77.1001 65.2996 77.1001H55.6996Z" fill="white"/>
<path d="M73.1 50.2001C71.8 49.4001 69.9 50.9001 68.8 53.6001C67.7 56.3001 67.9 59.1001 69.2 59.9001C70.5 60.7001 72.4 59.2001 73.5 56.5001C74.6 53.8001 74.4 51.0001 73.1 50.2001Z" fill="#FEE69F"/>
<path d="M38.4001 50.2001C39.7001 49.4001 41.6001 50.9001 42.7001 53.6001C43.8001 56.3001 43.6001 59.1001 42.3001 59.9001C41.0001 60.7001 39.1001 59.2001 38.0001 56.5001C36.9001 53.8001 37.1001 51.0001 38.4001 50.2001Z" fill="#FEE69F"/>
<path d="M63.7006 58.1001H47.8006L46.1006 77.1001C46.1006 79.2001 50.4006 80.9001 55.7006 80.9001C61.0006 80.9001 65.3006 79.2001 65.3006 77.1001L63.7006 58.1001Z" fill="#FEE69F"/>
<path d="M73.4 45.3001C73.4 57.8001 65.5 72.0001 55.7 72.0001C45.9 72.0001 38 57.9001 38 45.3001C38 32.8001 45.9 26.6001 55.7 26.6001C65.5 26.6001 73.4 32.8001 73.4 45.3001Z" fill="#FEE69F"/>
<path opacity="0.4" d="M55.7 26.6001C45.9 26.6001 38 32.8001 38 45.3001C38 57.8001 45.9 72.0001 55.7 72.0001V26.6001Z" fill="white"/>
<path opacity="0.1" d="M55.6998 72.0002C52.4998 72.0002 49.4998 70.5002 46.8998 68.0002L46.7998 69.0002C49.3998 71.5002 52.4998 73.1002 55.6998 73.1002C58.9998 73.1002 61.9998 71.5002 64.5998 69.0002L64.4998 67.9001C61.8998 70.5001 58.8998 72.0002 55.6998 72.0002Z" fill="black"/>
<path d="M72.5006 38.2001C72.5006 38.2001 72.5006 38.0001 72.4006 37.7001C72.3006 37.4001 72.2006 36.9001 72.0006 36.4001C71.9006 36.1001 71.8006 35.8001 71.6006 35.5001C71.4006 35.2001 71.3006 34.8001 71.1006 34.4001C70.7006 33.7001 70.2006 32.8001 69.5006 32.0001C68.8006 31.2001 68.0006 30.4001 67.1006 29.6001C66.2006 28.8001 65.0006 28.2001 63.8006 27.7001C62.6006 27.1001 61.3006 26.8001 59.9006 26.5001C58.5006 26.2001 57.1006 26.1001 55.7006 26.1001C54.3006 26.1001 52.9006 26.3001 51.5006 26.5001C50.1006 26.8001 48.8006 27.2001 47.6006 27.8001C46.4006 28.4001 45.3006 29.0001 44.4006 29.8001C43.9006 30.2001 43.5006 30.6001 43.1006 31.0001C42.7006 31.4001 42.3006 31.8001 42.0006 32.2001C41.3006 33.0001 40.8006 33.9001 40.5006 34.6001C40.3006 35.0001 40.1006 35.3001 40.0006 35.7001C39.9006 36.0001 39.7006 36.4001 39.6006 36.6001C39.4006 37.2001 39.3006 37.6001 39.2006 37.9001C39.1006 38.2001 39.1006 38.4001 39.1006 38.4001C39.2006 38.2001 39.3006 38.0001 39.5006 37.8001C39.8006 38.4001 40.2006 39.0001 40.8006 39.7001C40.9006 39.1001 41.2006 38.5001 41.5006 38.1001C41.8006 38.7001 42.2006 39.3001 42.9006 40.0001C43.0006 39.4001 43.2006 38.8001 43.6006 38.4001C43.9006 39.0001 44.3006 39.6001 45.0006 40.3001C45.1006 39.7001 45.3006 39.1001 45.6006 38.7001C45.9006 39.3001 46.4006 39.9001 47.1006 40.6001C47.2006 40.0001 47.4006 39.4001 47.7006 39.0001C48.0006 39.6001 48.5006 40.2001 49.2006 40.8001C49.3006 40.2001 49.5006 39.6001 49.8006 39.1001C50.1006 39.6001 50.6006 40.2001 51.3006 40.9001C51.3006 40.3001 51.5006 39.7001 51.8006 39.2001C52.1006 39.7001 52.6006 40.3001 53.4006 41.0001C53.4006 40.4001 53.6006 39.8001 53.9006 39.3001C54.2006 39.8001 54.8006 40.4001 55.5006 41.0001C55.5006 40.4001 55.7006 39.8001 55.9006 39.3001C56.3006 39.8001 56.8006 40.4001 57.6006 41.0001C57.6006 40.4001 57.8006 39.8001 58.0006 39.3001C58.4006 39.8001 58.9006 40.4001 59.7006 40.9001C59.7006 40.3001 59.8006 39.7001 60.1006 39.2001C60.5006 39.7001 61.0006 40.2001 61.8006 40.8001C61.8006 40.2001 61.9006 39.6001 62.1006 39.1001C62.5006 39.6001 63.1006 40.1001 63.9006 40.7001C63.9006 40.1001 64.0006 39.5001 64.2006 39.0001C64.6006 39.5001 65.2006 40.0001 66.0006 40.5001C65.9006 39.9001 66.1006 39.3001 66.3006 38.8001C66.7006 39.3001 67.3006 39.8001 68.1006 40.3001C68.0006 39.7001 68.1006 39.1001 68.3006 38.6001C68.7006 39.1001 69.3006 39.6001 70.2006 40.0001C70.1006 39.4001 70.2006 38.8001 70.4006 38.3001C70.8006 38.8001 71.5006 39.2001 72.3006 39.7001C72.2006 39.1001 72.3006 38.5001 72.4006 38.0001C72.3006 38.0001 72.4006 38.1001 72.5006 38.2001Z" fill="#8F6C08"/>
</g>
</g>
<defs>
<filter id="filter0_d_1146_592" x="0" y="0" width="112" height="112" filterUnits="userSpaceOnUse" color-interpolation-filters="sRGB">
<feFlood flood-opacity="0" result="BackgroundImageFix"/>
<feColorMatrix in="SourceAlpha" type="matrix" values="0 0 0 0 0 0 0 0 0 0 0 0 0 0 0 0 0 0 127 0" result="hardAlpha"/>
<feOffset/>
<feGaussianBlur stdDeviation="5"/>
<feComposite in2="hardAlpha" operator="out"/>
<feColorMatrix type="matrix" values="0 0 0 0 0 0 0 0 0 0 0 0 0 0 0 0 0 0 0.25 0"/>
<feBlend mode="normal" in2="BackgroundImageFix" result="effect1_dropShadow_1146_592"/>
<feBlend mode="normal" in="SourceGraphic" in2="effect1_dropShadow_1146_592" result="shape"/>
</filter>
</defs>
</svg>
