<svg width="112" height="112" viewBox="0 0 112 112" fill="none" xmlns="http://www.w3.org/2000/svg">
<g filter="url(#filter0_d_1146_549)">
<circle cx="56" cy="56" r="46" fill="#FDC00F"/>
<mask id="mask0_1146_549" style="mask-type:alpha" maskUnits="userSpaceOnUse" x="10" y="10" width="92" height="92">
<circle cx="56" cy="56" r="46" fill="#FDC00F"/>
</mask>
<g mask="url(#mask0_1146_549)">
<path d="M73.433 50.5C72.133 49.7 70.233 51.2 69.133 53.9C68.033 56.6 68.233 59.4 69.533 60.2C70.833 61 72.733 59.5 73.833 56.8C74.933 54.2 74.733 51.3 73.433 50.5Z" fill="#FEE69F"/>
<path d="M38.7332 50.5C40.0332 49.7 41.9332 51.2 43.0332 53.9C44.1332 56.6 43.9332 59.4 42.6332 60.2C41.3332 61 39.4332 59.5 38.3332 56.8C37.2332 54.2 37.4332 51.3 38.7332 50.5Z" fill="#FEE69F"/>
<path d="M87.7333 83.2C84.2333 78.7 65.6333 77.5 65.6333 77.5H46.4333C46.4333 77.5 27.8333 78.7 24.3333 83.2C21.3333 87 24.3333 102.6 24.3333 102.6H47.1333H64.9333H87.7333C87.7333 102.5 90.7333 87 87.7333 83.2Z" fill="#8FC3D8"/>
<path d="M73.733 45.7C73.733 58.2 65.833 72.4 56.033 72.4C46.233 72.4 38.333 58.2 38.333 45.7C38.333 33.2 46.233 27 56.033 27C65.833 27 73.733 33.2 73.733 45.7Z" fill="#FEE69F"/>
<path d="M64.0336 58.4H48.1336L46.4336 77.4C46.4336 79.5 50.7336 81.2 56.0336 81.2C61.3336 81.2 65.6336 79.5 65.6336 77.4L64.0336 58.4Z" fill="#FEE69F"/>
<path opacity="0.1" d="M56.0338 72.4C52.8338 72.4 49.8338 70.9 47.2338 68.4L47.1338 69.4C49.7338 71.9 52.8338 73.5 56.0338 73.5C59.3338 73.5 62.3338 71.9 64.9338 69.4L64.8338 68.3C62.2338 70.8 59.2338 72.4 56.0338 72.4Z" fill="black"/>
<path d="M68.2332 77.7C67.7332 77.7 66.5332 77.6 65.9332 77.5L56.0332 81.3L58.3332 87.3L67.7332 82.4L68.2332 77.7Z" fill="white"/>
<path d="M43.833 77.7C44.333 77.7 45.533 77.6 46.133 77.5L56.033 81.3L53.733 87.3L44.333 82.4L43.833 77.7Z" fill="white"/>
<path d="M56.0336 81.3L56.6336 102.5H55.4336L56.0336 81.3Z" fill="#6B92A2"/>
<path d="M56.0332 81.3L58.6332 87.2L58.1332 87L67.3332 81.7L66.8332 82.4L67.1332 77.6L69.3332 77.8L68.6332 82.6L68.5332 83.1L68.1332 83.3L58.5332 87.6L58.1332 87.8L58.0332 87.5L56.0332 81.3Z" fill="#6B92A2"/>
<path d="M68.2332 77.7C67.7332 77.7 66.5332 77.6 65.9332 77.5L56.0332 81.3L58.3332 87.3L67.7332 82.4L68.2332 77.7Z" fill="#8FC3D8"/>
<path d="M56.0334 81.3L54.0334 87.5L53.9334 87.8L53.6334 87.6L43.9334 83.3L43.6334 83.1L43.5334 82.6L42.7334 77.8L45.0334 77.6L45.2334 82.4L44.8334 81.7L53.9334 87L53.4334 87.2L56.0334 81.3Z" fill="#6B92A2"/>
<path d="M43.833 77.7C44.333 77.7 45.533 77.6 46.133 77.5L56.033 81.3L53.733 87.3L44.333 82.4L43.833 77.7Z" fill="#8FC3D8"/>
<path opacity="0.4" d="M56.033 27V72.4C46.233 72.4 38.333 58.2 38.333 45.7C38.333 33.2 46.233 27 56.033 27Z" fill="white"/>
<path d="M56.0334 27C51.2334 27 46.8334 28.5 43.6334 31.6C43.4334 31.6 43.1334 31.6 42.9334 31.6C42.7334 31.6 42.4334 31.6 42.2334 31.7C42.0334 31.7 41.8334 31.8 41.6334 31.8C41.4334 31.8 41.3334 31.9 41.2334 31.9C41.0334 32 40.8334 32 40.8334 32C40.8334 32 40.9334 32 41.2334 32.1C41.3334 32.1 41.5334 32.1 41.6334 32.2C41.8334 32.2 41.9334 32.2 42.1334 32.3C42.2334 32.3 42.3334 32.4 42.4334 32.4C42.2334 32.4 42.0334 32.5 41.8334 32.5C41.5334 32.6 41.2334 32.6 40.9334 32.7C40.6334 32.8 40.4334 32.9 40.1334 33C39.9334 33.1 39.7334 33.2 39.5334 33.4C39.3334 33.5 39.2334 33.6 39.1334 33.8C38.9334 34 38.8334 34.1 38.8334 34.1C38.8334 34.1 38.9334 34 39.2334 33.9C39.3334 33.8 39.5334 33.8 39.6334 33.7C39.8334 33.6 40.0334 33.6 40.2334 33.6C40.4334 33.6 40.7334 33.6 40.9334 33.6C41.1334 33.6 41.2334 33.6 41.4334 33.6C41.3334 33.6 41.3334 33.7 41.2334 33.7C40.7334 33.9 40.1334 34.3 39.7334 34.6C39.2334 34.9 38.8334 35.3 38.5334 35.6C38.3334 35.8 38.2334 35.9 38.1334 36.1C38.0334 36.2 37.9334 36.4 37.9334 36.5C37.8334 36.7 37.7334 36.8 37.7334 36.8C37.7334 36.8 37.8334 36.7 38.0334 36.5C38.1334 36.4 38.2334 36.3 38.3334 36.2C38.4334 36.1 38.6334 36 38.8334 35.9C39.2334 35.7 39.6334 35.6 40.1334 35.5C40.2334 35.5 40.3334 35.5 40.4334 35.5C39.2334 38.1 38.3334 41.5 38.3334 45.7C38.3334 47.9 38.5334 50.1 39.0334 52.3H40.2334C40.2334 52.3 40.7334 47.2 42.6334 45.4C43.8334 44.4 44.6334 40.3 45.1334 37.2C45.4334 38.6 46.1334 40.2 47.2334 41.2C47.2334 41.2 46.1334 38.8 47.2334 37.7C47.2334 37.7 48.2334 41.4 49.5334 42.3C49.5334 42.3 49.3334 41.1 50.1334 40.4C50.1334 40.4 51.6334 46.1 66.9334 43C66.9334 43 71.8334 48.9 72.0334 52.2H73.1334C73.5334 50 73.8334 47.8 73.8334 45.6C73.7334 33.2 65.8334 27 56.0334 27Z" fill="#303030"/>
</g>
</g>
<defs>
<filter id="filter0_d_1146_549" x="0" y="0" width="112" height="112" filterUnits="userSpaceOnUse" color-interpolation-filters="sRGB">
<feFlood flood-opacity="0" result="BackgroundImageFix"/>
<feColorMatrix in="SourceAlpha" type="matrix" values="0 0 0 0 0 0 0 0 0 0 0 0 0 0 0 0 0 0 127 0" result="hardAlpha"/>
<feOffset/>
<feGaussianBlur stdDeviation="5"/>
<feComposite in2="hardAlpha" operator="out"/>
<feColorMatrix type="matrix" values="0 0 0 0 0 0 0 0 0 0 0 0 0 0 0 0 0 0 0.25 0"/>
<feBlend mode="normal" in2="BackgroundImageFix" result="effect1_dropShadow_1146_549"/>
<feBlend mode="normal" in="SourceGraphic" in2="effect1_dropShadow_1146_549" result="shape"/>
</filter>
</defs>
</svg>
