<svg width="80" height="80" viewBox="0 0 80 80" fill="none" xmlns="http://www.w3.org/2000/svg">
<path d="M71.6665 30H54.9998L61.1998 23.8C58.7103 20.5411 55.502 17.9011 51.8247 16.0856C48.1475 14.2701 44.1008 13.3282 39.9998 13.3333C25.2665 13.3333 13.3332 25.2666 13.3332 40C13.3332 46.1 15.3665 51.6666 18.7998 56.1666C22.8665 51.5 30.4998 48.3333 39.9998 48.3333C49.4998 48.3333 57.1665 51.5 61.1998 56.1666C64.756 51.5286 66.6781 45.8444 66.6665 40H73.3332C73.3332 58.3333 58.3332 73.3333 39.9998 73.3333C21.6665 73.3333 6.6665 58.3333 6.6665 40C6.6665 21.6666 21.6665 6.66663 39.9998 6.66663C50.4665 6.66663 59.8332 11.5 65.9332 19.0666L71.6665 13.3333V30ZM39.9998 23.3333C45.5332 23.3333 49.9998 27.8 49.9998 33.3333C49.9998 38.8666 45.5332 43.3333 39.9998 43.3333C34.4665 43.3333 29.9998 38.8666 29.9998 33.3333C29.9998 27.8 34.4665 23.3333 39.9998 23.3333Z" fill="current"/>
</svg>
