<svg width="16" height="12" viewBox="0 0 16 12" fill="none" xmlns="http://www.w3.org/2000/svg">
<path d="M9.53894 11.5816C9.93939 11.9821 10.5863 11.9821 10.9867 11.5816L15.6997 6.86861C15.7949 6.77362 15.8704 6.66079 15.922 6.53657C15.9735 6.41236 16 6.2792 16 6.14472C16 6.01024 15.9735 5.87709 15.922 5.75287C15.8704 5.62866 15.7949 5.51582 15.6997 5.42083L10.9867 0.707835C10.8917 0.612647 10.7789 0.537129 10.6547 0.485603C10.5305 0.434076 10.3973 0.407555 10.2628 0.407555C10.1284 0.407555 9.9952 0.434076 9.87098 0.485603C9.74677 0.537129 9.63393 0.612647 9.53894 0.707835C9.14876 1.10829 9.13849 1.76544 9.53894 2.16589L12.4961 5.12306H1.0268C0.462058 5.12306 0 5.58512 0 6.14986C0 6.7146 0.462058 7.17665 1.0268 7.17665H12.4961L9.53894 10.1338C9.44375 10.2288 9.36823 10.3417 9.31671 10.4659C9.26518 10.5901 9.23866 10.7232 9.23866 10.8577C9.23866 10.9922 9.26518 11.1254 9.31671 11.2496C9.36823 11.3738 9.44375 11.4866 9.53894 11.5816Z" fill="white"/>
</svg>
