<svg width="7" height="15" viewBox="0 0 7 15" fill="none" xmlns="http://www.w3.org/2000/svg">
<path d="M5.83749 15C5.68809 15.0005 5.54048 14.9675 5.4055 14.9035C5.27052 14.8395 5.15161 14.746 5.05749 14.63L0.227488 8.63C0.0804062 8.45107 0 8.22663 0 7.995C0 7.76338 0.0804062 7.53893 0.227488 7.36L5.22749 1.36C5.39723 1.15578 5.64114 1.02736 5.90556 1.00298C6.16999 0.978601 6.43327 1.06026 6.63749 1.23C6.8417 1.39974 6.97013 1.64365 6.99451 1.90808C7.01889 2.1725 6.93723 2.43578 6.76749 2.64L2.29749 8L6.61749 13.36C6.73977 13.5068 6.81745 13.6855 6.84133 13.8751C6.86521 14.0646 6.83429 14.257 6.75223 14.4296C6.67018 14.6021 6.54042 14.7475 6.37831 14.8486C6.2162 14.9497 6.02852 15.0022 5.83749 15Z" fill="#2F3542"/>
</svg>
