<svg width="16" height="12" viewBox="0 0 16 12" fill="none" xmlns="http://www.w3.org/2000/svg">
<path d="M6.46106 11.1741C6.06061 11.5745 5.41373 11.5745 5.01328 11.1741L0.30028 6.46106C0.205092 6.36607 0.129573 6.25323 0.0780468 6.12902C0.0265206 6.0048 9.53674e-07 5.87165 9.53674e-07 5.73717C9.53674e-07 5.60269 0.0265206 5.46953 0.0780468 5.34532C0.129573 5.2211 0.205092 5.10827 0.30028 5.01328L5.01328 0.30028C5.10827 0.205093 5.2211 0.129574 5.34532 0.078048C5.46953 0.0265219 5.60269 0 5.73717 0C5.87165 0 6.0048 0.0265219 6.12902 0.078048C6.25323 0.129574 6.36607 0.205093 6.46106 0.30028C6.85124 0.700731 6.86151 1.35788 6.46106 1.75833L3.50389 4.71551H14.9732C15.5379 4.71551 16 5.17756 16 5.7423C16 6.30704 15.5379 6.7691 14.9732 6.7691H3.50389L6.46106 9.72627C6.55625 9.82127 6.63177 9.9341 6.68329 10.0583C6.73482 10.1825 6.76134 10.3157 6.76134 10.4502C6.76134 10.5846 6.73482 10.7178 6.68329 10.842C6.63177 10.9662 6.55625 11.0791 6.46106 11.1741Z" fill="white"/>
</svg>
