<svg width="16" height="12" viewBox="0 0 16 12" fill="none" xmlns="http://www.w3.org/2000/svg">
<path d="M9.29 11.29C9.68 11.68 10.31 11.68 10.7 11.29L15.29 6.7C15.3827 6.60748 15.4563 6.4976 15.5064 6.37662C15.5566 6.25565 15.5824 6.12597 15.5824 5.995C15.5824 5.86403 15.5566 5.73435 15.5064 5.61337C15.4563 5.4924 15.3827 5.38251 15.29 5.29L10.7 0.699998C10.6075 0.607295 10.4976 0.533747 10.3766 0.483566C10.2557 0.433384 10.126 0.407555 9.995 0.407555C9.86403 0.407555 9.73435 0.433384 9.61338 0.483566C9.4924 0.533747 9.38251 0.607295 9.29 0.699998C8.91 1.09 8.9 1.73 9.29 2.12L12.17 5H1C0.45 5 0 5.45 0 6C0 6.55 0.45 7 1 7H12.17L9.29 9.88C9.1973 9.97251 9.12375 10.0824 9.07357 10.2034C9.02339 10.3243 8.99756 10.454 8.99756 10.585C8.99756 10.716 9.02339 10.8456 9.07357 10.9666C9.12375 11.0876 9.1973 11.1975 9.29 11.29Z" fill="current"/>
</svg>
