<svg width="26" height="26" viewBox="0 0 26 26" fill="none" xmlns="http://www.w3.org/2000/svg">
<circle cx="13" cy="13" r="12" fill="#C0392B" stroke="white" stroke-width="2"/>
<path d="M14.75 8.5H17C17.45 8.5 17.75 8.8 17.75 9.25V10H8V9.25C8 8.8 8.375 8.5 8.75 8.5H11C11.15 7.675 11.975 7 12.875 7C13.775 7 14.6 7.675 14.75 8.5ZM11.75 8.5H14C13.85 8.05 13.325 7.75 12.875 7.75C12.425 7.75 11.9 8.05 11.75 8.5ZM8.75 10.75H17L16.325 18.325C16.325 18.7 15.95 19 15.575 19H10.175C9.8 19 9.5 18.7 9.425 18.325L8.75 10.75Z" fill="white"/>
</svg>
