<svg width="26" height="26" viewBox="0 0 26 26" fill="none" xmlns="http://www.w3.org/2000/svg">
<circle cx="13" cy="13" r="12" fill="#1D76E0" stroke="white" stroke-width="2"/>
<path d="M7.76225 18.8619C7.67554 18.8618 7.5898 18.8436 7.5105 18.8085C7.4312 18.7734 7.36007 18.7222 7.30162 18.6582C7.24212 18.5946 7.19672 18.5193 7.16839 18.437C7.14006 18.3547 7.12945 18.2673 7.13725 18.1807L7.29037 16.4969L14.3641 9.42566L16.5748 11.6357L9.50287 18.7063L7.81912 18.8594C7.80022 18.8612 7.78124 18.862 7.76225 18.8619ZM17.016 11.1938L14.806 8.98378L16.1316 7.65816C16.1897 7.60005 16.2586 7.55395 16.3345 7.5225C16.4103 7.49104 16.4917 7.47485 16.5738 7.47485C16.6559 7.47485 16.7373 7.49104 16.8132 7.5225C16.889 7.55395 16.958 7.60005 17.016 7.65816L18.3416 8.98378C18.3997 9.04183 18.4458 9.11076 18.4773 9.18663C18.5087 9.26251 18.5249 9.34384 18.5249 9.42597C18.5249 9.50811 18.5087 9.58943 18.4773 9.66531C18.4458 9.74118 18.3997 9.81011 18.3416 9.86816L17.0166 11.1932L17.016 11.1938Z" fill="white"/>
</svg>
