<svg width="26" height="28" viewBox="0 0 26 28" fill="none" xmlns="http://www.w3.org/2000/svg">
<path d="M22.2857 16.8V9.33335C22.2857 4.17851 18.1285 0 13 0C7.8715 0 3.7143 4.17851 3.7143 9.33335V16.8L0 24.2667H8.45094C8.88087 26.3965 10.7538 28 13 28C15.2462 28 17.1191 26.3965 17.5491 24.2667H26L22.2857 16.8ZM13 26.1333C11.7891 26.1333 10.7687 25.3521 10.3851 24.2667H15.6158C15.2314 25.3521 14.2109 26.1333 13 26.1333ZM2.78574 22.4L5.57144 16.8V9.33335C5.57144 5.20988 8.89757 1.8667 13 1.8667C17.1024 1.8667 20.4286 5.20988 20.4286 9.33335V16.8L23.2143 22.4H2.78574V22.4Z" fill="#1690E9"/>
</svg>
