<svg width="18" height="18" viewBox="0 0 18 18" fill="none" xmlns="http://www.w3.org/2000/svg">
<path fill-rule="evenodd" clip-rule="evenodd" d="M9 0C4.02955 0 0 4.02955 0 9C0 13.9705 4.02955 18 9 18C13.9705 18 18 13.9705 18 9C18 4.02955 13.9705 0 9 0ZM5.72727 8.18182C5.51028 8.18182 5.30217 8.26802 5.14873 8.42146C4.99529 8.5749 4.90909 8.783 4.90909 9C4.90909 9.217 4.99529 9.4251 5.14873 9.57854C5.30217 9.73198 5.51028 9.81818 5.72727 9.81818H12.2727C12.4897 9.81818 12.6978 9.73198 12.8513 9.57854C13.0047 9.4251 13.0909 9.217 13.0909 9C13.0909 8.783 13.0047 8.5749 12.8513 8.42146C12.6978 8.26802 12.4897 8.18182 12.2727 8.18182H5.72727Z" fill="#1690E9"/>
</svg>
