<svg width="16" height="16" viewBox="0 0 16 16" fill="none" xmlns="http://www.w3.org/2000/svg">
<path d="M13.913 1.02951L8.00002 6.94251L2.08702 1.02951C1.9448 0.899369 1.75785 0.829117 1.56513 0.833387C1.3724 0.837657 1.18875 0.916122 1.05244 1.05243C0.916126 1.18875 0.837662 1.37239 0.833392 1.56512C0.829121 1.75785 0.899374 1.94479 1.02952 2.08701L6.93952 8.00001L1.02802 13.9115C0.955794 13.9803 0.89806 14.0629 0.858209 14.1544C0.818357 14.2458 0.797191 14.3443 0.795956 14.4441C0.79472 14.5438 0.81344 14.6428 0.851014 14.7353C0.888589 14.8277 0.944259 14.9117 1.01475 14.9823C1.08525 15.0528 1.16914 15.1086 1.26151 15.1463C1.35388 15.184 1.45285 15.2029 1.55261 15.2018C1.65237 15.2007 1.7509 15.1797 1.84242 15.14C1.93393 15.1003 2.01659 15.0426 2.08552 14.9705L8.00002 9.05901L13.913 14.972C14.0552 15.1022 14.2422 15.1724 14.4349 15.1681C14.6276 15.1639 14.8113 15.0854 14.9476 14.9491C15.0839 14.8128 15.1624 14.6291 15.1666 14.4364C15.1709 14.2437 15.1007 14.0567 14.9705 13.9145L9.05751 8.00151L14.9705 2.08701C15.0427 2.01818 15.1005 1.93561 15.1403 1.84415C15.1802 1.75269 15.2013 1.65419 15.2026 1.55443C15.2038 1.45467 15.1851 1.35567 15.1475 1.26326C15.1099 1.17084 15.0543 1.08686 14.9838 1.01627C14.9133 0.945672 14.8294 0.889883 14.737 0.852177C14.6447 0.814472 14.5457 0.795612 14.4459 0.796706C14.3462 0.7978 14.2476 0.818827 14.1561 0.858548C14.0646 0.89827 13.9819 0.955887 13.913 1.02801V1.02951Z" fill="#9e9e9e"/>
</svg>
