<svg width="24" height="24" viewBox="0 0 24 24" fill="none" xmlns="http://www.w3.org/2000/svg">
<path d="M21.5462 16.0605C21.2649 16.3417 20.8834 16.4997 20.4857 16.4997C20.0879 16.4997 19.7065 16.3417 19.4252 16.0605L12.0002 8.6355L4.57517 16.0605C4.29227 16.3337 3.91336 16.4849 3.52007 16.4815C3.12677 16.4781 2.75055 16.3203 2.47244 16.0422C2.19433 15.7641 2.03658 15.3879 2.03316 14.9946C2.02974 14.6013 2.18094 14.2224 2.45417 13.9395L10.9397 5.454C11.221 5.17279 11.6024 5.01482 12.0002 5.01482C12.3979 5.01482 12.7794 5.17279 13.0607 5.454L21.5462 13.9395C21.8274 14.2208 21.9854 14.6023 21.9854 15C21.9854 15.3977 21.8274 15.7792 21.5462 16.0605V16.0605Z" fill="#909090"/>
</svg>
