<svg width="22" height="24" viewBox="0 0 22 24" fill="none" xmlns="http://www.w3.org/2000/svg">
<path d="M8 9.5V18.5C8 18.6458 7.95312 18.7656 7.85938 18.8594C7.76562 18.9531 7.64583 19 7.5 19H6.5C6.35417 19 6.23438 18.9531 6.14062 18.8594C6.04688 18.7656 6 18.6458 6 18.5V9.5C6 9.35417 6.04688 9.23438 6.14062 9.14062C6.23438 9.04688 6.35417 9 6.5 9H7.5C7.64583 9 7.76562 9.04688 7.85938 9.14062C7.95312 9.23438 8 9.35417 8 9.5ZM12 9.5V18.5C12 18.6458 11.9531 18.7656 11.8594 18.8594C11.7656 18.9531 11.6458 19 11.5 19H10.5C10.3542 19 10.2344 18.9531 10.1406 18.8594C10.0469 18.7656 10 18.6458 10 18.5V9.5C10 9.35417 10.0469 9.23438 10.1406 9.14062C10.2344 9.04688 10.3542 9 10.5 9H11.5C11.6458 9 11.7656 9.04688 11.8594 9.14062C11.9531 9.23438 12 9.35417 12 9.5ZM16 9.5V18.5C16 18.6458 15.9531 18.7656 15.8594 18.8594C15.7656 18.9531 15.6458 19 15.5 19H14.5C14.3542 19 14.2344 18.9531 14.1406 18.8594C14.0469 18.7656 14 18.6458 14 18.5V9.5C14 9.35417 14.0469 9.23438 14.1406 9.14062C14.2344 9.04688 14.3542 9 14.5 9H15.5C15.6458 9 15.7656 9.04688 15.8594 9.14062C15.9531 9.23438 16 9.35417 16 9.5ZM18 20.8125V6H4V20.8125C4 21.0417 4.03646 21.2526 4.10938 21.4453C4.18229 21.638 4.25781 21.7786 4.33594 21.8672C4.41406 21.9557 4.46875 22 4.5 22H17.5C17.5312 22 17.5859 21.9557 17.6641 21.8672C17.7422 21.7786 17.8177 21.638 17.8906 21.4453C17.9635 21.2526 18 21.0417 18 20.8125ZM7.5 4H14.5L13.75 2.17188C13.6771 2.07812 13.5885 2.02083 13.4844 2H8.53125C8.42708 2.02083 8.33854 2.07812 8.26562 2.17188L7.5 4ZM22 4.5V5.5C22 5.64583 21.9531 5.76562 21.8594 5.85938C21.7656 5.95312 21.6458 6 21.5 6H20V20.8125C20 21.6771 19.7552 22.4245 19.2656 23.0547C18.776 23.6849 18.1875 24 17.5 24H4.5C3.8125 24 3.22396 23.6953 2.73438 23.0859C2.24479 22.4766 2 21.7396 2 20.875V6H0.5C0.354167 6 0.234375 5.95312 0.140625 5.85938C0.046875 5.76562 0 5.64583 0 5.5V4.5C0 4.35417 0.046875 4.23438 0.140625 4.14062C0.234375 4.04688 0.354167 4 0.5 4H5.32812L6.42188 1.39062C6.57812 1.00521 6.85938 0.677083 7.26562 0.40625C7.67188 0.135417 8.08333 0 8.5 0H13.5C13.9167 0 14.3281 0.135417 14.7344 0.40625C15.1406 0.677083 15.4219 1.00521 15.5781 1.39062L16.6719 4H21.5C21.6458 4 21.7656 4.04688 21.8594 4.14062C21.9531 4.23438 22 4.35417 22 4.5Z" fill="current"/>
</svg>
