<svg width="32" height="33" viewBox="0 0 32 33" fill="none" xmlns="http://www.w3.org/2000/svg">
<path d="M6.11726 10.2114C6.11726 8.61384 6.75188 7.08173 7.88151 5.9521C9.01114 4.82247 10.5432 4.18785 12.1408 4.18785C13.7383 4.18785 15.2704 4.82247 16.4001 5.9521C17.5297 7.08173 18.1643 8.61384 18.1643 10.2114C18.1643 11.8089 17.5297 13.341 16.4001 14.4707C15.2704 15.6003 13.7383 16.2349 12.1408 16.2349C10.5432 16.2349 9.01114 15.6003 7.88151 14.4707C6.75188 13.341 6.11726 11.8089 6.11726 10.2114V10.2114ZM12.1408 5.69373C10.9426 5.69373 9.79355 6.1697 8.94633 7.01692C8.0991 7.86414 7.62314 9.01323 7.62314 10.2114C7.62314 11.4095 8.0991 12.5586 8.94633 13.4058C9.79355 14.2531 10.9426 14.729 12.1408 14.729C13.3389 14.729 14.488 14.2531 15.3352 13.4058C16.1825 12.5586 16.6584 11.4095 16.6584 10.2114C16.6584 9.01323 16.1825 7.86414 15.3352 7.01692C14.488 6.1697 13.3389 5.69373 12.1408 5.69373ZM1.59961 20.7526C1.59961 19.0765 2.95942 17.7408 4.62493 17.7408H14.0337C13.6501 18.2053 13.3184 18.7102 13.0443 19.2467H4.62493C3.78013 19.2467 3.10549 19.9198 3.10549 20.7526C3.10549 22.7238 4.04215 24.192 5.62483 25.1994C7.23613 26.2279 9.52808 26.7761 12.1408 26.7761C12.442 26.7761 12.7401 26.7686 13.0323 26.7535C13.2928 27.2685 13.606 27.7504 13.9629 28.1961C13.3681 28.2534 12.7582 28.282 12.1408 28.282C9.34737 28.282 6.74521 27.7007 4.81467 26.4704C2.85401 25.2205 1.59961 23.2975 1.59961 20.7526ZM27.1996 23.0114C27.1996 24.8086 26.4857 26.5322 25.2148 27.8031C23.944 29.0739 22.2204 29.7879 20.4231 29.7879C18.6259 29.7879 16.9023 29.0739 15.6315 27.8031C14.3606 26.5322 13.6467 24.8086 13.6467 23.0114C13.6467 21.2141 14.3606 19.4905 15.6315 18.2197C16.9023 16.9489 18.6259 16.2349 20.4231 16.2349C22.2204 16.2349 23.944 16.9489 25.2148 18.2197C26.4857 19.4905 27.1996 21.2141 27.1996 23.0114V23.0114ZM23.215 21.2856C23.3564 21.1443 23.4359 20.9525 23.4359 20.7526C23.4359 20.5526 23.3564 20.3609 23.215 20.2195C23.0737 20.0781 22.8819 19.9987 22.682 19.9987C22.482 19.9987 22.2903 20.0781 22.1489 20.2195L20.4231 21.9467L18.6974 20.2195C18.556 20.0781 18.3643 19.9987 18.1643 19.9987C17.9644 19.9987 17.7726 20.0781 17.6312 20.2195C17.4899 20.3609 17.4104 20.5526 17.4104 20.7526C17.4104 20.9525 17.4899 21.1443 17.6312 21.2856L19.3585 23.0114L17.6312 24.7371C17.5612 24.8071 17.5057 24.8902 17.4678 24.9817C17.4299 25.0732 17.4104 25.1712 17.4104 25.2702C17.4104 25.3692 17.4299 25.4672 17.4678 25.5587C17.5057 25.6502 17.5612 25.7333 17.6312 25.8033C17.7012 25.8733 17.7843 25.9288 17.8758 25.9667C17.9673 26.0046 18.0653 26.0241 18.1643 26.0241C18.2633 26.0241 18.3614 26.0046 18.4528 25.9667C18.5443 25.9288 18.6274 25.8733 18.6974 25.8033L20.4231 24.076L22.1489 25.8033C22.2189 25.8733 22.302 25.9288 22.3935 25.9667C22.4849 26.0046 22.583 26.0241 22.682 26.0241C22.781 26.0241 22.879 26.0046 22.9705 25.9667C23.0619 25.9288 23.145 25.8733 23.215 25.8033C23.2851 25.7333 23.3406 25.6502 23.3785 25.5587C23.4164 25.4672 23.4359 25.3692 23.4359 25.2702C23.4359 25.1712 23.4164 25.0732 23.3785 24.9817C23.3406 24.8902 23.2851 24.8071 23.215 24.7371L21.4878 23.0114L23.215 21.2856Z" fill="#C0392B"/>
</svg>
