<svg width="20" height="20" viewBox="0 0 20 20" fill="none" xmlns="http://www.w3.org/2000/svg">
<path d="M3.82353 5.76471C3.82353 4.76624 4.22017 3.80868 4.92619 3.10266C5.63221 2.39664 6.58977 2 7.58824 2C8.5867 2 9.54427 2.39664 10.2503 3.10266C10.9563 3.80868 11.3529 4.76624 11.3529 5.76471C11.3529 6.76317 10.9563 7.72074 10.2503 8.42675C9.54427 9.13277 8.5867 9.52941 7.58824 9.52941C6.58977 9.52941 5.63221 9.13277 4.92619 8.42675C4.22017 7.72074 3.82353 6.76317 3.82353 5.76471ZM7.58824 2.94118C6.83939 2.94118 6.12121 3.23865 5.5917 3.76817C5.06218 4.29768 4.76471 5.01586 4.76471 5.76471C4.76471 6.51355 5.06218 7.23173 5.5917 7.76124C6.12121 8.29076 6.83939 8.58824 7.58824 8.58824C8.33708 8.58824 9.05526 8.29076 9.58477 7.76124C10.1143 7.23173 10.4118 6.51355 10.4118 5.76471C10.4118 5.01586 10.1143 4.29768 9.58477 3.76817C9.05526 3.23865 8.33708 2.94118 7.58824 2.94118ZM1 12.3529C1 11.3054 1.84988 10.4706 2.89082 10.4706H8.77129C8.53158 10.7609 8.32424 11.0765 8.15294 11.4118H2.89082C2.36282 11.4118 1.94118 11.8325 1.94118 12.3529C1.94118 13.5849 2.52659 14.5026 3.51576 15.1322C4.52282 15.7751 5.95529 16.1176 7.58824 16.1176C7.77647 16.1176 7.96282 16.1129 8.14541 16.1035C8.30824 16.4254 8.504 16.7266 8.72706 17.0052C8.35529 17.0409 7.97412 17.0588 7.58824 17.0588C5.84235 17.0588 4.216 16.6955 3.00941 15.9266C1.784 15.1454 1 13.9435 1 12.3529ZM17 13.7647C17 14.888 16.5538 15.9652 15.7595 16.7595C14.9652 17.5538 13.888 18 12.7647 18C11.6414 18 10.5642 17.5538 9.7699 16.7595C8.97563 15.9652 8.52941 14.888 8.52941 13.7647C8.52941 12.6414 8.97563 11.5642 9.7699 10.7699C10.5642 9.97563 11.6414 9.52941 12.7647 9.52941C13.888 9.52941 14.9652 9.97563 15.7595 10.7699C16.5538 11.5642 17 12.6414 17 13.7647ZM14.5096 12.6861C14.598 12.5978 14.6477 12.4779 14.6477 12.3529C14.6477 12.228 14.598 12.1081 14.5096 12.0198C14.4213 11.9314 14.3014 11.8818 14.1765 11.8818C14.0515 11.8818 13.9317 11.9314 13.8433 12.0198L12.7647 13.0993L11.6861 12.0198C11.5978 11.9314 11.4779 11.8818 11.3529 11.8818C11.228 11.8818 11.1081 11.9314 11.0198 12.0198C10.9314 12.1081 10.8818 12.228 10.8818 12.3529C10.8818 12.4779 10.9314 12.5978 11.0198 12.6861L12.0993 13.7647L11.0198 14.8433C10.976 14.887 10.9413 14.939 10.9176 14.9962C10.8939 15.0533 10.8818 15.1146 10.8818 15.1765C10.8818 15.2383 10.8939 15.2996 10.9176 15.3568C10.9413 15.414 10.976 15.4659 11.0198 15.5096C11.0635 15.5534 11.1155 15.5881 11.1726 15.6118C11.2298 15.6355 11.2911 15.6477 11.3529 15.6477C11.4148 15.6477 11.4761 15.6355 11.5333 15.6118C11.5904 15.5881 11.6424 15.5534 11.6861 15.5096L12.7647 14.4301L13.8433 15.5096C13.887 15.5534 13.939 15.5881 13.9962 15.6118C14.0533 15.6355 14.1146 15.6477 14.1765 15.6477C14.2383 15.6477 14.2996 15.6355 14.3568 15.6118C14.414 15.5881 14.4659 15.5534 14.5096 15.5096C14.5534 15.4659 14.5881 15.414 14.6118 15.3568C14.6355 15.2996 14.6477 15.2383 14.6477 15.1765C14.6477 15.1146 14.6355 15.0533 14.6118 14.9962C14.5881 14.939 14.5534 14.887 14.5096 14.8433L13.4301 13.7647L14.5096 12.6861Z" fill="#FF6348"/>
</svg>
