<svg width="24" height="24" viewBox="0 0 24 24" fill="none" xmlns="http://www.w3.org/2000/svg">
<g clip-path="url(#clip0_291_146)">
<path d="M13.8 5.90001L13 5.10001C14.4 3.70001 16.2 3.00001 18 3.00001C19.8 3.00001 21.6 3.70001 23 5.10001L22.2 5.90001C21 4.80001 19.5 4.20001 18 4.20001C16.5 4.20001 15 4.80001 13.8 5.90001ZM23 15C23 13.9 22.1 13 21 13H19V9.00001H17V11.8L23 17.8V15ZM20.5 7.50001L21.3 6.70001C20.4 5.80001 19.2 5.30001 18 5.30001C16.8 5.30001 15.6 5.80001 14.7 6.70001L15.5 7.50001C16.2 6.80001 17.1 6.50001 18 6.50001C18.9 6.50001 19.8 6.80001 20.5 7.50001M24.1 21.5L22.8 22.8L21.1 21H6.99998C5.89998 21 4.99998 20.1 4.99998 19V15C4.99998 13.9 5.89998 13 6.99998 13H13.1L3.09998 3.00001L4.39998 1.70001L24.1 21.5ZM9.99998 16H7.99998V18H9.99998V16ZM13.5 16H11.5V18H13.5V16ZM17 16.9L16.1 16H15V18H17V16.9Z" fill="#1690E9"/>
</g>
<defs>
<clipPath id="clip0_291_146">
<rect width="24" height="24" fill="white"/>
</clipPath>
</defs>
</svg>
