<svg width="39" height="37" viewBox="0 0 39 37" fill="none" xmlns="http://www.w3.org/2000/svg">
<path d="M13.0003 6.15789C11.4216 6.12928 9.88248 6.62768 8.65255 7.56585C7.42261 8.50401 6.58021 9.82215 6.27283 11.2895H2.16699V13.3421H6.31616C6.62612 14.8006 7.46323 16.111 8.6833 17.0477C9.90336 17.9843 11.43 18.4886 13.0003 18.4737H18.417V6.15789H13.0003Z" fill="#1690E9"/>
<path d="M36.6055 23.6053H32.6513C32.3361 22.1416 31.4916 20.8281 30.2634 19.8913C29.0353 18.9545 27.5005 18.4531 25.9238 18.4737H20.583V20.5263H15.1663C14.879 20.5263 14.6035 20.6344 14.4003 20.8269C14.1971 21.0194 14.083 21.2804 14.083 21.5526C14.083 21.8248 14.1971 22.0859 14.4003 22.2783C14.6035 22.4708 14.879 22.5789 15.1663 22.5789H20.583V26.6842H15.1663C14.879 26.6842 14.6035 26.7923 14.4003 26.9848C14.1971 27.1773 14.083 27.4383 14.083 27.7105C14.083 27.9827 14.1971 28.2438 14.4003 28.4362C14.6035 28.6287 14.879 28.7368 15.1663 28.7368H20.583V30.7895H25.9347C27.5142 30.8165 29.0537 30.3177 30.285 29.38C31.5163 28.4423 32.3614 27.1251 32.673 25.6579H36.6163L36.6055 23.6053Z" fill="#1690E9"/>
</svg>
