<svg width="22" height="16" viewBox="0 0 22 16" fill="none" xmlns="http://www.w3.org/2000/svg">
<path d="M7.00004 2.57606e-05C6.0285 -0.0185633 5.08137 0.305187 4.32449 0.914593C3.5676 1.524 3.0492 2.38022 2.86004 3.33336H0.333374V4.66669H2.88671C3.07746 5.61407 3.5926 6.46528 4.34341 7.07372C5.09422 7.68216 6.0337 8.00973 7.00004 8.00003H10.3334V2.57606e-05H7.00004Z" fill="#1690E9"/>
<path d="M21.5266 11.3334H19.0933C18.8993 10.3826 18.3796 9.52939 17.6238 8.92085C16.868 8.31232 15.9235 7.98665 14.9533 8.00003H11.6666V9.33336H8.33329C8.15648 9.33336 7.98691 9.4036 7.86189 9.52862C7.73686 9.65365 7.66663 9.82322 7.66663 10C7.66663 10.1768 7.73686 10.3464 7.86189 10.4714C7.98691 10.5965 8.15648 10.6667 8.33329 10.6667H11.6666V13.3334H8.33329C8.15648 13.3334 7.98691 13.4036 7.86189 13.5286C7.73686 13.6536 7.66663 13.8232 7.66663 14C7.66663 14.1768 7.73686 14.3464 7.86189 14.4714C7.98691 14.5965 8.15648 14.6667 8.33329 14.6667H11.6666V16H14.96C15.932 16.0176 16.8794 15.6936 17.6371 15.0845C18.3948 14.4754 18.9148 13.6198 19.1066 12.6667H21.5333L21.5266 11.3334Z" fill="#1690E9"/>
</svg>
