<svg width="24" height="25" viewBox="0 0 24 25" fill="none" xmlns="http://www.w3.org/2000/svg">
<path d="M21.64 19.12C20.9971 18.5469 20.4343 17.8899 19.9667 17.1667C19.4561 16.1684 19.1502 15.0782 19.0667 13.96V10.6667C19.0711 8.91041 18.434 7.21298 17.2752 5.89332C16.1163 4.57365 14.5154 3.72257 12.7733 3.5V2.64C12.7733 2.40396 12.6796 2.17758 12.5127 2.01068C12.3458 1.84377 12.1194 1.75 11.8833 1.75C11.6473 1.75 11.4209 1.84377 11.254 2.01068C11.0871 2.17758 10.9933 2.40396 10.9933 2.64V3.51333C9.26684 3.75195 7.68531 4.60817 6.54169 5.9234C5.39806 7.23864 4.76982 8.92376 4.77333 10.6667V13.96C4.68984 15.0782 4.38385 16.1684 3.87333 17.1667C3.41392 17.8882 2.86013 18.5452 2.22667 19.12C2.15555 19.1825 2.09856 19.2594 2.05948 19.3456C2.0204 19.4318 2.00012 19.5253 2 19.62V20.5267C2 20.7035 2.07024 20.873 2.19526 20.9981C2.32029 21.1231 2.48986 21.1933 2.66667 21.1933H21.2C21.3768 21.1933 21.5464 21.1231 21.6714 20.9981C21.7964 20.873 21.8667 20.7035 21.8667 20.5267V19.62C21.8665 19.5253 21.8463 19.4318 21.8072 19.3456C21.7681 19.2594 21.7111 19.1825 21.64 19.12ZM3.38667 19.86C4.00694 19.2608 4.55307 18.5893 5.01333 17.86C5.65641 16.6543 6.03162 15.324 6.11333 13.96V10.6667C6.08689 9.88536 6.21795 9.10672 6.4987 8.37711C6.77944 7.64751 7.20414 6.98186 7.7475 6.4198C8.29086 5.85775 8.94176 5.41078 9.66145 5.10552C10.3811 4.80025 11.1549 4.64294 11.9367 4.64294C12.7184 4.64294 13.4922 4.80025 14.2119 5.10552C14.9316 5.41078 15.5825 5.85775 16.1258 6.4198C16.6692 6.98186 17.0939 7.64751 17.3746 8.37711C17.6554 9.10672 17.7864 9.88536 17.76 10.6667V13.96C17.8417 15.324 18.2169 16.6543 18.86 17.86C19.3203 18.5893 19.8664 19.2608 20.4867 19.86H3.38667Z" fill="#CB8E87"/>
<path d="M11.7867 23.8534C12.2066 23.8437 12.6096 23.6858 12.9244 23.4077C13.2392 23.1295 13.4454 22.749 13.5067 22.3334H10C10.063 22.7602 10.2789 23.1497 10.6075 23.4293C10.9362 23.7089 11.3552 23.8596 11.7867 23.8534V23.8534Z" fill="#C0392B"/>
</svg>
