<svg width="21" height="19" viewBox="0 0 21 19" fill="none" xmlns="http://www.w3.org/2000/svg">
<path d="M5 8.25H13.25V9.75H5V8.25ZM5 12H14.75V13.5H5V12Z" fill="#A0C4DF"/>
<path d="M19.5 0.75H1.5C1.10218 0.75 0.720644 0.908035 0.43934 1.18934C0.158035 1.47064 0 1.85218 0 2.25V17.25C0 17.6478 0.158035 18.0294 0.43934 18.3107C0.720644 18.592 1.10218 18.75 1.5 18.75H19.5C19.8978 18.75 20.2794 18.592 20.5607 18.3107C20.842 18.0294 21 17.6478 21 17.25V2.25C21 1.85218 20.842 1.47064 20.5607 1.18934C20.2794 0.908035 19.8978 0.75 19.5 0.75ZM19.5 2.25V3.75H1.5V2.25H19.5ZM1.5 17.25V5.25H19.5V17.25H1.5Z" fill="#A0C4DF"/>
</svg>
