<svg width="21" height="18" viewBox="0 0 21 18" fill="none" xmlns="http://www.w3.org/2000/svg">
<path d="M5 7.5H13.25V9H5V7.5ZM5 11.25H14.75V12.75H5V11.25Z" fill="#2F3542"/>
<path d="M19.5 0H1.5C1.10218 0 0.720644 0.158035 0.43934 0.43934C0.158035 0.720644 0 1.10218 0 1.5V16.5C0 16.8978 0.158035 17.2794 0.43934 17.5607C0.720644 17.842 1.10218 18 1.5 18H19.5C19.8978 18 20.2794 17.842 20.5607 17.5607C20.842 17.2794 21 16.8978 21 16.5V1.5C21 1.10218 20.842 0.720644 20.5607 0.43934C20.2794 0.158035 19.8978 0 19.5 0V0ZM19.5 1.5V3H1.5V1.5H19.5ZM1.5 16.5V4.5H19.5V16.5H1.5Z" fill="#2F3542"/>
</svg>
