<svg width="63" height="57" viewBox="0 0 63 57" fill="none" xmlns="http://www.w3.org/2000/svg">
<path d="M11.4852 13.9343L37.496 4.05359L37.0051 43.5764H11.4852V13.9343Z" fill="url(#paint0_linear_407_888)"/>
<path d="M7.24926 47.2922V54.3861H6.23585V51.2242H2.16196V54.3861H1.14856V47.2922H2.16196V50.3426H6.23585V47.2922H7.24926ZM11.5311 54.4469C10.9974 54.4469 10.5177 54.3286 10.0921 54.0922C9.66646 53.8557 9.33204 53.5314 9.08882 53.1193C8.85236 52.7004 8.73413 52.2275 8.73413 51.7005C8.73413 51.1736 8.85236 50.704 9.08882 50.2919C9.33204 49.873 9.66646 49.5488 10.0921 49.319C10.5177 49.0826 10.9974 48.9644 11.5311 48.9644C12.0649 48.9644 12.5412 49.0826 12.96 49.319C13.3857 49.5488 13.7167 49.873 13.9532 50.2919C14.1964 50.704 14.318 51.1736 14.318 51.7005C14.318 52.2275 14.1964 52.7004 13.9532 53.1193C13.7167 53.5314 13.3857 53.8557 12.96 54.0922C12.5412 54.3286 12.0649 54.4469 11.5311 54.4469ZM11.5311 53.5956C11.8757 53.5956 12.1831 53.5179 12.4533 53.3625C12.7303 53.2004 12.9465 52.9774 13.1019 52.6937C13.2573 52.4032 13.335 52.0721 13.335 51.7005C13.335 51.329 13.2573 51.0013 13.1019 50.7175C12.9465 50.427 12.7303 50.2041 12.4533 50.0487C12.1831 49.8933 11.8757 49.8156 11.5311 49.8156C11.1866 49.8156 10.8758 49.8933 10.5988 50.0487C10.3286 50.2041 10.1124 50.427 9.95022 50.7175C9.79483 51.0013 9.71713 51.329 9.71713 51.7005C9.71713 52.0721 9.79483 52.4032 9.95022 52.6937C10.1124 52.9774 10.3286 53.2004 10.5988 53.3625C10.8758 53.5179 11.1866 53.5956 11.5311 53.5956ZM22.3823 48.9644C23.0579 48.9644 23.5916 49.1603 23.9834 49.5521C24.382 49.944 24.5813 50.525 24.5813 51.2952V54.3861H23.6085V51.4067C23.6085 50.8864 23.4869 50.4946 23.2437 50.2311C23.0072 49.9676 22.666 49.8359 22.2201 49.8359C21.7269 49.8359 21.3351 49.9913 21.0446 50.302C20.7541 50.6061 20.6088 51.0452 20.6088 51.6195V54.3861H19.6359V51.4067C19.6359 50.8864 19.5143 50.4946 19.2711 50.2311C19.0346 49.9676 18.6935 49.8359 18.2476 49.8359C17.7544 49.8359 17.3625 49.9913 17.072 50.302C16.7816 50.6061 16.6363 51.0452 16.6363 51.6195V54.3861H15.6634V49.015H16.5958V49.8156C16.7917 49.5386 17.0484 49.3292 17.3659 49.1873C17.6834 49.0387 18.0449 48.9644 18.4502 48.9644C18.8691 48.9644 19.2407 49.0488 19.565 49.2177C19.8893 49.3866 20.1393 49.6332 20.3149 49.9575C20.5176 49.6467 20.798 49.4035 21.156 49.2278C21.5209 49.0522 21.9296 48.9644 22.3823 48.9644ZM31.2555 51.7309C31.2555 51.8053 31.2487 51.9032 31.2352 52.0248H26.8776C26.9384 52.4978 27.1444 52.8795 27.4957 53.17C27.8538 53.4537 28.2963 53.5956 28.8233 53.5956C29.4651 53.5956 29.982 53.3794 30.3738 52.947L30.9109 53.5753C30.6677 53.8591 30.3637 54.0753 29.9988 54.2239C29.6408 54.3726 29.2388 54.4469 28.7929 54.4469C28.2254 54.4469 27.7221 54.332 27.2829 54.1023C26.8438 53.8659 26.5026 53.5382 26.2594 53.1193C26.0229 52.7004 25.9047 52.2275 25.9047 51.7005C25.9047 51.1803 26.0195 50.7108 26.2492 50.2919C26.4857 49.873 26.8066 49.5488 27.212 49.319C27.6241 49.0826 28.0869 48.9644 28.6003 48.9644C29.1138 48.9644 29.5698 49.0826 29.9684 49.319C30.3738 49.5488 30.688 49.873 30.9109 50.2919C31.1406 50.7108 31.2555 51.1905 31.2555 51.7309ZM28.6003 49.7852C28.1342 49.7852 27.7423 49.9271 27.4248 50.2108C27.114 50.4946 26.9316 50.8662 26.8776 51.3256H30.3231C30.2691 50.8729 30.0833 50.5047 29.7658 50.221C29.455 49.9305 29.0665 49.7852 28.6003 49.7852ZM32.8394 54.4469C32.6502 54.4469 32.4881 54.3827 32.353 54.2543C32.2179 54.1192 32.1503 53.9503 32.1503 53.7476C32.1503 53.5517 32.2179 53.3896 32.353 53.2612C32.4881 53.1261 32.6502 53.0585 32.8394 53.0585C33.0286 53.0585 33.1873 53.1227 33.3157 53.2511C33.4441 53.3794 33.5083 53.5449 33.5083 53.7476C33.5083 53.9503 33.4407 54.1192 33.3056 54.2543C33.1772 54.3827 33.0218 54.4469 32.8394 54.4469ZM41.1449 47.2922V54.3861H40.314L36.0576 49.0961V54.3861H35.0442V47.2922H35.8752L40.1315 52.5822V47.2922H41.1449ZM48.4163 53.5044V54.3861H43.2682V47.2922H48.2744V48.1739H44.2816V50.3527H47.8386V51.2141H44.2816V53.5044H48.4163ZM51.4658 48.1739H49.0336V47.2922H54.9012V48.1739H52.4691V54.3861H51.4658V48.1739Z" fill="currentColor"/>
<path d="M55.5683 28.2951L33.6112 21.1125V45.941H55.5683V28.2951Z" fill="url(#paint1_linear_407_888)"/>
<path d="M30.4022 18.6636L57.4263 26.9397V43.9142L13.5121 43.9987V13.5121L35.4692 3.37805V47.3767" stroke="black"/>
<path fill-rule="evenodd" clip-rule="evenodd" d="M56.8015 23.0426C56.7701 23.1879 56.8132 23.3397 56.9183 23.4448C57.1525 23.6792 57.551 23.5711 57.6214 23.2472C58.7385 18.1129 57.3013 12.5344 53.3099 8.54294C49.3184 4.55148 43.7399 3.1143 38.6057 4.23141C38.2817 4.30188 38.1736 4.70023 38.4081 4.9346C38.5131 5.03969 38.665 5.08264 38.8102 5.05129C43.6663 4.00303 48.9387 5.36597 52.7128 9.14009C56.4869 12.9142 57.8497 18.1864 56.8015 23.0426ZM53.8162 22.4466C53.7468 22.7704 53.3495 22.8759 53.1153 22.6418C53.0096 22.5359 52.9665 22.3829 52.9974 22.2365C53.7497 18.6755 52.743 14.8172 49.9776 12.0518C47.2122 9.28631 43.3538 8.2797 39.7929 9.03195C39.6465 9.06289 39.4934 9.01987 39.3875 8.914C39.1534 8.67987 39.259 8.28255 39.5828 8.21315C43.4234 7.38989 47.5905 8.47037 50.5747 11.4546C53.559 14.4388 54.6394 18.606 53.8162 22.4466ZM49.3686 21.542C49.6079 21.7813 50.0129 21.6701 50.0688 21.3362C50.4798 18.8774 49.7368 16.2633 47.8397 14.3662C45.9426 12.4691 43.3283 11.726 40.8696 12.137C40.5355 12.1928 40.4244 12.5978 40.6639 12.8373C40.7671 12.9405 40.9147 12.9848 41.059 12.9618C43.2434 12.6124 45.5587 13.2796 47.2424 14.9633C48.9262 16.6471 49.5934 18.9625 49.2441 21.1467C49.2209 21.291 49.2652 21.4386 49.3686 21.542ZM42.634 19.2189C43.0238 19.6087 43.6558 19.6087 44.0456 19.2189C44.4355 18.8291 44.4355 18.197 44.0456 17.8072C43.6558 17.4174 43.0238 17.4174 42.634 17.8072C42.2441 18.197 42.2441 18.8291 42.634 19.2189Z" fill="currentColor"/>
<defs>
<linearGradient id="paint0_linear_407_888" x1="36.9345" y1="3.47722" x2="16.1199" y2="47.8612" gradientUnits="userSpaceOnUse">
<stop offset="0.104167" stop-color="#0028FE"/>
<stop offset="1" stop-color="#11EAF1"/>
</linearGradient>
<linearGradient id="paint1_linear_407_888" x1="33.6112" y1="21.1125" x2="44.4587" y2="51.3674" gradientUnits="userSpaceOnUse">
<stop stop-color="#11EAF1"/>
<stop offset="0.78125" stop-color="#0028FE"/>
</linearGradient>
</defs>
</svg>
