<svg width="115" height="35" viewBox="0 0 115 35" fill="none" xmlns="http://www.w3.org/2000/svg">
<path d="M8.30566 9.76562C8.30566 9.4668 8.25879 9.20312 8.16504 8.97461C8.07715 8.74023 7.91895 8.5293 7.69043 8.3418C7.46777 8.1543 7.15723 7.97559 6.75879 7.80566C6.36621 7.63574 5.86816 7.46289 5.26465 7.28711C4.63184 7.09961 4.06055 6.8916 3.55078 6.66309C3.04102 6.42871 2.60449 6.16211 2.24121 5.86328C1.87793 5.56445 1.59961 5.22168 1.40625 4.83496C1.21289 4.44824 1.11621 4.00586 1.11621 3.50781C1.11621 3.00977 1.21875 2.5498 1.42383 2.12793C1.62891 1.70605 1.92188 1.33984 2.30273 1.0293C2.68945 0.712891 3.14941 0.466797 3.68262 0.291016C4.21582 0.115234 4.81055 0.0273438 5.4668 0.0273438C6.42773 0.0273438 7.24219 0.211914 7.91016 0.581055C8.58398 0.944336 9.09668 1.42188 9.44824 2.01367C9.7998 2.59961 9.97559 3.22656 9.97559 3.89453H8.28809C8.28809 3.41406 8.18555 2.98926 7.98047 2.62012C7.77539 2.24512 7.46484 1.95215 7.04883 1.74121C6.63281 1.52441 6.10547 1.41602 5.4668 1.41602C4.86328 1.41602 4.36523 1.50684 3.97266 1.68848C3.58008 1.87012 3.28711 2.11621 3.09375 2.42676C2.90625 2.7373 2.8125 3.0918 2.8125 3.49023C2.8125 3.75977 2.86816 4.00586 2.97949 4.22852C3.09668 4.44531 3.27539 4.64746 3.51562 4.83496C3.76172 5.02246 4.07227 5.19531 4.44727 5.35352C4.82812 5.51172 5.28223 5.66406 5.80957 5.81055C6.53613 6.01562 7.16309 6.24414 7.69043 6.49609C8.21777 6.74805 8.65137 7.03223 8.99121 7.34863C9.33691 7.65918 9.5918 8.01367 9.75586 8.41211C9.92578 8.80469 10.0107 9.25 10.0107 9.74805C10.0107 10.2695 9.90527 10.7412 9.69434 11.1631C9.4834 11.585 9.18164 11.9453 8.78906 12.2441C8.39648 12.543 7.9248 12.7744 7.37402 12.9385C6.8291 13.0967 6.21973 13.1758 5.5459 13.1758C4.9541 13.1758 4.37109 13.0938 3.79688 12.9297C3.22852 12.7656 2.70996 12.5195 2.24121 12.1914C1.77832 11.8633 1.40625 11.459 1.125 10.9785C0.849609 10.4922 0.711914 9.92969 0.711914 9.29102H2.39941C2.39941 9.73047 2.48438 10.1084 2.6543 10.4248C2.82422 10.7354 3.05566 10.9932 3.34863 11.1982C3.64746 11.4033 3.98438 11.5557 4.35938 11.6553C4.74023 11.749 5.13574 11.7959 5.5459 11.7959C6.1377 11.7959 6.63867 11.7139 7.04883 11.5498C7.45898 11.3857 7.76953 11.1514 7.98047 10.8467C8.19727 10.542 8.30566 10.1816 8.30566 9.76562ZM12.709 0.203125H14.3525L18.5449 10.6357L22.7285 0.203125H24.3809L19.1777 13H17.8945L12.709 0.203125ZM12.1729 0.203125H13.623L13.8604 8.00781V13H12.1729V0.203125ZM23.458 0.203125H24.9082V13H23.2207V8.00781L23.458 0.203125ZM32.7832 1.33691L28.5469 13H26.8154L31.6934 0.203125H32.8096L32.7832 1.33691ZM36.334 13L32.0889 1.33691L32.0625 0.203125H33.1787L38.0742 13H36.334ZM36.1143 8.2627V9.65137H28.9248V8.2627H36.1143ZM39.7881 0.203125H44.0244C44.9854 0.203125 45.7969 0.349609 46.459 0.642578C47.127 0.935547 47.6338 1.36914 47.9795 1.94336C48.3311 2.51172 48.5068 3.21191 48.5068 4.04395C48.5068 4.62988 48.3867 5.16602 48.1465 5.65234C47.9121 6.13281 47.5723 6.54297 47.127 6.88281C46.6875 7.2168 46.1602 7.46582 45.5449 7.62988L45.0703 7.81445H41.0889L41.0713 6.43457H44.0771C44.6865 6.43457 45.1934 6.3291 45.5977 6.11816C46.002 5.90137 46.3066 5.61133 46.5117 5.24805C46.7168 4.88477 46.8193 4.4834 46.8193 4.04395C46.8193 3.55176 46.7227 3.12109 46.5293 2.75195C46.3359 2.38281 46.0312 2.09863 45.6152 1.89941C45.2051 1.69434 44.6748 1.5918 44.0244 1.5918H41.4844V13H39.7881V0.203125ZM47.2676 13L44.1562 7.19922L45.9229 7.19043L49.0781 12.8945V13H47.2676ZM54.9053 0.203125V13H53.2354V0.203125H54.9053ZM59.0186 0.203125V1.5918H49.1309V0.203125H59.0186ZM73.3887 5.70508V7.08496H66.4629V5.70508H73.3887ZM66.7266 0.203125V13H65.0303V0.203125H66.7266ZM74.8652 0.203125V13H73.1777V0.203125H74.8652ZM87.7324 6.19727V7.00586C87.7324 7.9668 87.6123 8.82812 87.3721 9.58984C87.1318 10.3516 86.7861 10.999 86.335 11.5322C85.8838 12.0654 85.3418 12.4727 84.709 12.7539C84.082 13.0352 83.3789 13.1758 82.5996 13.1758C81.8438 13.1758 81.1494 13.0352 80.5166 12.7539C79.8896 12.4727 79.3447 12.0654 78.8818 11.5322C78.4248 10.999 78.0703 10.3516 77.8184 9.58984C77.5664 8.82812 77.4404 7.9668 77.4404 7.00586V6.19727C77.4404 5.23633 77.5635 4.37793 77.8096 3.62207C78.0615 2.86035 78.416 2.21289 78.873 1.67969C79.3301 1.14063 79.8721 0.730469 80.499 0.449219C81.1318 0.167969 81.8262 0.0273438 82.582 0.0273438C83.3613 0.0273438 84.0645 0.167969 84.6914 0.449219C85.3242 0.730469 85.8662 1.14063 86.3174 1.67969C86.7744 2.21289 87.123 2.86035 87.3633 3.62207C87.6094 4.37793 87.7324 5.23633 87.7324 6.19727ZM86.0537 7.00586V6.17969C86.0537 5.41797 85.9746 4.74414 85.8164 4.1582C85.6641 3.57227 85.4385 3.08008 85.1396 2.68164C84.8408 2.2832 84.4746 1.98145 84.041 1.77637C83.6133 1.57129 83.127 1.46875 82.582 1.46875C82.0547 1.46875 81.5771 1.57129 81.1494 1.77637C80.7275 1.98145 80.3643 2.2832 80.0596 2.68164C79.7607 3.08008 79.5293 3.57227 79.3652 4.1582C79.2012 4.74414 79.1191 5.41797 79.1191 6.17969V7.00586C79.1191 7.77344 79.2012 8.45312 79.3652 9.04492C79.5293 9.63086 79.7637 10.126 80.0684 10.5303C80.3789 10.9287 80.7451 11.2305 81.167 11.4355C81.5947 11.6406 82.0723 11.7432 82.5996 11.7432C83.1504 11.7432 83.6396 11.6406 84.0674 11.4355C84.4951 11.2305 84.8555 10.9287 85.1484 10.5303C85.4473 10.126 85.6729 9.63086 85.8252 9.04492C85.9775 8.45312 86.0537 7.77344 86.0537 7.00586ZM90.8086 0.203125H92.4521L96.6445 10.6357L100.828 0.203125H102.48L97.2773 13H95.9941L90.8086 0.203125ZM90.2725 0.203125H91.7227L91.96 8.00781V13H90.2725V0.203125ZM101.558 0.203125H103.008V13H101.32V8.00781L101.558 0.203125ZM114.117 11.6201V13H107.341V11.6201H114.117ZM107.684 0.203125V13H105.987V0.203125H107.684ZM113.221 5.70508V7.08496H107.341V5.70508H113.221ZM114.029 0.203125V1.5918H107.341V0.203125H114.029ZM9.21094 29.9307H10.8984C10.8105 30.7393 10.5791 31.4629 10.2041 32.1016C9.8291 32.7402 9.29883 33.2471 8.61328 33.6221C7.92773 33.9912 7.07227 34.1758 6.04688 34.1758C5.29688 34.1758 4.61426 34.0352 3.99902 33.7539C3.38965 33.4727 2.86523 33.0742 2.42578 32.5586C1.98633 32.0371 1.64648 31.4131 1.40625 30.6865C1.17188 29.9541 1.05469 29.1396 1.05469 28.2432V26.9688C1.05469 26.0723 1.17188 25.2607 1.40625 24.5342C1.64648 23.8018 1.98926 23.1748 2.43457 22.6533C2.88574 22.1318 3.42773 21.7305 4.06055 21.4492C4.69336 21.168 5.40527 21.0273 6.19629 21.0273C7.16309 21.0273 7.98047 21.209 8.64844 21.5723C9.31641 21.9355 9.83496 22.4395 10.2041 23.084C10.5791 23.7227 10.8105 24.4639 10.8984 25.3076H9.21094C9.12891 24.71 8.97656 24.1973 8.75391 23.7695C8.53125 23.3359 8.21484 23.002 7.80469 22.7676C7.39453 22.5332 6.8584 22.416 6.19629 22.416C5.62793 22.416 5.12695 22.5244 4.69336 22.7412C4.26562 22.958 3.90527 23.2656 3.6123 23.6641C3.3252 24.0625 3.1084 24.54 2.96191 25.0967C2.81543 25.6533 2.74219 26.2715 2.74219 26.9512V28.2432C2.74219 28.8701 2.80664 29.459 2.93555 30.0098C3.07031 30.5605 3.27246 31.0439 3.54199 31.46C3.81152 31.876 4.1543 32.2041 4.57031 32.4443C4.98633 32.6787 5.47852 32.7959 6.04688 32.7959C6.76758 32.7959 7.3418 32.6816 7.76953 32.4531C8.19727 32.2246 8.51953 31.8965 8.73633 31.4688C8.95898 31.041 9.11719 30.5283 9.21094 29.9307ZM20.9707 32.6201V34H14.5723V32.6201H20.9707ZM14.9062 21.2031V34H13.21V21.2031H14.9062ZM32.1855 27.1973V28.0059C32.1855 28.9668 32.0654 29.8281 31.8252 30.5898C31.585 31.3516 31.2393 31.999 30.7881 32.5322C30.3369 33.0654 29.7949 33.4727 29.1621 33.7539C28.5352 34.0352 27.832 34.1758 27.0527 34.1758C26.2969 34.1758 25.6025 34.0352 24.9697 33.7539C24.3428 33.4727 23.7979 33.0654 23.335 32.5322C22.8779 31.999 22.5234 31.3516 22.2715 30.5898C22.0195 29.8281 21.8936 28.9668 21.8936 28.0059V27.1973C21.8936 26.2363 22.0166 25.3779 22.2627 24.6221C22.5146 23.8604 22.8691 23.2129 23.3262 22.6797C23.7832 22.1406 24.3252 21.7305 24.9521 21.4492C25.585 21.168 26.2793 21.0273 27.0352 21.0273C27.8145 21.0273 28.5176 21.168 29.1445 21.4492C29.7773 21.7305 30.3193 22.1406 30.7705 22.6797C31.2275 23.2129 31.5762 23.8604 31.8164 24.6221C32.0625 25.3779 32.1855 26.2363 32.1855 27.1973ZM30.5068 28.0059V27.1797C30.5068 26.418 30.4277 25.7441 30.2695 25.1582C30.1172 24.5723 29.8916 24.0801 29.5928 23.6816C29.2939 23.2832 28.9277 22.9814 28.4941 22.7764C28.0664 22.5713 27.5801 22.4688 27.0352 22.4688C26.5078 22.4688 26.0303 22.5713 25.6025 22.7764C25.1807 22.9814 24.8174 23.2832 24.5127 23.6816C24.2139 24.0801 23.9824 24.5723 23.8184 25.1582C23.6543 25.7441 23.5723 26.418 23.5723 27.1797V28.0059C23.5723 28.7734 23.6543 29.4531 23.8184 30.0449C23.9824 30.6309 24.2168 31.126 24.5215 31.5303C24.832 31.9287 25.1982 32.2305 25.6201 32.4355C26.0479 32.6406 26.5254 32.7432 27.0527 32.7432C27.6035 32.7432 28.0928 32.6406 28.5205 32.4355C28.9482 32.2305 29.3086 31.9287 29.6016 31.5303C29.9004 31.126 30.126 30.6309 30.2783 30.0449C30.4307 29.4531 30.5068 28.7734 30.5068 28.0059ZM42.0469 21.2031H43.7344V29.8604C43.7344 30.8213 43.5205 31.6211 43.0928 32.2598C42.665 32.8984 42.0967 33.3789 41.3877 33.7012C40.6846 34.0176 39.9199 34.1758 39.0938 34.1758C38.2266 34.1758 37.4414 34.0176 36.7383 33.7012C36.041 33.3789 35.4873 32.8984 35.0771 32.2598C34.6729 31.6211 34.4707 30.8213 34.4707 29.8604V21.2031H36.1494V29.8604C36.1494 30.5283 36.2725 31.0791 36.5186 31.5127C36.7646 31.9463 37.1074 32.2686 37.5469 32.4795C37.9922 32.6904 38.5078 32.7959 39.0938 32.7959C39.6855 32.7959 40.2012 32.6904 40.6406 32.4795C41.0859 32.2686 41.4316 31.9463 41.6777 31.5127C41.9238 31.0791 42.0469 30.5283 42.0469 29.8604V21.2031ZM49.8604 34H47.1885L47.2061 32.6201H49.8604C50.7744 32.6201 51.5361 32.4297 52.1455 32.0488C52.7549 31.6621 53.2119 31.123 53.5166 30.4316C53.8271 29.7344 53.9824 28.9199 53.9824 27.9883V27.2061C53.9824 26.4736 53.8945 25.8232 53.7188 25.2549C53.543 24.6807 53.2852 24.1973 52.9453 23.8047C52.6055 23.4062 52.1895 23.1045 51.6973 22.8994C51.2109 22.6943 50.6514 22.5918 50.0186 22.5918H47.1357V21.2031H50.0186C50.8564 21.2031 51.6211 21.3438 52.3125 21.625C53.0039 21.9004 53.5986 22.3018 54.0967 22.8291C54.6006 23.3506 54.9873 23.9834 55.2568 24.7275C55.5264 25.4658 55.6611 26.2979 55.6611 27.2236V27.9883C55.6611 28.9141 55.5264 29.749 55.2568 30.4932C54.9873 31.2314 54.5977 31.8613 54.0879 32.3828C53.584 32.9043 52.9746 33.3057 52.2598 33.5869C51.5508 33.8623 50.751 34 49.8604 34ZM48.0938 21.2031V34H46.3975V21.2031H48.0938Z" fill="white"/>
</svg>
