<svg width="18" height="22" viewBox="0 0 18 22" fill="none" xmlns="http://www.w3.org/2000/svg">
<path d="M16.9971 14.4286C16.8197 13.9271 16.4912 13.4929 16.0567 13.1859C15.6223 12.8789 15.1034 12.7141 14.5714 12.7143H2.57143C1.88944 12.7143 1.23539 12.9852 0.753154 13.4675C0.270918 13.9497 0 14.6037 0 15.2857V15.8986C0 19.0854 3.60857 21.2857 8.57143 21.2857C11.196 21.2857 13.4417 20.6369 14.9751 19.5714H8.57143V18.7143H15.972C16.338 18.3192 16.626 17.888 16.8249 17.4286H8.57143V16.5714H17.0829C17.1227 16.3494 17.1428 16.1242 17.1429 15.8986V15.2857H8.57143V14.4286H16.9971ZM13.7143 5.85715C13.7142 5.64227 13.701 5.42759 13.6749 5.2143H8.57143V4.35715H13.4914C13.3531 3.903 13.1524 3.47028 12.8949 3.07144H8.57143V2.2143H12.2014C11.4815 1.49684 10.5651 1.0088 9.56795 0.811813C8.57082 0.614821 7.53768 0.717709 6.59899 1.10748C5.66029 1.49726 4.85814 2.15644 4.29383 3.00179C3.72951 3.84714 3.42834 4.84075 3.42834 5.85715C3.42834 6.87355 3.72951 7.86717 4.29383 8.71252C4.85814 9.55787 5.66029 10.217 6.59899 10.6068C7.53768 10.9966 8.57082 11.0995 9.56795 10.9025C10.5651 10.7055 11.4815 10.2175 12.2014 9.50001H8.57143V8.64287H12.8949C13.1503 8.24858 13.3526 7.81658 13.4923 7.35715H8.57143V6.50001H13.6749C13.701 6.28672 13.7142 6.07204 13.7143 5.85715V5.85715Z" fill="current"/>
</svg>
