<svg width="20" height="22" viewBox="0 0 20 22" fill="none" xmlns="http://www.w3.org/2000/svg">
<path d="M10.3388 5.39844H9.21146C9.10833 5.39844 9.02396 5.48282 9.02396 5.58594V12.0383C9.02396 12.0992 9.05208 12.1555 9.1013 12.1906L12.9755 15.0195C13.0599 15.0805 13.1771 15.0641 13.238 14.9797L13.9083 14.0656C13.9716 13.9789 13.9529 13.8617 13.8685 13.8031L10.5263 11.3867V5.58594C10.5263 5.48282 10.4419 5.39844 10.3388 5.39844ZM15.4904 7.16094L19.1654 8.0586C19.2826 8.08672 19.3974 7.99766 19.3974 7.87813L19.4161 4.09297C19.4161 3.93594 19.2357 3.84688 19.1138 3.94532L15.4201 6.83047C15.3921 6.85207 15.3709 6.8811 15.3587 6.91424C15.3466 6.94738 15.344 6.98328 15.3514 7.0178C15.3587 7.05232 15.3757 7.08407 15.4003 7.10939C15.4248 7.13471 15.4561 7.15258 15.4904 7.16094V7.16094ZM19.4208 14.218L18.0919 13.7609C18.0456 13.7451 17.9949 13.7479 17.9506 13.769C17.9064 13.79 17.8722 13.8275 17.8552 13.8734C17.8107 13.993 17.7638 14.1102 17.7146 14.2273C17.2974 15.2141 16.6997 16.1023 15.9357 16.8641C15.1801 17.622 14.2846 18.2261 13.299 18.643C12.2778 19.0747 11.1802 19.2963 10.0716 19.2945C8.9513 19.2945 7.86615 19.0766 6.84427 18.643C5.85858 18.2261 4.96313 17.622 4.20755 16.8641C3.44583 16.1023 2.84818 15.2141 2.42865 14.2273C1.99931 13.2057 1.77934 12.1082 1.78177 11C1.78177 9.87969 1.99974 8.79219 2.43333 7.77032C2.85052 6.7836 3.44818 5.89532 4.21224 5.1336C4.96782 4.37567 5.86327 3.77154 6.84896 3.35469C7.86615 2.9211 8.95364 2.70313 10.074 2.70313C11.1943 2.70313 12.2794 2.9211 13.3013 3.35469C14.287 3.77154 15.1824 4.37567 15.938 5.1336C16.1771 5.375 16.4021 5.62578 16.6083 5.89063L18.0099 4.79375C16.1654 2.43594 13.2943 0.919534 10.0693 0.921878C4.45364 0.924221 -0.0557294 5.48516 0.000520575 11.1031C0.0567706 16.6227 4.54505 21.0781 10.074 21.0781C14.4216 21.0781 18.1247 18.3219 19.5357 14.4617C19.5708 14.3633 19.5193 14.2531 19.4208 14.218V14.218Z" fill="current"/>
</svg>
