<svg width="24" height="24" viewBox="0 0 24 24" fill="none" xmlns="http://www.w3.org/2000/svg">
<path d="M4 12L13.5 12M6 9L3 12L6 15M11 17V18C11 18.5304 11.2107 19.0391 11.5858 19.4142C11.9609 19.7893 12.4696 20 13 20H18C18.5304 20 19.0391 19.7893 19.4142 19.4142C19.7893 19.0391 20 18.5304 20 18V6C20 5.46957 19.7893 4.96086 19.4142 4.58579C19.0391 4.21071 18.5304 4 18 4H13C12.4696 4 11.9609 4.21071 11.5858 4.58579C11.2107 4.96086 11 5.46957 11 6V7" stroke="current" stroke-width="2" stroke-linecap="round" stroke-linejoin="round"/>
</svg>
