<svg width="41" height="39" viewBox="0 0 41 39" fill="none" xmlns="http://www.w3.org/2000/svg">
<path d="M20.0833 5C10.6533 5 3 12.28 3 21.25C3 30.22 10.6533 37.5 20.0833 37.5C29.5133 37.5 37.1667 30.22 37.1667 21.25C37.1667 12.28 29.5133 5 20.0833 5ZM21.6379 31.2437C21.5185 31.3551 21.3674 31.4307 21.2033 31.4611C21.0392 31.4915 20.8693 31.4754 20.7147 31.4149C20.5601 31.3543 20.4276 31.2519 20.3336 31.1204C20.2395 30.9889 20.1882 30.834 20.1858 30.675V29.375H20.0833C17.8967 29.375 15.71 28.5787 14.0358 27.0025C12.8759 25.8965 12.0754 24.4961 11.7301 22.9688C11.3847 21.4415 11.5091 19.8519 12.0883 18.39C12.4129 17.5612 13.5575 17.35 14.2067 17.9837C14.5825 18.3412 14.6679 18.8613 14.4971 19.3163C13.7112 21.3313 14.1554 23.6712 15.8637 25.2962C17.0596 26.4337 18.6312 26.97 20.2029 26.9375V25.41C20.2029 24.6788 21.1254 24.3213 21.655 24.8413L24.4225 27.4737C24.7642 27.7987 24.7642 28.3025 24.4225 28.6275L21.6379 31.2437ZM25.96 24.5325C25.7834 24.3596 25.6623 24.1425 25.6109 23.9065C25.5594 23.6705 25.5798 23.4254 25.6696 23.2C26.4554 21.185 26.0113 18.845 24.3029 17.22C23.1071 16.0825 21.5354 15.53 19.9808 15.5625V17.09C19.9808 17.8212 19.0583 18.1787 18.5288 17.6587L15.7442 15.0425C15.4025 14.7175 15.4025 14.2137 15.7442 13.8887L18.5117 11.2562C18.6311 11.1449 18.7822 11.0693 18.9463 11.0389C19.1104 11.0085 19.2803 11.0246 19.4349 11.0851C19.5895 11.1457 19.722 11.2481 19.816 11.3796C19.91 11.5111 19.9614 11.666 19.9638 11.825V13.1413C22.1846 13.1088 24.4225 13.8725 26.1138 15.4975C27.2737 16.6035 28.0742 18.0039 28.4195 19.5312C28.7649 21.0585 28.6405 22.6481 28.0613 24.11C27.7367 24.955 26.6092 25.1663 25.96 24.5325V24.5325Z" fill="#1690E9"/>
</svg>
