<svg width="34" height="30" viewBox="0 0 34 30" fill="none" xmlns="http://www.w3.org/2000/svg">
<path d="M14.877 20.625C14.877 20.1277 15.1008 19.6508 15.4994 19.2992C15.8979 18.9475 16.4384 18.75 17.002 18.75C17.5655 18.75 18.106 18.9475 18.5046 19.2992C18.9031 19.6508 19.127 20.1277 19.127 20.625C19.127 21.1223 18.9031 21.5992 18.5046 21.9508C18.106 22.3025 17.5655 22.5 17.002 22.5C16.4384 22.5 15.8979 22.3025 15.4994 21.9508C15.1008 21.5992 14.877 21.1223 14.877 20.625V20.625ZM15.0873 9.36562C15.059 9.12908 15.0874 8.88992 15.1706 8.66368C15.2538 8.43743 15.39 8.22915 15.5704 8.05235C15.7507 7.87555 15.9712 7.73417 16.2174 7.6374C16.4637 7.54063 16.7303 7.49062 16.9998 7.49062C17.2694 7.49062 17.536 7.54063 17.7822 7.6374C18.0285 7.73417 18.2489 7.87555 18.4293 8.05235C18.6096 8.22915 18.7458 8.43743 18.829 8.66368C18.9122 8.88992 18.9406 9.12908 18.9123 9.36562L18.1686 15.9412C18.1384 16.1962 18.0022 16.4322 17.7864 16.6038C17.5705 16.7753 17.2903 16.8703 16.9998 16.8703C16.7093 16.8703 16.4291 16.7753 16.2133 16.6038C15.9975 16.4322 15.8613 16.1962 15.8311 15.9412L15.0873 9.36562Z" fill="#C0392B"/>
<path d="M21.8299 4.71157L19.8728 2.94157L21.3921 1.63282L22.7139 2.8272L24.6051 2.80657C25.4238 2.79802 26.2361 2.93399 26.9943 3.20649C27.7526 3.47898 28.4414 3.8825 29.0203 4.39331C29.5992 4.90412 30.0566 5.51191 30.3654 6.18094C30.6742 6.84997 30.8283 7.56673 30.8186 8.28907L30.7974 9.95782L32.1489 11.1241C32.7342 11.6288 33.1993 12.2316 33.5169 12.8972C33.8345 13.5627 33.998 14.2776 33.998 14.9997C33.998 15.7218 33.8345 16.4367 33.5169 17.1022C33.1993 17.7678 32.7342 18.3706 32.1489 18.8753L30.7953 20.0416L30.8186 21.7103C30.8283 22.4327 30.6742 23.1494 30.3654 23.8185C30.0566 24.4875 29.5992 25.0953 29.0203 25.6061C28.4414 26.1169 27.7526 26.5204 26.9943 26.7929C26.2361 27.0654 25.4238 27.2014 24.6051 27.1928L22.7139 27.1741L21.3921 28.3666C20.8201 28.8831 20.1369 29.2935 19.3826 29.5737C18.6283 29.8538 17.8182 29.9982 16.9998 29.9982C16.1813 29.9982 15.3712 29.8538 14.6169 29.5737C13.8626 29.2935 13.1794 28.8831 12.6074 28.3666L11.2856 27.1722L9.39438 27.1928C8.57572 27.2014 7.76339 27.0654 7.00516 26.7929C6.24693 26.5204 5.5581 26.1169 4.97918 25.6061C4.40026 25.0953 3.94294 24.4875 3.63412 23.8185C3.32529 23.1494 3.17119 22.4327 3.18088 21.7103L3.20213 20.0416L1.85063 18.8753C1.26528 18.3706 0.800158 17.7678 0.482604 17.1022C0.165049 16.4367 0.00146484 15.7218 0.00146484 14.9997C0.00146484 14.2776 0.165049 13.5627 0.482604 12.8972C0.800158 12.2316 1.26528 11.6288 1.85063 11.1241L3.20425 9.95782L3.18088 8.28907C3.17119 7.56673 3.32529 6.84997 3.63412 6.18094C3.94294 5.51191 4.40026 4.90412 4.97918 4.39331C5.5581 3.8825 6.24693 3.47898 7.00516 3.20649C7.76339 2.93399 8.57572 2.79802 9.39438 2.80657L11.2856 2.82532L12.6074 1.63282C13.1794 1.11633 13.8626 0.705935 14.6169 0.42574C15.3712 0.145544 16.1813 0.00120544 16.9998 0.00120544C17.8182 0.00120544 18.6283 0.145544 19.3826 0.42574C20.1369 0.705935 20.8201 1.11633 21.3921 1.63282L19.8728 2.94157C19.4987 2.60367 19.0518 2.33517 18.5584 2.15185C18.065 1.96853 17.5351 1.8741 16.9998 1.8741C16.4644 1.8741 15.9345 1.96853 15.4411 2.15185C14.9477 2.33517 14.5008 2.60367 14.1268 2.94157L12.1718 4.71157L9.36675 4.68157C8.83163 4.67629 8.30071 4.76543 7.80518 4.94375C7.30965 5.12207 6.85951 5.38597 6.48119 5.71995C6.10288 6.05393 5.80403 6.45125 5.6022 6.88858C5.40036 7.3259 5.29962 7.79441 5.30588 8.26657L5.33988 10.7378L3.33388 12.4647C2.95093 12.7948 2.64662 13.1891 2.43886 13.6244C2.2311 14.0597 2.12408 14.5273 2.12408 14.9997C2.12408 15.4721 2.2311 15.9397 2.43886 16.375C2.64662 16.8103 2.95093 17.2046 3.33388 17.5347L5.33988 19.2597L5.30588 21.7347C5.2999 22.2069 5.40092 22.6753 5.60301 23.1126C5.80511 23.5498 6.10419 23.947 6.4827 24.2808C6.86122 24.6146 7.31152 24.8783 7.80715 25.0564C8.30279 25.2345 8.83376 25.3233 9.36888 25.3178L12.1696 25.2878L14.1268 27.0578C14.5008 27.3957 14.9477 27.6642 15.4411 27.8475C15.9345 28.0309 16.4644 28.1253 16.9998 28.1253C17.5351 28.1253 18.065 28.0309 18.5584 27.8475C19.0518 27.6642 19.4987 27.3957 19.8728 27.0578L21.8278 25.2878L24.6328 25.3178C25.1679 25.3231 25.6988 25.234 26.1943 25.0556C26.6899 24.8773 27.14 24.6134 27.5183 24.2794C27.8966 23.9455 28.1955 23.5481 28.3973 23.1108C28.5991 22.6735 28.6999 22.205 28.6936 21.7328L28.6596 19.2616L30.6656 17.5347C31.0486 17.2046 31.3529 16.8103 31.5606 16.375C31.7684 15.9397 31.8754 15.4721 31.8754 14.9997C31.8754 14.5273 31.7684 14.0597 31.5606 13.6244C31.3529 13.1891 31.0486 12.7948 30.6656 12.4647L28.6596 10.7397L28.6936 8.2647C28.6996 7.79253 28.5986 7.32407 28.3965 6.88684C28.1944 6.44961 27.8953 6.05242 27.5168 5.71861C27.1383 5.38481 26.688 5.12112 26.1924 4.94303C25.6967 4.76494 25.1657 4.67605 24.6306 4.68157L21.8299 4.71157V4.71157Z" fill="#C0392B"/>
</svg>
