<svg width="26" height="33" viewBox="0 0 26 33" fill="none" xmlns="http://www.w3.org/2000/svg">
<path d="M22.2857 20.9038V13.4371C22.2857 8.28227 18.1285 4.10376 13 4.10376C7.8715 4.10376 3.7143 8.28227 3.7143 13.4371V20.9038L0 28.3704H8.45094C8.88087 30.5003 10.7538 32.1038 13 32.1038C15.2462 32.1038 17.1191 30.5003 17.5491 28.3704H26L22.2857 20.9038ZM13 30.2371C11.7891 30.2371 10.7687 29.4559 10.3851 28.3704H15.6158C15.2314 29.4559 14.2109 30.2371 13 30.2371ZM2.78574 26.5037L5.57144 20.9038V13.4371C5.57144 9.31364 8.89757 5.97045 13 5.97045C17.1024 5.97045 20.4286 9.31364 20.4286 13.4371V20.9038L23.2143 26.5038H2.78574V26.5037Z" fill="white"/>
<circle cx="16.8944" cy="6.1038" r="6" transform="rotate(1 16.8944 6.1038)" fill="#FF0000"/>
</svg>
