<svg width="32" height="32" viewBox="0 0 32 32" fill="none" xmlns="http://www.w3.org/2000/svg">
<path fill-rule="evenodd" clip-rule="evenodd" d="M30.5 16C30.5 24.0081 24.0081 30.5 16 30.5C7.99187 30.5 1.5 24.0081 1.5 16C1.5 7.99187 7.99187 1.5 16 1.5C24.0081 1.5 30.5 7.99187 30.5 16ZM32 16C32 24.8366 24.8366 32 16 32C7.16344 32 0 24.8366 0 16C0 7.16344 7.16344 0 16 0C24.8366 0 32 7.16344 32 16ZM14.6236 17.2572C14.4676 17.6172 14.3896 18.0372 14.3896 18.5172H16.1896C16.1896 18.0252 16.3036 17.6112 16.5316 17.2752C16.7716 16.9392 17.1376 16.5492 17.6296 16.1052C18.0136 15.7572 18.3196 15.4572 18.5476 15.2052C18.7756 14.9532 18.9676 14.6412 19.1236 14.2692C19.2916 13.8852 19.3756 13.4472 19.3756 12.9552C19.3756 11.9592 18.9916 11.1792 18.2236 10.6152C17.4556 10.0392 16.4176 9.75124 15.1096 9.75124C14.0776 9.75124 13.1656 9.92524 12.3736 10.2732C11.5936 10.6212 10.9516 11.1192 10.4476 11.7672L11.7616 12.7032C12.5056 11.7552 13.5796 11.2812 14.9836 11.2812C15.7876 11.2812 16.4176 11.4612 16.8736 11.8212C17.3296 12.1692 17.5576 12.6372 17.5576 13.2252C17.5576 13.6572 17.4436 14.0292 17.2156 14.3412C16.9876 14.6412 16.6336 15.0012 16.1536 15.4212C15.7696 15.7692 15.4576 16.0692 15.2176 16.3212C14.9896 16.5732 14.7916 16.8852 14.6236 17.2572ZM14.4616 22.2792C14.6896 22.4952 14.9716 22.6032 15.3076 22.6032C15.6316 22.6032 15.9016 22.4952 16.1176 22.2792C16.3456 22.0512 16.4596 21.7752 16.4596 21.4512C16.4596 21.1272 16.3516 20.8572 16.1356 20.6412C15.9196 20.4132 15.6436 20.2992 15.3076 20.2992C14.9716 20.2992 14.6896 20.4132 14.4616 20.6412C14.2456 20.8572 14.1376 21.1272 14.1376 21.4512C14.1376 21.7752 14.2456 22.0512 14.4616 22.2792Z" fill="white"/>
</svg>
