<svg width="51" height="50" viewBox="0 0 51 50" fill="none" xmlns="http://www.w3.org/2000/svg">
<g clip-path="url(#clip0_1423_440)">
<path d="M25.5 0C18.4609 0 12.4512 2.39626 7.4707 7.18879C2.49023 11.9813 0 17.7643 0 24.5377C0 31.3112 2.49023 37.0942 7.4707 41.8867C12.4512 46.6792 18.4609 49.0755 25.5 49.0755C32.5391 49.0755 38.5488 46.6792 43.5293 41.8867C48.5098 37.0942 51 31.3112 51 24.5377C51 17.7643 48.5098 11.9813 43.5293 7.18879C38.5488 2.39626 32.5391 0 25.5 0ZM4.2832 24.5377C4.2832 18.9145 6.3584 14.106 10.5088 10.1122C14.6592 6.11846 19.6562 4.12157 25.5 4.12157C30.7461 4.12157 35.1953 5.68713 38.8477 8.81825L9.16406 37.3817C5.91016 33.8672 4.2832 29.5859 4.2832 24.5377ZM25.5 44.9539C20.2539 44.9539 15.8047 43.3883 12.1523 40.2572L41.8359 11.6938C45.0898 15.2083 46.7168 19.4896 46.7168 24.5377C46.7168 30.161 44.6416 34.9695 40.4912 38.9632C36.3408 42.957 31.3438 44.9539 25.5 44.9539Z" fill="#C0392B"/>
</g>
<defs>
<clipPath id="clip0_1423_440">
<rect width="51" height="49.0755" fill="white"/>
</clipPath>
</defs>
</svg>
