<svg width="24" height="24" viewBox="0 0 24 24" fill="none" xmlns="http://www.w3.org/2000/svg">
<path d="M2.45383 7.9395C2.73512 7.65829 3.11658 7.50032 3.51433 7.50032C3.91207 7.50032 4.29354 7.65829 4.57483 7.9395L11.9998 15.3645L19.4248 7.9395C19.7077 7.66626 20.0866 7.51507 20.4799 7.51849C20.8732 7.52191 21.2494 7.67966 21.5276 7.95777C21.8057 8.23588 21.9634 8.6121 21.9668 9.0054C21.9703 9.39869 21.8191 9.7776 21.5458 10.0605L13.0603 18.546C12.779 18.8272 12.3976 18.9852 11.9998 18.9852C11.6021 18.9852 11.2206 18.8272 10.9393 18.546L2.45383 10.0605C2.17262 9.77921 2.01465 9.39775 2.01465 9C2.01465 8.60225 2.17262 8.22079 2.45383 7.9395Z" fill="#909090"/>
</svg>
