<svg width="15" height="15" viewBox="0 0 15 15" fill="none" xmlns="http://www.w3.org/2000/svg">
<path fill-rule="evenodd" clip-rule="evenodd" d="M7.29698 13.097C10.341 13.097 12.415 10.89 12.844 8.41104C12.8557 8.3436 12.8805 8.27913 12.9171 8.2213C12.9537 8.16348 13.0014 8.11342 13.0573 8.07401C13.1133 8.03459 13.1764 8.00658 13.2432 7.99157C13.31 7.97656 13.379 7.97485 13.4465 7.98654C13.5139 7.99823 13.5784 8.02308 13.6362 8.05968C13.694 8.09629 13.7441 8.14392 13.7835 8.19987C13.8229 8.25582 13.8509 8.31898 13.866 8.38576C13.881 8.45253 13.8827 8.5216 13.871 8.58904C13.367 11.5 10.913 14.139 7.29698 14.139C5.75998 14.139 4.55198 13.44 3.63398 12.624C2.97598 12.039 2.44098 11.37 2.03198 10.832V12.468C2.03198 12.6006 1.9793 12.7278 1.88554 12.8216C1.79177 12.9154 1.66459 12.968 1.53198 12.968C1.39937 12.968 1.2722 12.9154 1.17843 12.8216C1.08466 12.7278 1.03198 12.6006 1.03198 12.468L1.03198 9.46804C1.03198 9.33543 1.08466 9.20825 1.17843 9.11448C1.2722 9.02072 1.39937 8.96804 1.53198 8.96804H4.53198C4.66459 8.96804 4.79177 9.02072 4.88554 9.11448C4.9793 9.20825 5.03198 9.33543 5.03198 9.46804C5.03198 9.60065 4.9793 9.72782 4.88554 9.82159C4.79177 9.91536 4.66459 9.96804 4.53198 9.96804H2.68598L2.68798 9.96904C3.11798 10.541 3.64498 11.239 4.32598 11.844C5.12998 12.559 6.10298 13.097 7.29698 13.097ZM7.70198 1.98904C4.68998 1.98904 2.62898 4.14904 2.16898 6.59604C2.15741 6.66424 2.13237 6.72945 2.09533 6.78788C2.05829 6.8463 2.00998 6.89676 1.95323 6.93631C1.89648 6.97587 1.83241 7.00372 1.76478 7.01826C1.69715 7.03279 1.6273 7.03371 1.55931 7.02096C1.49132 7.00821 1.42655 6.98205 1.36877 6.944C1.311 6.90596 1.26138 6.85679 1.22281 6.79936C1.18425 6.74193 1.1575 6.6774 1.14414 6.60953C1.13077 6.54165 1.13106 6.4718 1.14498 6.40404C1.68498 3.53004 4.12498 0.947038 7.70198 0.947038C9.23898 0.947038 10.446 1.64604 11.365 2.46204C12.023 3.04704 12.558 3.71604 12.967 4.25404V2.61804C12.967 2.48543 13.0197 2.35825 13.1134 2.26448C13.2072 2.17072 13.3344 2.11804 13.467 2.11804C13.5996 2.11804 13.7268 2.17072 13.8205 2.26448C13.9143 2.35825 13.967 2.48543 13.967 2.61804V5.61804C13.967 5.75065 13.9143 5.87782 13.8205 5.97159C13.7268 6.06536 13.5996 6.11804 13.467 6.11804H10.467C10.3344 6.11804 10.2072 6.06536 10.1134 5.97159C10.0197 5.87782 9.96698 5.75065 9.96698 5.61804C9.96698 5.48543 10.0197 5.35825 10.1134 5.26448C10.2072 5.17072 10.3344 5.11804 10.467 5.11804H12.312V5.11604C11.88 4.54504 11.354 3.84604 10.672 3.24204C9.86898 2.52704 8.89698 1.98904 7.70198 1.98904Z" fill="current"/>
</svg>
