<svg width="20" height="15" viewBox="0 0 20 15" fill="none" xmlns="http://www.w3.org/2000/svg">
<path d="M13.4919 2.10804C12.5192 1.45102 11.3861 1.07112 10.2139 1.00905C9.04179 0.946982 7.87486 1.20509 6.83825 1.75571C5.80163 2.30633 4.93442 3.1287 4.32958 4.13464C3.72474 5.14059 3.40508 6.29218 3.40488 7.46596M6.25571 12.828C7.22862 13.4838 8.36162 13.8627 9.53335 13.9238C10.7051 13.985 11.8714 13.7263 12.9073 13.1753C13.9432 12.6244 14.8097 11.802 15.414 10.7962C16.0183 9.79048 16.3376 8.63928 16.3377 7.46596M7.33921 7.54662L9.32333 9.53075L13.4525 5.40117M4.17212 7.46596H5.98483L3.49242 9.95837L1 7.46596H2.81271H4.17212ZM15.7029 7.46596H13.8902L16.3826 4.97354L18.875 7.46596H17.0623H15.7029Z" stroke="current" stroke-width="1.2" stroke-linecap="round" stroke-linejoin="round"/>
</svg>
