<svg width="112" height="112" viewBox="0 0 112 112" fill="none" xmlns="http://www.w3.org/2000/svg">
<g filter="url(#filter0_d_1151_192)">
<circle cx="56" cy="56" r="46" fill="#8FC3D8"/>
<mask id="mask0_1151_192" style="mask-type:alpha" maskUnits="userSpaceOnUse" x="10" y="10" width="92" height="92">
<circle cx="56" cy="56" r="46" fill="#346178"/>
</mask>
<g mask="url(#mask0_1151_192)">
<path d="M65.9334 77.4L56.0334 81.2L46.1334 77.4C45.5334 77.5 44.1334 77.6 43.7334 77.6L47.1334 102.4H64.9334L68.3334 77.6C67.9334 77.6 66.5334 77.4 65.9334 77.4Z" fill="white"/>
<path d="M65.9332 77.4C65.7332 77.4 65.5332 77.4 65.5332 77.4L63.9332 58.4H48.0332L46.4332 77.4C46.4332 77.4 46.3332 77.4 46.0332 77.4L55.9332 81.2L65.9332 77.4Z" fill="#FEE69F"/>
<path d="M73.3334 50.4C72.0334 49.6 70.1333 51.1 69.0333 53.8C67.9333 56.5 68.1334 59.3 69.4334 60.1C70.7334 60.9 72.6334 59.4 73.7334 56.7C74.8334 54.1 74.6334 51.2 73.3334 50.4Z" fill="#FEE69F"/>
<path d="M38.6334 50.4C39.9334 49.6 41.8334 51.1 42.9334 53.8C44.0334 56.5 43.8334 59.3 42.4334 60.1C41.1334 60.9 39.2334 59.4 38.1334 56.7C37.1334 54.1 37.3334 51.2 38.6334 50.4Z" fill="#FEE69F"/>
<path d="M73.733 45.6C73.733 58.1 65.833 72.3 56.033 72.3C46.233 72.3 38.333 58.2 38.333 45.6C38.333 33.1 46.233 26.9 56.033 26.9C65.833 26.9 73.733 33.1 73.733 45.6Z" fill="#FEE69F"/>
<path opacity="0.4" d="M56.033 26.9C46.233 26.9 38.333 33.1 38.333 45.6C38.333 58.1 46.233 72.3 56.033 72.3V26.9Z" fill="white"/>
<path opacity="0.1" d="M56.0338 72.3C52.8338 72.3 49.8338 70.8 47.2338 68.3L47.1338 69.3C49.7338 71.8 52.8338 73.4 56.0338 73.4C59.3338 73.4 62.3338 71.8 64.9338 69.3L64.8338 68.2C62.2338 70.7 59.2338 72.3 56.0338 72.3Z" fill="black"/>
<path d="M43.7333 77.6L47.1333 102.4H24.3333C24.3333 102.4 21.3333 86.9 24.3333 83C27.0333 79.6 38.4333 78.1 43.7333 77.6ZM87.7333 83.1C85.0333 79.7 73.6333 78.1 68.3333 77.6L64.9333 102.4H87.7333C87.7333 102.4 90.6333 86.9 87.7333 83.1Z" fill="#303030"/>
<path d="M70.5336 102.4L78.7336 85.7H76.7336L78.6336 83L70.8336 77.8C69.9336 77.7 69.1336 77.6 68.3336 77.5L64.9336 102.3H70.5336V102.4Z" fill="#595959"/>
<path d="M43.7334 77.6C43.0334 77.7 42.1334 77.8 41.2334 77.9L33.4334 83.1L35.3334 85.8H33.2334L41.4334 102.5H47.0334L43.7334 77.6Z" fill="#595959"/>
<path d="M74.8336 40.9C74.5336 39.1 74.2336 37.2 73.3336 35.3C72.4336 33.4 71.2336 31.4 69.4336 29.8C67.7336 28.2 65.6336 26.9 63.2336 26.1C62.0336 25.7 60.8336 25.4 59.6336 25.2C59.0336 25.1 58.4336 25 57.8336 25L55.9336 24.9L54.2336 25C53.6336 25 52.9336 25.1 52.3336 25.2C51.1336 25.4 49.9336 25.7 48.7336 26.1C46.4336 26.9 44.3336 28.2 42.5336 29.8C40.8336 31.4 39.5336 33.4 38.6336 35.3C37.7336 37.2 37.3336 39.2 37.1336 40.9C37.0336 41.8 36.9336 42.6 36.9336 43.4C36.9336 44.2 37.0336 45 37.0336 45.7C37.2336 47.1 37.3336 48.2 37.5336 49.2C38.0336 51.2 38.3336 52.3 38.3336 52.3L39.4336 52.1C39.4336 52.1 39.4336 51 39.3336 49.1C39.3336 48.1 39.4336 46.9 39.4336 45.6C39.5336 45 39.6336 44.3 39.6336 43.6C39.7336 42.9 39.8336 42.3 40.0336 41.6C42.2336 36.7 46.5336 32.2 53.8336 35C55.0336 35.5 56.8336 35.5 57.9336 35C65.2336 32.2 69.6336 36.7 71.7336 41.6C71.8336 42.3 72.0336 42.9 72.1336 43.6C72.2336 44.3 72.3336 45 72.3336 45.7C72.3336 47 72.4336 48.1 72.4336 49.1C72.3336 51.1 72.2336 52.2 72.2336 52.2L73.3336 52.4C73.3336 52.4 73.6336 51.3 74.1336 49.4C74.3336 48.4 74.4336 47.2 74.6336 45.8C74.6336 45.1 74.6336 44.4 74.7336 43.6C74.9336 42.7 74.9336 41.8 74.8336 40.9Z" fill="#303030"/>
<path d="M56.0332 60.3C56.0332 60.3 56.2332 60.2 56.5332 60.1C56.8332 60 57.2332 59.9 57.7332 59.9C58.6332 59.8 59.7332 60 60.7332 60.4C61.7332 60.8 62.6332 61.5 63.2332 62.2C63.5332 62.6 63.7332 62.9 63.9332 63.2C64.0332 63.5 64.1332 63.7 64.1332 63.7C64.1332 63.7 63.9332 63.8 63.6332 63.9C63.3332 64 62.9332 64.1 62.4332 64.1C61.5332 64.2 60.4332 64 59.4332 63.6C58.4332 63.2 57.5332 62.5 56.9332 61.8C56.6332 61.4 56.4332 61.1 56.2332 60.8C56.1332 60.5 56.0332 60.3 56.0332 60.3Z" fill="#303030"/>
<path d="M56.0336 60.3C56.0336 60.3 55.9336 60.5 55.8336 60.8C55.7336 61.1 55.4336 61.4 55.1336 61.8C54.5336 62.5 53.6336 63.2 52.6336 63.6C51.6336 64 50.5336 64.2 49.6336 64.1C49.1336 64.1 48.7336 64 48.4336 63.9C48.1336 63.8 47.9336 63.7 47.9336 63.7C47.9336 63.7 48.0336 63.5 48.1336 63.2C48.2336 62.9 48.5336 62.6 48.8336 62.2C49.4336 61.5 50.3336 60.8 51.3336 60.4C52.3336 60 53.4336 59.8 54.3336 59.9C54.8336 59.9 55.2336 60 55.5336 60.1C55.8336 60.2 56.0336 60.3 56.0336 60.3Z" fill="#303030"/>
<path d="M68.2332 77.6C67.7332 77.6 66.5332 77.5 65.9332 77.4L56.0332 81.2L58.3332 87.2L67.7332 82.3L68.2332 77.6Z" fill="white"/>
<path d="M43.833 77.6C44.333 77.6 45.533 77.5 46.133 77.4L56.033 81.2L53.733 87.2L44.333 82.3L43.833 77.6Z" fill="white"/>
<path d="M68.2332 83.4L58.5332 87.6L58.0332 87.8L57.9332 87.4L56.0332 81.2L58.7332 87.1L58.1332 86.9L67.1332 81.4L68.2332 83.4Z" fill="#BFBFBF"/>
<path d="M56.033 81.2L54.133 87.4L54.033 87.8L53.533 87.6L43.833 83.6L44.933 81.5L53.933 86.9L53.333 87.1L56.033 81.2Z" fill="#BFBFBF"/>
<path d="M43.833 77.6C44.333 77.6 45.533 77.5 46.133 77.4L56.033 81.2L53.733 87.2L44.333 82.3L43.833 77.6Z" fill="white"/>
<path d="M68.3338 77.6L76.9338 83.4L74.4338 86.9H76.9338L69.2338 102.5H64.8338L68.3338 77.6ZM43.7338 77.6L35.1338 83.4L37.6338 86.9H35.1338L42.8338 102.5H47.2338L43.7338 77.6Z" fill="#303030"/>
<path d="M68.2332 77.6C67.7332 77.6 66.5332 77.5 65.9332 77.4L56.0332 81.2L58.3332 87.2L67.7332 82.3L68.2332 77.6Z" fill="white"/>
<path d="M56.0336 81.2L56.6336 102.4H55.4336L56.0336 81.2Z" fill="#BFBFBF"/>
</g>
</g>
<defs>
<filter id="filter0_d_1151_192" x="0" y="0" width="112" height="112" filterUnits="userSpaceOnUse" color-interpolation-filters="sRGB">
<feFlood flood-opacity="0" result="BackgroundImageFix"/>
<feColorMatrix in="SourceAlpha" type="matrix" values="0 0 0 0 0 0 0 0 0 0 0 0 0 0 0 0 0 0 127 0" result="hardAlpha"/>
<feOffset/>
<feGaussianBlur stdDeviation="5"/>
<feComposite in2="hardAlpha" operator="out"/>
<feColorMatrix type="matrix" values="0 0 0 0 0 0 0 0 0 0 0 0 0 0 0 0 0 0 0.25 0"/>
<feBlend mode="normal" in2="BackgroundImageFix" result="effect1_dropShadow_1151_192"/>
<feBlend mode="normal" in="SourceGraphic" in2="effect1_dropShadow_1151_192" result="shape"/>
</filter>
</defs>
</svg>
