<svg width="112" height="112" viewBox="0 0 112 112" fill="none" xmlns="http://www.w3.org/2000/svg">
<g filter="url(#filter0_d_1148_130)">
<circle cx="56" cy="56" r="46" fill="#FC611F"/>
<mask id="mask0_1148_130" style="mask-type:alpha" maskUnits="userSpaceOnUse" x="10" y="10" width="92" height="92">
<circle cx="56" cy="56" r="46" fill="#346178"/>
</mask>
<g mask="url(#mask0_1148_130)">
<path d="M73.3333 56.3999C72.0333 55.5999 70.1334 57.0999 69.0334 59.7999C67.9334 62.4999 68.1333 65.2999 69.4333 66.0999C70.7333 66.8999 72.6334 65.3999 73.7334 62.6999C74.8334 60.0999 74.6333 57.1999 73.3333 56.3999Z" fill="#FEE69F"/>
<path d="M38.6336 56.3999C39.9336 55.5999 41.8335 57.0999 42.9335 59.7999C44.0335 62.4999 43.8335 65.2999 42.5335 66.0999C41.2335 66.8999 39.3335 65.3999 38.2335 62.6999C37.1335 60.0999 37.3336 57.1999 38.6336 56.3999Z" fill="#FEE69F"/>
<path d="M24.3333 108.4H87.7333C87.7333 108.4 90.7333 92.8999 87.7333 88.9999C84.2333 84.4999 65.6333 83.2999 65.6333 83.2999H46.4333C46.4333 83.2999 27.8333 84.4999 24.3333 88.9999C21.3333 92.8999 24.3333 108.4 24.3333 108.4Z" fill="#346178"/>
<path d="M63.933 64.2999H48.033L46.333 83.2999C46.333 85.3999 50.633 87.0999 55.933 87.0999C61.233 87.0999 65.533 85.3999 65.533 83.2999L63.933 64.2999Z" fill="#FEE69F"/>
<path d="M73.6334 51.5999C73.6334 64.0999 65.7334 78.2999 55.9334 78.2999C46.1334 78.2999 38.2334 64.1999 38.2334 51.5999C38.2334 39.0999 46.1334 32.8999 55.9334 32.8999C65.7334 32.8999 73.6334 39.0999 73.6334 51.5999Z" fill="#FEE69F"/>
<path opacity="0.1" d="M55.9332 78.2999C52.7332 78.2999 49.7332 76.7999 47.1332 74.2999L47.0332 75.2999C49.6332 77.7999 52.7332 79.4 55.9332 79.4C59.2332 79.4 62.2332 77.7999 64.8332 75.2999L64.7332 74.2C62.2332 76.7 59.1332 78.2999 55.9332 78.2999Z" fill="black"/>
<path opacity="0.4" d="M38.2334 51.5999C38.2334 64.0999 46.1334 78.2999 55.9334 78.2999V32.8999C46.1334 32.8999 38.2334 39.0999 38.2334 51.5999Z" fill="white"/>
<path d="M76.8331 40.5C71.5331 25 56.0331 28.9 56.0331 28.9C56.0331 28.9 40.4331 25 35.1331 40.5C30.3331 54.4 38.3331 66.4 44.7331 71.5C44.7331 71.5 42.4331 58.3 45.2331 48.7C51.2331 45.4 55.9331 41.1 55.9331 41.1C55.9331 41.1 60.6331 45.5 66.6331 48.7C69.4331 58.3 67.1331 71.5 67.1331 71.5C73.6331 66.5 81.6331 54.5 76.8331 40.5Z" fill="#FDC00F"/>
</g>
</g>
<defs>
<filter id="filter0_d_1148_130" x="0" y="0" width="112" height="112" filterUnits="userSpaceOnUse" color-interpolation-filters="sRGB">
<feFlood flood-opacity="0" result="BackgroundImageFix"/>
<feColorMatrix in="SourceAlpha" type="matrix" values="0 0 0 0 0 0 0 0 0 0 0 0 0 0 0 0 0 0 127 0" result="hardAlpha"/>
<feOffset/>
<feGaussianBlur stdDeviation="5"/>
<feComposite in2="hardAlpha" operator="out"/>
<feColorMatrix type="matrix" values="0 0 0 0 0 0 0 0 0 0 0 0 0 0 0 0 0 0 0.25 0"/>
<feBlend mode="normal" in2="BackgroundImageFix" result="effect1_dropShadow_1148_130"/>
<feBlend mode="normal" in="SourceGraphic" in2="effect1_dropShadow_1148_130" result="shape"/>
</filter>
</defs>
</svg>
