<svg width="112" height="112" viewBox="0 0 112 112" fill="none" xmlns="http://www.w3.org/2000/svg">
<g filter="url(#filter0_d_1151_233)">
<circle cx="56" cy="56" r="46" fill="#FDC00F"/>
<mask id="mask0_1151_233" style="mask-type:alpha" maskUnits="userSpaceOnUse" x="10" y="10" width="92" height="92">
<circle cx="56" cy="56" r="46" fill="#FDC00F"/>
</mask>
<g mask="url(#mask0_1151_233)">
<path d="M70.7992 35.4999C70.7992 35.4999 81.3992 62.4999 75.4992 102.3H55.1992V35.4999H70.7992Z" fill="#8F6C08"/>
<path d="M63.1992 87.4C63.2992 87.2 63.3992 87 63.4992 86.7C63.5992 86.4 63.6992 86.1 63.7992 85.8C63.9992 85.2 64.1992 84.6 64.3992 84.1V84C65.4992 80.9 66.0992 78.6 66.3992 77.3C66.8992 77.3 66.3992 77.3 65.7992 77.2C65.1992 77.1 64.5992 76.6 64.5992 76L62.9992 58.1H47.0992L45.3992 77.1C45.3992 77.1 44.6992 77.1 43.6992 77.2C43.9992 78.5 44.5992 80.8 45.6992 83.9C45.8992 84.5 46.0992 85.1 46.3992 85.7C46.4992 86 46.5992 86.3 46.6992 86.6C46.7992 86.8 46.8992 87 46.9992 87.3C47.1992 87.9 47.4992 88.5 47.6992 89.1C50.1992 95.1 53.0992 100.1 54.2992 102.2H55.6992C56.9992 100.1 59.7992 95 62.2992 89.1C62.7992 88.5 62.9992 88 63.1992 87.4Z" fill="#FEE69F"/>
<path opacity="0.1" d="M55.2994 72.0999C52.0994 72.0999 49.0994 70.5999 46.4994 68.0999L46.3994 69.0999C48.9994 71.5999 52.0994 73.1999 55.2994 73.1999C58.5994 73.1999 61.5994 71.5999 64.1994 69.0999L64.0994 67.9999C61.4994 70.5999 58.4994 72.0999 55.2994 72.0999Z" fill="black"/>
<path d="M43.8989 77.3999C42.7989 77.4999 41.1989 77.6999 39.3989 77.8999C37.9989 78.0999 36.4989 78.2999 34.8989 78.5999C30.0989 79.4999 25.199 80.8999 23.599 82.9999C20.599 86.7999 23.599 102.4 23.599 102.4H43.599H54.599C53.299 100.3 50.499 95.1999 47.999 89.2999C45.499 83.3999 44.3989 79.2999 43.8989 77.3999Z" fill="#8FC3D8"/>
<path d="M86.9986 82.8999C85.3986 80.7999 80.3986 79.3999 75.6986 78.4999C74.1986 78.1999 72.5986 77.9999 71.1986 77.7999C69.3986 77.5999 67.7986 77.3999 66.6986 77.2999C66.1986 79.1999 65.0986 83.3999 62.6986 89.0999C60.1986 95.0999 57.2986 100.1 56.0986 102.2H67.0986H87.0986C86.9986 102.3 89.8986 86.7999 86.9986 82.8999Z" fill="#8FC3D8"/>
<path d="M39.7994 35.4999C39.7994 35.4999 29.1994 62.4999 35.0994 102.3H55.3994V35.4999H39.7994Z" fill="#8F6C08"/>
<path d="M72.599 50.3C71.299 49.5 69.399 51 68.299 53.7C67.199 56.4 67.399 59.2 68.699 60C69.999 60.8 71.899 59.3 72.999 56.6C74.099 53.9 73.899 51.1 72.599 50.3Z" fill="#FEE69F"/>
<path d="M37.899 50.3C39.199 49.5 41.099 51 42.199 53.7C43.299 56.4 43.099 59.2 41.699 60C40.399 60.8 38.499 59.3 37.399 56.6C36.399 53.9 36.599 51.1 37.899 50.3Z" fill="#FEE69F"/>
<path d="M65.6992 63.7C65.6992 63.7 65.6992 63.6 65.6992 63.4C65.6992 63.2 65.7992 63 65.7992 62.6C65.8992 61.9 66.1992 61 66.5992 60C66.7992 59.5 67.0992 58.9 67.4992 58.4C67.6992 58.1 67.8992 57.9 68.1992 57.7C68.3992 57.6 68.5992 57.6 68.7992 57.6C68.8992 57.6 69.1992 57.7 69.2992 57.8C69.5992 58 69.7992 58.3 69.9992 58.6C70.1992 58.9 70.3992 59.2 70.4992 59.6C70.7992 60.3 71.0992 61 71.1992 61.7C71.3992 62.4 71.4992 63.2 71.5992 64C71.6992 64.6 71.5992 65.6 71.3992 66.4C71.1992 66.8 70.9992 67.2 70.6992 67.6C70.3992 67.9 69.8992 68.2 69.4992 68.3C69.2992 68.4 69.0992 68.4 68.7992 68.4H68.6992H68.5992H68.4992H68.2992C68.1992 68.4 68.0992 68.4 67.9992 68.3C67.8992 68.3 67.7992 68.2 67.5992 68.2C67.2992 68.1 67.1992 68 66.9992 67.9C66.2992 67.4 65.9992 66.7 65.8992 66.2C65.6992 65.7 65.7992 65.2 65.6992 64.9C65.6992 64.1 65.6992 63.7 65.6992 63.7ZM67.1992 63.7C67.1992 63.7 67.1992 64 67.2992 64.6C67.3992 64.9 67.4992 65.2 67.5992 65.5C67.6992 65.8 67.9992 66 68.1992 66.2L68.2992 66.3C68.2992 66.3 68.2992 66.3 68.3992 66.3H68.5992H68.6992C68.6992 66.3 68.7992 66.3 68.5992 66.3C68.6992 66.3 68.7992 66.3 68.7992 66.3C69.0992 66.3 69.2992 66.1 69.5992 65.7C69.7992 65.2 69.9992 64.8 70.0992 64C70.1992 63.4 70.1992 62.7 70.1992 62C70.1992 61.3 70.0992 60.6 69.8992 59.9C69.6992 59.3 69.4992 58.6 68.9992 58.2C68.4992 57.7 67.8992 58.2 67.5992 58.7C67.2992 59.2 67.1992 59.8 67.0992 60.3C66.8992 61.3 66.8992 62.2 66.8992 62.8C67.0992 63.4 67.1992 63.7 67.1992 63.7Z" fill="#8FC3D8"/>
<path d="M38.7988 63.7C38.7988 63.7 38.7988 63.6 38.7988 63.4C38.7988 63.2 38.8988 63 38.8988 62.6C38.9988 61.9 39.2989 61 39.6989 60C39.8989 59.5 40.1988 58.9 40.5988 58.4C40.7988 58.1 40.9988 57.9 41.2988 57.7C41.4988 57.6 41.6988 57.6 41.8988 57.6C41.9988 57.6 42.2988 57.7 42.3988 57.8C42.6988 58 42.8988 58.3 43.0988 58.6C43.2988 58.9 43.4988 59.2 43.5988 59.6C43.8988 60.3 44.0988 61 44.2988 61.7C44.4988 62.4 44.5989 63.2 44.6989 64C44.7989 64.6 44.6988 65.6 44.4988 66.4C44.2988 66.8 44.0988 67.2 43.7988 67.6C43.4988 67.9 42.9988 68.2 42.5988 68.3C42.3988 68.4 42.1988 68.4 41.8988 68.4H41.7988H41.6989H41.5988H41.3988C41.2988 68.4 41.1988 68.4 41.0988 68.3C40.9988 68.3 40.8989 68.2 40.6989 68.2C40.3989 68.1 40.2988 68 40.0988 67.9C39.3988 67.4 39.0988 66.7 38.9988 66.2C38.7988 65.7 38.8988 65.2 38.7988 64.9C38.7988 64.1 38.7988 63.7 38.7988 63.7ZM40.2988 63.7C40.2988 63.7 40.2988 64 40.3988 64.6C40.4988 64.9 40.5989 65.2 40.6989 65.5C40.7989 65.8 41.0988 66 41.2988 66.2L41.3988 66.3C41.3988 66.3 41.3988 66.3 41.4988 66.3H41.6989H41.7988C41.7988 66.3 41.8989 66.3 41.6989 66.3C41.7989 66.3 41.8988 66.3 41.8988 66.3C42.1988 66.3 42.3989 66.1 42.6989 65.7C42.8989 65.2 43.0989 64.8 43.1989 64C43.2989 63.4 43.2988 62.7 43.2988 62C43.2988 61.3 43.1988 60.6 42.9988 59.9C42.7988 59.3 42.5988 58.6 42.0988 58.2C41.5988 57.7 40.9989 58.2 40.6989 58.7C40.3989 59.2 40.2989 59.8 40.1989 60.3C39.9989 61.3 39.9988 62.2 39.9988 62.8C40.1988 63.4 40.2988 63.7 40.2988 63.7Z" fill="#8FC3D8"/>
<path d="M72.9986 45.4999C72.9986 57.9999 65.0986 72.1999 55.2986 72.1999C45.4986 72.1999 37.5986 58.0999 37.5986 45.4999C37.5986 32.9999 45.4986 26.7999 55.2986 26.7999C65.0986 26.7999 72.9986 32.8999 72.9986 45.4999Z" fill="#FEE69F"/>
<path opacity="0.4" d="M55.2986 26.7999C45.4986 26.7999 37.5986 32.9999 37.5986 45.4999C37.5986 57.9999 45.4986 72.1999 55.2986 72.1999V26.7999Z" fill="white"/>
<path d="M55.299 26.2C44.199 26.2 36.999 33.8 36.999 45.5C36.999 46 36.999 46.5 36.999 47H37.599H72.999H73.599C73.599 46.5 73.599 46 73.599 45.5C73.599 33.8 66.399 26.2 55.299 26.2Z" fill="#8F6C08"/>
</g>
</g>
<defs>
<filter id="filter0_d_1151_233" x="0" y="0" width="112" height="112" filterUnits="userSpaceOnUse" color-interpolation-filters="sRGB">
<feFlood flood-opacity="0" result="BackgroundImageFix"/>
<feColorMatrix in="SourceAlpha" type="matrix" values="0 0 0 0 0 0 0 0 0 0 0 0 0 0 0 0 0 0 127 0" result="hardAlpha"/>
<feOffset/>
<feGaussianBlur stdDeviation="5"/>
<feComposite in2="hardAlpha" operator="out"/>
<feColorMatrix type="matrix" values="0 0 0 0 0 0 0 0 0 0 0 0 0 0 0 0 0 0 0.25 0"/>
<feBlend mode="normal" in2="BackgroundImageFix" result="effect1_dropShadow_1151_233"/>
<feBlend mode="normal" in="SourceGraphic" in2="effect1_dropShadow_1151_233" result="shape"/>
</filter>
</defs>
</svg>
