<svg width="112" height="112" viewBox="0 0 112 112" fill="none" xmlns="http://www.w3.org/2000/svg">
<g filter="url(#filter0_d_1146_716)">
<circle cx="56" cy="56" r="46" fill="#FDC00F"/>
<mask id="mask0_1146_716" style="mask-type:alpha" maskUnits="userSpaceOnUse" x="10" y="10" width="92" height="92">
<circle cx="56" cy="56" r="46" fill="#FDC00F"/>
</mask>
<g mask="url(#mask0_1146_716)">
<path d="M73.501 45.7001H55.601H37.701C37.701 45.7001 39.601 65.1 32.001 69.3C32.001 69.3 42.101 75.1001 55.601 75.1001C69.101 75.1001 79.201 69.3 79.201 69.3C71.601 65.1 73.501 45.7001 73.501 45.7001Z" fill="#3F3004"/>
<path d="M77.1005 78.5C76.7005 78.4 76.3005 78.3 75.9005 78.3C74.4005 78 72.8005 77.8 71.4005 77.6C69.6005 77.4 68.0005 77.2 66.9005 77.1C67.4005 77.1 66.9005 77.1 66.3005 77C65.7005 76.9 65.1005 76.4 65.1005 75.8L63.5005 57.9H47.6005L46.0005 75.8C45.9005 76.4 45.5005 77 45.0005 77C44.8005 77 44.5005 77 44.1005 77.1C43.0005 77.2 41.4005 77.4 39.6005 77.6C38.2005 77.8 36.7005 78 35.1005 78.3C34.7005 78.4 34.3005 78.4 33.9005 78.5C29.5005 79.4 25.2005 80.7 23.7005 82.6C20.7005 86.4 23.7005 102 23.7005 102H87.1005C87.1005 102 90.1005 86.5 87.1005 82.6C85.8005 80.7 81.5005 79.4 77.1005 78.5Z" fill="#FEE69F"/>
<path d="M72.9007 50C71.6007 49.2 69.7007 50.7 68.6007 53.4C67.5007 56.1 67.7007 58.9 69.0007 59.7C70.3007 60.5 72.2007 59 73.3007 56.3C74.4007 53.7 74.2007 50.8 72.9007 50Z" fill="#FEE69F"/>
<path d="M38.2009 50C39.5009 49.2 41.4009 50.7 42.5009 53.4C43.6009 56.1 43.4009 58.9 42.1009 59.7C40.8009 60.5 38.9009 59 37.8009 56.3C36.7009 53.7 36.9009 50.8 38.2009 50Z" fill="#FEE69F"/>
<path opacity="0.1" d="M55.6002 71.8C52.4002 71.8 49.4002 70.3 46.8002 67.8L46.7002 68.8C49.3002 71.3 52.4002 72.9001 55.6002 72.9001C58.9002 72.9001 61.9002 71.3 64.5002 68.8L64.4002 67.7001C61.8002 70.3001 58.8002 71.8 55.6002 71.8Z" fill="black"/>
<path d="M71.3998 61.1C71.3998 63.1 70.3998 64.7 69.0998 64.7C67.7998 64.7 66.7998 63.1 66.7998 61.1C66.7998 59.1 67.7998 57.5 69.0998 57.5C70.2998 57.5 71.3998 59.1 71.3998 61.1Z" fill="white"/>
<path d="M44.3002 61.1C44.3002 63.1 43.3002 64.7 42.0002 64.7C40.7002 64.7 39.7002 63.1 39.7002 61.1C39.7002 59.1 40.7002 57.5 42.0002 57.5C43.3002 57.5 44.3002 59.1 44.3002 61.1Z" fill="white"/>
<path d="M73.3004 45.2C73.3004 57.7 65.4004 71.9 55.6004 71.9C45.8004 71.9 37.9004 57.8 37.9004 45.2C37.9004 32.7 45.8004 26.5 55.6004 26.5C65.4004 26.5 73.3004 32.7 73.3004 45.2Z" fill="#FEE69F"/>
<path opacity="0.4" d="M37.9004 45.2C37.9004 57.7 45.8004 71.9 55.6004 71.9V26.5C45.8004 26.5 37.9004 32.7 37.9004 45.2Z" fill="white"/>
<path d="M73.101 40.1C72.801 38.4 72.301 36.7 71.401 34.9C70.501 33.2 69.301 31.5 67.701 30.1C66.101 28.7 64.101 27.6 62.001 26.9C60.001 26.2 57.701 25.9 55.501 25.9C53.301 25.9 51.101 26.2 49.001 26.9C46.901 27.6 44.901 28.7 43.301 30.1C41.701 31.5 40.401 33.2 39.601 34.9C38.801 36.7 38.201 38.4 37.901 40.1C37.601 41.7 37.501 43.3 37.501 44.6C37.501 46 37.701 47.1 37.701 48.1C38.001 50 38.201 51.1 38.201 51.1C38.201 49.9 38.301 45.7 40.801 43.8C45.001 45.1 50.001 45.8 55.301 45.8C60.601 45.8 65.601 45 69.801 43.8C72.301 45.7 72.501 49.9 72.401 51.1C72.401 51.1 72.601 50 72.901 48.1C73.001 47.1 73.101 46 73.101 44.6C73.501 43.3 73.401 41.8 73.101 40.1Z" fill="#3F3004"/>
<path d="M34.1007 78.5C29.7007 79.4 25.4007 80.7 23.9007 82.6C20.9007 86.4 23.9007 102 23.9007 102H42.0007L34.2007 78.5H34.1007Z" fill="#346178"/>
<path d="M87.201 82.6C85.701 80.7 81.401 79.3 77.001 78.5C76.901 78.5 76.901 78.5 76.801 78.5L69.001 102H87.101C87.201 102 90.201 86.5 87.201 82.6Z" fill="#346178"/>
<path d="M55.6004 94.7001C48.8004 94.7001 42.7004 93.2 38.4004 90.8L42.0004 102H69.1004L72.8004 90.8C68.5004 93.2 62.4004 94.7001 55.6004 94.7001Z" fill="#8FC3D8"/>
<path d="M46.2004 78.4001C45.7004 79.0001 44.9004 79.1001 44.3004 78.6001C43.7004 78.1001 43.6004 77.3001 44.1004 76.7001C44.6004 76.1001 45.4004 76.0001 46.0004 76.5001C46.6004 77.0001 46.7004 77.9001 46.2004 78.4001Z" fill="white"/>
<path d="M48.2004 79.7C47.8004 80.4 46.9004 80.5 46.2004 80.1C45.5004 79.7 45.4004 78.8 45.8004 78.1C46.2004 77.4 47.1004 77.3 47.8004 77.7C48.4004 78.2 48.6004 79.1 48.2004 79.7Z" fill="white"/>
<path d="M50.9002 81.2C50.5002 82 49.6002 82.3 48.8002 81.9C48.0002 81.5 47.7002 80.6 48.1002 79.8C48.5002 79 49.4002 78.7 50.2002 79.1C51.0002 79.5 51.3002 80.4 50.9002 81.2Z" fill="white"/>
<path d="M54.2003 82.2C53.9003 83.1 53.0003 83.6 52.1003 83.3C51.2003 83 50.7003 82.1 51.0003 81.2C51.3003 80.3 52.2003 79.8 53.1003 80.1C54.0003 80.4 54.5003 81.4 54.2003 82.2Z" fill="white"/>
<path d="M57.6 82.3C57.6 83.3 56.8 84.1 55.8 84.1C54.8 84.1 54 83.3 54 82.3C54 81.3 54.8 80.5 55.8 80.5C56.9 80.5 57.6 81.3 57.6 82.3Z" fill="white"/>
<path d="M60.6007 81.2C60.9007 82.1 60.4007 83 59.5007 83.3C58.6007 83.6 57.7007 83.1 57.4007 82.2C57.1007 81.3 57.6007 80.4 58.5007 80.1C59.4007 79.9 60.3007 80.3 60.6007 81.2Z" fill="white"/>
<path d="M63.3001 79.7C63.7001 80.5 63.4001 81.4 62.7001 81.8C61.9001 82.2 61.0001 81.9 60.6001 81.2C60.2001 80.4 60.5001 79.5 61.2001 79.1C62.0001 78.7 62.9001 78.9 63.3001 79.7Z" fill="white"/>
<path d="M65.6 78.0001C66.1 78.6001 65.9 79.5001 65.3 80.0001C64.7 80.5001 63.8 80.3001 63.3 79.7001C62.8 79.1001 63 78.2001 63.6 77.7001C64.2 77.2001 65.1 77.4001 65.6 78.0001Z" fill="white"/>
<path d="M67.0006 76.7001C67.5006 77.3001 67.4006 78.1 66.9006 78.6C66.3006 79.1 65.5006 79 65.0006 78.5C64.5006 77.9 64.6006 77.1 65.1006 76.6C65.7006 76.1 66.6006 76.1001 67.0006 76.7001Z" fill="white"/>
</g>
</g>
<defs>
<filter id="filter0_d_1146_716" x="0" y="0" width="112" height="112" filterUnits="userSpaceOnUse" color-interpolation-filters="sRGB">
<feFlood flood-opacity="0" result="BackgroundImageFix"/>
<feColorMatrix in="SourceAlpha" type="matrix" values="0 0 0 0 0 0 0 0 0 0 0 0 0 0 0 0 0 0 127 0" result="hardAlpha"/>
<feOffset/>
<feGaussianBlur stdDeviation="5"/>
<feComposite in2="hardAlpha" operator="out"/>
<feColorMatrix type="matrix" values="0 0 0 0 0 0 0 0 0 0 0 0 0 0 0 0 0 0 0.25 0"/>
<feBlend mode="normal" in2="BackgroundImageFix" result="effect1_dropShadow_1146_716"/>
<feBlend mode="normal" in="SourceGraphic" in2="effect1_dropShadow_1146_716" result="shape"/>
</filter>
</defs>
</svg>
